<?xml version="1.0" encoding="UTF-8" standalone="no"?>
<!DOCTYPE svg PUBLIC "-//W3C//DTD SVG 1.1//EN" "http://www.w3.org/Graphics/SVG/1.1/DTD/svg11.dtd">
<svg width="100%" height="100%" viewBox="0 0 417 139" version="1.1" xmlns="http://www.w3.org/2000/svg" xmlns:xlink="http://www.w3.org/1999/xlink" xml:space="preserve" xmlns:serif="http://www.serif.com/" style="fill-rule:evenodd;clip-rule:evenodd;stroke-linejoin:round;stroke-miterlimit:2;">
    <g transform="matrix(0.713684,-0.018583,0.0137119,0.640289,-115.887,-69.1694)">
        <path d="M744.082,129.624L179.113,121.165L156.068,328.445L726.7,314.124L744.082,129.624Z" style="fill:rgb(203,226,244);"/>
    </g>
    <g transform="matrix(2.3967,-0.0624055,0.0565951,2.64276,-56.9313,42.5901)">
        <text x="35.213px" y="9.66px" style="font-family:'LemonismDEMO-Regular', 'Lemonism DEMO';font-size:24.954px;fill:rgb(228,1,83);">U<tspan x="42.949px 51.208px 54.777px 61.015px 69.425px 74.44px 81.228px 89.662px 96.674px 103.462px 108.827px 117.087px 119.383px 126.17px " y="9.66px 9.66px 9.66px 9.66px 9.66px 9.66px 9.66px 9.66px 9.66px 9.66px 9.66px 9.66px 9.66px 9.66px ">N PALCOSCENICO</tspan></text>
        <text x="35.213px" y="28.954px" style="font-family:'LemonismDEMO-Regular', 'Lemonism DEMO';font-size:24.954px;fill:rgb(228,1,83);">T<tspan x="41.327px 48.962px 57.372px 64.384px 69.749px 78.184px 85.819px 97.348px 105.758px 111.871px 120.306px 123.874px 126.17px 134.43px 137.998px 145.01px 153.42px 158.435px 166.87px 172.984px 179.097px " y="28.954px 28.954px 28.954px 28.954px 28.954px 28.954px 28.954px 28.954px 28.954px 28.954px 28.954px 28.954px 28.954px 28.954px 28.954px 28.954px 28.954px 28.954px 28.954px 28.954px 28.954px ">RASFORMATO IN SALOTTO</tspan></text>
    </g>
</svg>
