<?xml version="1.0" encoding="UTF-8" standalone="no"?>
<!DOCTYPE svg PUBLIC "-//W3C//DTD SVG 1.1//EN" "http://www.w3.org/Graphics/SVG/1.1/DTD/svg11.dtd">
<svg width="100%" height="100%" viewBox="0 0 1304 42" version="1.1" xmlns="http://www.w3.org/2000/svg" xmlns:xlink="http://www.w3.org/1999/xlink" xml:space="preserve" xmlns:serif="http://www.serif.com/" style="fill-rule:evenodd;clip-rule:evenodd;stroke-linejoin:round;stroke-miterlimit:2;">
    <g transform="matrix(3.72643,9.06119e-16,-9.32107e-16,3.77812,651.734,20.6097)">
        <g id="sipario.svg" transform="matrix(1,0,0,1,-174.895,-5.455)">
            <clipPath id="_clip1">
                <rect x="0" y="0" width="349.79" height="10.91"/>
            </clipPath>
            <g clip-path="url(#_clip1)">
                <path d="M349.79,0L0,0C0,0.12 0.07,7.09 0.07,7.09C2.38,9 5.88,10.31 10.64,10.31C16.06,10.31 20.08,8.63 22.69,6.2C24.85,8.95 28.81,10.91 34.69,10.91C38.464,11.035 42.186,9.986 45.34,7.91C47.964,9.18 50.856,9.801 53.77,9.72C57.507,9.847 61.195,8.831 64.34,6.81C66.65,8.57 70,9.72 74.52,9.72C80,9.72 84,8 86.63,5.56C88.73,8 92.41,9.74 97.78,9.74C102.59,9.74 106.23,8.34 108.7,6.28C110.96,8.67 114.7,10.28 120.14,10.28C125.95,10.28 130.14,8.35 132.74,5.64C135,8.03 138.74,9.69 144.19,9.69C150.52,9.69 154.93,7.39 157.41,4.31C159.41,7.4 163.55,9.69 169.91,9.69C175.91,9.69 180.17,7.69 182.71,4.82C184.55,8.25 188.8,10.88 195.62,10.88C202.2,10.88 206.74,8.41 209.15,5.14C211.42,7.48 215.15,9.09 220.51,9.09C227.01,9.09 231.51,6.68 233.94,3.46C236.04,6.38 240.09,8.46 246.22,8.46C251.45,8.46 255.38,6.89 257.99,4.6C260.08,7.52 264.14,9.65 270.28,9.65C275.37,9.65 279.28,8.17 281.86,5.98L282.55,6.39C284.947,7.469 287.533,8.067 290.16,8.15C292.044,8.149 293.926,8.052 295.8,7.86C297.75,7.653 299.637,7.043 301.34,6.07C302.526,5.587 303.624,4.911 304.59,4.07C306.9,5.97 310.37,7.23 315.07,7.23C321.39,7.23 325.82,4.94 328.3,1.86C330.3,4.94 334.19,9.1 340.54,9.1C343.751,9.173 346.931,8.444 349.79,6.98L349.79,0Z" style="fill:#fff;fill-rule:nonzero;"/>
            </g>
        </g>
        <g id="sipario.svg1" serif:id="sipario.svg">
        </g>
    </g>
</svg>
