<svg id="Layer_1" data-name="Layer 1" xmlns="http://www.w3.org/2000/svg" viewBox="0 0 349.79 10.91"><defs><style>.cls-1{fill:#192a48;}</style></defs><title>sipario</title><path class="cls-1" d="M349.79,0H0C0,.12.07,7.09.07,7.09,2.38,9,5.88,10.31,10.64,10.31c5.42,0,9.44-1.68,12.05-4.11,2.16,2.75,6.12,4.71,12,4.71a18.27,18.27,0,0,0,10.65-3,18.2,18.2,0,0,0,8.43,1.81A18.4,18.4,0,0,0,64.34,6.81C66.65,8.57,70,9.72,74.52,9.72,80,9.72,84,8,86.63,5.56,88.73,8,92.41,9.74,97.78,9.74c4.81,0,8.45-1.4,10.92-3.46,2.26,2.39,6,4,11.44,4,5.81,0,10-1.93,12.6-4.64,2.26,2.39,6,4.05,11.45,4.05,6.33,0,10.74-2.3,13.22-5.38,2,3.09,6.14,5.38,12.5,5.38,6,0,10.26-2,12.8-4.87,1.84,3.43,6.09,6.06,12.91,6.06,6.58,0,11.12-2.47,13.53-5.74,2.27,2.34,6,3.95,11.36,3.95,6.5,0,11-2.41,13.43-5.63,2.1,2.92,6.15,5,12.28,5,5.23,0,9.16-1.57,11.77-3.86,2.09,2.92,6.15,5.05,12.29,5.05,5.09,0,9-1.48,11.58-3.67l.69.41a20.07,20.07,0,0,0,7.61,1.76,55.46,55.46,0,0,0,5.64-.29,14.19,14.19,0,0,0,5.54-1.79,11.63,11.63,0,0,0,3.25-2c2.31,1.9,5.78,3.16,10.48,3.16,6.32,0,10.75-2.29,13.23-5.37,2,3.08,5.89,7.24,12.24,7.24a19.34,19.34,0,0,0,9.25-2.12Z" transform="translate(0)"/></svg>