<?xml version="1.0" encoding="UTF-8" standalone="no"?>
<!DOCTYPE svg PUBLIC "-//W3C//DTD SVG 1.1//EN" "http://www.w3.org/Graphics/SVG/1.1/DTD/svg11.dtd">
<svg width="100%" height="100%" viewBox="0 0 1281 86" version="1.1" xmlns="http://www.w3.org/2000/svg" xmlns:xlink="http://www.w3.org/1999/xlink" xml:space="preserve" xmlns:serif="http://www.serif.com/" style="fill-rule:evenodd;clip-rule:evenodd;stroke-linejoin:round;stroke-miterlimit:2;">
    <g transform="matrix(0.598369,0,0,0.629787,3.78627,-8.73573)">
        <path d="M17.14,98.56L85.459,37.543L155.341,83.437L232.003,46.931L316.488,81.35L386.869,43.28L456.775,76.135L486.778,42.53L561.446,83.958L615.197,34.414L678.94,69.877L749.865,40.672L825.5,73.57L906.319,44.323L992.89,71.442L1063.29,38.586L1124.83,63.098L1165.9,43.683L1217.76,70.059L1264.99,31.782L1328.05,65.956L1402.82,40.106L1457.51,67.212L1527.37,33.171L1605.74,64.952L1676.74,35.05L1724.73,70.383L1802.35,49.575L1856.99,68.363L1938.34,41.352L2000.47,81.901L2072.44,35.514L2134.49,69.356L2134.49,13.871L-6.328,13.871L-6.328,60.074L17.14,98.56Z" style="fill:rgb(228,1,83);"/>
    </g>
</svg>
