<svg id="Guide_per_Facebook" data-name="Guide per Facebook" xmlns="http://www.w3.org/2000/svg" viewBox="0 0 94.22 80.94"><defs><style>.cls-1{fill:#CBE2F4;}</style></defs><title>snvn</title><path class="cls-1" d="M43.89,46.15a.74.74,0,0,0-.58-.21h-.19l-.87.19-.88.18h-.11l-.07.08a.64.64,0,0,0-.18.39,13.86,13.86,0,0,1-.32,1.5h0a6.93,6.93,0,0,1-.15,1.18c-.07.41-.1.67-.14,1a.77.77,0,0,1-.08.41,4.23,4.23,0,0,0-.14,1,6.08,6.08,0,0,1-.1,1.2A9.28,9.28,0,0,0,40,54.13a5.56,5.56,0,0,1-.08.7c0,.23-.07.48-.08.73a5.29,5.29,0,0,0-.08.8h0c-.06.36-.11.72-.17,1.07s-.07.5-.11.75c-.11-.27-.23-.54-.35-.82s-.33-.78-.49-1.18-.32-.74-.48-1.09-.39-.91-.58-1.43A11.67,11.67,0,0,1,37,52.39c-.27-.75-.55-1.49-.83-2.27-.08-.21-.18-.43-.27-.64s-.18-.41-.26-.61L35,47.1h0l-.11-.18-.06-.09a.49.49,0,0,0-.58-.12H33l-.43.06h-.4a.82.82,0,0,0-.68.37.54.54,0,0,0,0,.43,1.52,1.52,0,0,0,.18.47,4.22,4.22,0,0,1,.18.45c.17.48.34,1,.55,1.48a2.75,2.75,0,0,0,.15.36,1.66,1.66,0,0,1,.12.31c.09.24.16.48.24.72a9,9,0,0,0,.4,1.24c.33.86.74,1.71,1.13,2.51a7.79,7.79,0,0,0,.51,1l.25.5c.21.41.41.82.62,1.22L36.36,59c.44.78.88,1.58,1.34,2.41l.1.17c0,.08.09.16.14.24L38,62h.68a5,5,0,0,0,.77-.14c.26,0,.53-.1.81-.13l.42-.06.85-.14a.62.62,0,0,0,.66-.43V61l.06-.13h0l.09-.47a3.86,3.86,0,0,1,.09-.51l.06-.28a3.51,3.51,0,0,0,.09-.65,8.47,8.47,0,0,1,.16-1.33,5.5,5.5,0,0,1,.11-.69c0-.23.08-.46.12-.69s.1-.48.13-.72v-.13a5.76,5.76,0,0,1,.15-.81,8.46,8.46,0,0,0,.38-1.93v-.36a3.21,3.21,0,0,0,.07-.43v-.19a5.17,5.17,0,0,0,.1-.79V48.77a1.69,1.69,0,0,1,0-.45,6.78,6.78,0,0,0,0-1.56,1.41,1.41,0,0,0,0-.41v-.14Z" transform="translate(-18.89 -5.94)"/><path class="cls-1" d="M50.57,60H49.26V56.18a1.55,1.55,0,0,0,0-.43V52.23a3.58,3.58,0,0,1,.08-.91,4.73,4.73,0,0,0,.08-.91,14.13,14.13,0,0,1,.16-1.83c.08-.61.12-1.1.2-1.65l.12-1.08v-.74c0-.41.68-.66.94-.69h1.62a.52.52,0,0,1,.44.18A.42.42,0,0,1,53,45v2.95h0a5.08,5.08,0,0,0,0,.78v3.85a6.42,6.42,0,0,0,.08,1.29v4a1.31,1.31,0,0,0,0,.28v.32a4,4,0,0,1-.17,1.19.64.64,0,0,1-.71.42H50.57Z" transform="translate(-18.89 -5.94)"/><path class="cls-1" d="M49.62,58.52V56.24a4.69,4.69,0,0,0,0-.75V52.26c0-.46.12-1.22.16-1.83s.08-1.2.16-1.8.12-1.11.2-1.66l.12-1.09v-.77c0-.12.39-.34.63-.36.51,0,1-.07,1.5-.1.2,0,.32,0,.28.17v3a5.61,5.61,0,0,0,0,.82v3.85c0,.55.08,1.3.12,1.93v4a3.29,3.29,0,0,1-.16,1.08c0,.15-.12.2-.39.2H49.49Z" transform="translate(-18.89 -5.94)"/><path class="cls-1" d="M66.81,43.71c-.21-1.08-3.34-.31-4-.27h-.13a6.8,6.8,0,0,0-1.08.14l-.48.07a15.17,15.17,0,0,1-1.89.21h-.3l-.6.09h-.14l-.08.11a.6.6,0,0,0-.1.41l.09,3.06v.77a7.52,7.52,0,0,0,.06,1.16c.06.39,0,.76.05,1.15s0,.87,0,1.3a6.11,6.11,0,0,0,.06.86,4.51,4.51,0,0,1,0,.9,4,4,0,0,0,0,.49v.43h0V59c0,.12.06.5.62.49H65a6.62,6.62,0,0,0,1.18-.07c.39-.07.55,0,.63-.51a1.46,1.46,0,0,1,.06-.5c.06-.17,0-.36.06-.5a.56.56,0,0,0-.07-.42.77.77,0,0,0-.56-.25h-.77a17.48,17.48,0,0,0-1.77-.09H62.48l-1.15-.06c0-.75-.17-3.74-.17-4.47h1.06c1.43,0,2.67-.11,3.76-.21.53,0,.59-.35.59-.49v-1c0-.2,0-.48-.58-.52h0a.38.38,0,0,1-.15,0H61.33a18.5,18.5,0,0,1-.14-3.79,3.42,3.42,0,0,1,0-.64,17.87,17.87,0,0,0,2-.15l1.89-.2h.46c.37,0,.91,0,1.12-.34a1.92,1.92,0,0,0,.09-1.06A4.6,4.6,0,0,0,66.81,43.71Z" transform="translate(-18.89 -5.94)"/><path class="cls-1" d="M83.15,47c0-.87,0-1.72-.08-2.62v-.6H81.93a14.71,14.71,0,0,0-1.62.12H80v.8a.67.67,0,0,1,0,.2v1.26a2.35,2.35,0,0,1,0,.53l-.12,1.23V49.4a1.87,1.87,0,0,1-.08.67,2.82,2.82,0,0,0-.08.73v1.85c-.13-.3-.26-.6-.38-.9s-.34-.83-.49-1.25l-.14-.37-.09-.23c-.12-.32-.24-.63-.35-1l-.19-.39a2.5,2.5,0,0,1-.27-.63c-.08-.23-.17-.46-.27-.68l-.07-.14c-.18-.36-.34-.65-.51-.92-.29-.57-.63-1.19-1-1.93a.7.7,0,0,0-.66-.34h0c-.52,0-1.08-.08-1.58-.13H73.3a3.63,3.63,0,0,0-.93.1h0a.49.49,0,0,0-.36.23v.06a.66.66,0,0,0-.21.61v.06a.54.54,0,0,0,0,.18,8.43,8.43,0,0,0-.2,1A4.69,4.69,0,0,1,71.52,47a6.59,6.59,0,0,0-.08,1.11c0,.78-.08,1.58-.08,2.38v1.9A11.71,11.71,0,0,1,71.29,54v2.16a18.7,18.7,0,0,0,.08,2.9h0c.09.37.29.44.64.44h1.71a.79.79,0,0,0,.85-.56,2.8,2.8,0,0,0,.09-.58,2.18,2.18,0,0,0,0-.51,1.42,1.42,0,0,1-.4-.12v-7a5.57,5.57,0,0,1,0-1h0v-.66c1.75,3.52,3.35,7,4.78,10.32l.07.16h2.26a.74.74,0,0,0,.46-.2.92.92,0,0,0,.38-.73v-.06a11.48,11.48,0,0,0,.07-1.17,10.67,10.67,0,0,1,.12-1.6c0-.29.07-.56.09-.83a2.69,2.69,0,0,0,0-.41.49.49,0,0,1,0-.17v-.06a8.74,8.74,0,0,0,.21-1.77,1,1,0,0,1,0-.24h0a5,5,0,0,1,.06-.56.78.78,0,0,1,.06-.36v-2A4.43,4.43,0,0,0,83.15,47Z" transform="translate(-18.89 -5.94)"/><path class="cls-1" d="M91.59,48.71a5.79,5.79,0,0,1,.3-1.65c.71.07,1.36.13,2,.17l1.1.06a.52.52,0,0,0,.55-.49.59.59,0,0,0,0-.23,4.75,4.75,0,0,0-.66-1.49c-.89-.77-3.44-.29-4.64-.44h-1l-.1.09a.66.66,0,0,0-.17.39l-.38,3a.74.74,0,0,1-.06.36c-.06.12,0,.26-.07.4A11.12,11.12,0,0,1,88.25,50c0,.38-.07.76-.12,1.14s-.14.86-.24,1.29a4.8,4.8,0,0,0-.08.85,3.88,3.88,0,0,1-.1.9,4,4,0,0,0-.08.48.85.85,0,0,1-.07.42h0a6.87,6.87,0,0,1-.14,1c0,.33-.11.68-.15,1-.14.79-.24,1.61-.34,2.4a.53.53,0,0,0,.54.58l1.49.18c.77.1,1.59.21,2.38.37h.48l.59.07a2.33,2.33,0,0,1,.57.1l.5.08c.39,0,.79.08,1.17.11s.55,0,.7-.4a1.87,1.87,0,0,1,.14-.5c.05-.17.11-.34.14-.47a.54.54,0,0,0,0-.43.78.78,0,0,0-.51-.34h-.27a3.89,3.89,0,0,1-.49-.12c-.56-.15-1.15-.26-1.73-.36-.4-.06-.81-.14-1.22-.23s-.74-.14-1.13-.23c.09-.75.19-3,.31-3.68h.19l.43,0,.43.07c1.42.17,2.65.3,3.74.37.53.06.64-.26.67-.4s.07-.31.1-.48a4.26,4.26,0,0,1,.1-.49.58.58,0,0,0-.5-.61H95.4l-.77-.08a2.17,2.17,0,0,1-.76-.09h-.69l-.57-.06a7.22,7.22,0,0,1-1.12-.17l-.39-.07L91.25,51h0C91.26,50.64,91.41,50.16,91.59,48.71Z" transform="translate(-18.89 -5.94)"/><path class="cls-1" d="M34,29.71a10.54,10.54,0,0,0-3.08-4.23,13.28,13.28,0,0,1-1.63-1.55,3.81,3.81,0,0,0-.86-.84,3.55,3.55,0,0,0-.31-.23,7.4,7.4,0,0,1-.82-.66,22.86,22.86,0,0,1-2.6-3.2,4.55,4.55,0,0,1-.85-2.38v-.28A3,3,0,0,1,24,15.08c.12-.41.31-.51.49-.56a4.68,4.68,0,0,1,1.11-.24,4.84,4.84,0,0,1,1.65.13c.12,0,.25.07.38.35a5,5,0,0,1,.48,2.86,1,1,0,0,0,.35.85,1.17,1.17,0,0,0,.83.23h.17l.64-.1.65-.11A1.1,1.1,0,0,0,32,17.38a10.58,10.58,0,0,0,0-1.78,8.79,8.79,0,0,0-.6-2.91,2.73,2.73,0,0,0-1.17-1.48,10.74,10.74,0,0,0-3.37-1,14.77,14.77,0,0,0-2.66,0l-.87,0a3,3,0,0,0-1.5.5l-.29.25-.2.18a5.23,5.23,0,0,0-1.57,1.86,8.25,8.25,0,0,0-.9,3.54,7.67,7.67,0,0,0,1.2,4,18.21,18.21,0,0,0,1.68,2.56c.72.89,1.52,1.77,2.3,2.62l.35.38a11.79,11.79,0,0,0,1,1c.34.3.66.66,1,1l.14.15a1.16,1.16,0,0,1,.2.24l.06.06c.45.55.91,1.11,1.35,1.61a8.42,8.42,0,0,1,1.47,2.39,2.35,2.35,0,0,1,.19,1.8,8.94,8.94,0,0,1-.55,1.12l-.17.3A.69.69,0,0,1,29,36a11.76,11.76,0,0,1-1.54.44h-.15a4.29,4.29,0,0,1-1.7-.29.8.8,0,0,1-.63-.62,7.12,7.12,0,0,1-.29-1v-.5a5.55,5.55,0,0,1-.08-1,1.65,1.65,0,0,0-.07-.32.61.61,0,0,1,0-.27.61.61,0,0,0,0-.61.9.9,0,0,0-.73-.36h-.1a3.78,3.78,0,0,0-.82.12l-1.52.13h-.73a.81.81,0,0,0-.91.93c.06.59.15,1.12.25,1.69v.15a7.19,7.19,0,0,0,.69,2.4l.09.15a1.84,1.84,0,0,0,.3.43,6.87,6.87,0,0,0,.87.92l.27.24a6.82,6.82,0,0,0,1.14.86,7.27,7.27,0,0,0,4.49.94h.44a5.39,5.39,0,0,0,2.34-.76,7.19,7.19,0,0,0,2.35-2,8.4,8.4,0,0,0,1.23-2.47A8.72,8.72,0,0,0,34,29.71Z" transform="translate(-18.89 -5.94)"/><path class="cls-1" d="M43.9,9.36c-.37-.06-.74-.12-1.12-.15l-1-.1L41,9.05,40.26,9H38.65a6.46,6.46,0,0,1-.88,0H35a.48.48,0,0,0-.49.38.57.57,0,0,0,0,.26,10.52,10.52,0,0,1-.08,1.56.47.47,0,0,0,.48.48h.38a7.23,7.23,0,0,1,1.91-.17h.72A21.56,21.56,0,0,0,38,13.68v2.88a3.64,3.64,0,0,0,0,.66,7,7,0,0,1,.07.91v9.41a.49.49,0,0,0,0,.17h0v.13l.1.09a.53.53,0,0,0,.34.11H40c.57,0,.72-.15.86-.55A4.21,4.21,0,0,0,41.26,26c0-.33,0-.67.07-1v-.07c0-.35.07-.67.07-1V22.53a1.77,1.77,0,0,0,0-.46,6.57,6.57,0,0,0-.07-1.18v-.52a4.93,4.93,0,0,0-.07-.66,7.61,7.61,0,0,0-.09-.82c0-.27-.08-.53-.1-.78a6.17,6.17,0,0,1,0-.86v-1.7a10.09,10.09,0,0,1,0-1.1L41,13.23a16.44,16.44,0,0,0-.16-1.76h.46a1.7,1.7,0,0,1,.45,0,1.77,1.77,0,0,0,.46,0h1.44c.23,0,.7,0,.7-.57V9.82A.51.51,0,0,0,43.9,9.36Z" transform="translate(-18.89 -5.94)"/><path class="cls-1" d="M55.82,28.59v-.24A99,99,0,0,1,54.2,17.79c-.77.08-1.54.11-2.28.14s-1.32.05-2,.11c0,.4-.08.8-.11,1.19v.07c-.07.47-.11.95-.15,1.41v.53a11.48,11.48,0,0,0-.07,1.17,4.27,4.27,0,0,1-.13,1.18,2.53,2.53,0,0,1-.07.38,5,5,0,0,1-.07.76,4,4,0,0,0-.08.76c-.05.51-.06,1-.08,1.5v.77c0,.4-.15.57-.59.62h-.2l-1.66.15h-.55l-.26-.06v-.26L46,26.56c0-.34.07-.66.1-1s.06-.66.1-1v-.31a2.23,2.23,0,0,1,0-.36v-.18c.1-.86.21-1.72.32-2.56.11-1.16.27-2.35.42-3.37a9,9,0,0,1,.19-1.34c.07-.45.13-.89.19-1.34a.66.66,0,0,1,.07-.36,1.06,1.06,0,0,0,.08-.4c.06-.37.13-.73.19-1.1s.14-.71.19-1.07.07-.47.09-.7.06-.52.1-.78a10.79,10.79,0,0,1,.43-2.18c.16-.41.27-.78.38-1.15a1.73,1.73,0,0,1,.14-.31.21.21,0,0,0,.06-.1l.07-.2h1.46a11.22,11.22,0,0,1,2,.21l.69.12A5.39,5.39,0,0,1,54,7.2a6.09,6.09,0,0,0,1.13.1h.06a.61.61,0,0,1,.56.5c.12.48.24,1,.37,1.47l.36,1.46a2.64,2.64,0,0,0,.15.6c.11.45.23.92.31,1.41a3.64,3.64,0,0,0,.11.66,6.37,6.37,0,0,1,.08,1.31,6.31,6.31,0,0,0,.14,1c.06.35.09.52.13.78s.08.58.13.88.09.61.13.91.09.72.14,1.06.09.63.13.94v.23c.1.85.21,1.73.35,2.58s.23,1.52.38,2.29l.12,1a2.59,2.59,0,0,0,.07.73,3.84,3.84,0,0,1,.08.76.57.57,0,0,1-.59.65H57.16ZM50.88,10.42a14.24,14.24,0,0,1-.19,1.74c-.07.57-.11.92-.19,1.39h0a3.55,3.55,0,0,1-.12.65l-.2,1.34.66-.11.77-.12a6.64,6.64,0,0,1,.89-.05h.55l.5-.06h.26a23.17,23.17,0,0,0-1-5.09,14.68,14.68,0,0,0-1.86.2Z" transform="translate(-18.89 -5.94)"/><path class="cls-1" d="M49.6,17.77c-.08.51-.11,1-.15,1.51s-.12.93-.19,1.43a13.21,13.21,0,0,0-.11,1.72A6.52,6.52,0,0,1,49,24c0,.51-.12,1-.15,1.55-.08.75-.08,1.51-.12,2.27,0,.27,0,.31-.3.34-.65.07-1.26.14-1.87.17a1,1,0,0,1-.42,0c0-.55.07-1.1.11-1.65s.12-1.31.19-2a1.87,1.87,0,0,1,.08-.66c.11-.93.23-1.86.34-2.75.12-1.14.27-2.27.42-3.37.12-.9.27-1.79.38-2.69a6,6,0,0,1,.16-.75c.11-.73.26-1.45.38-2.17.07-.52.11-1,.19-1.48a9.68,9.68,0,0,1,.42-2.13c.15-.42.27-.8.38-1.17.06-.13.12-.26.19-.38H50.6a10.7,10.7,0,0,1,1.87.2c.46.07.92.18,1.37.24A6.75,6.75,0,0,0,55,7.63a.31.31,0,0,1,.3.27c.23,1,.5,2,.73,2.93.15.65.34,1.3.45,2a15,15,0,0,1,.3,1.88,15.41,15.41,0,0,0,.27,1.82c.08.62.19,1.21.27,1.79s.19,1.34.26,2c.12.93.23,1.89.39,2.82.11.76.22,1.51.38,2.31a9.83,9.83,0,0,0,.11,1c0,.48.12,1,.15,1.48,0,.24,0,.31-.3.34s-.8,0-1.18,0H56.09a101.61,101.61,0,0,1-1.64-10.84C52.81,17.71,51.2,17.6,49.6,17.77Zm1-7.4a13,13,0,0,1-.19,1.75c-.08.58-.11.93-.19,1.42a4.42,4.42,0,0,1-.11.65c-.08.52-.15,1-.23,1.55a.17.17,0,0,0,0,.14h.26c.5-.07,1-.18,1.53-.25s.95,0,1.41-.06.73-.11,1.07-.14A20.2,20.2,0,0,0,53,9.78a14.07,14.07,0,0,0-2.33.25c0,.1-.09.24-.13.34Z" transform="translate(-18.89 -5.94)"/><path class="cls-1" d="M66.74,28.18h-.32a5.27,5.27,0,0,1-3.18-1,5.58,5.58,0,0,1-.76-.7l-.22-.16a5,5,0,0,1-.57-.72,1.77,1.77,0,0,1-.19-.33v-.11a5.41,5.41,0,0,1-.34-1.78v-.12c0-.41-.07-.8-.07-1.23s.36-.57.67-.57h1.65q.3,0,.6,0h.07a.61.61,0,0,1,.46.28.38.38,0,0,1,0,.41.45.45,0,0,0,0,.23.89.89,0,0,1,0,.23,4.57,4.57,0,0,0,0,.74v.37a6,6,0,0,0,.14.74.62.62,0,0,0,.45.52,2.93,2.93,0,0,0,1.23.33h.12a7.91,7.91,0,0,0,1.18-.22h0l.13-.16.14-.21a7.85,7.85,0,0,0,.49-.78,1.76,1.76,0,0,0,0-1.35,6.35,6.35,0,0,0-.93-1.88c-.3-.41-.61-.86-.91-1.3a1.43,1.43,0,0,0-.14-.2l-.09-.11c-.2-.27-.42-.53-.64-.79s-.44-.54-.65-.82l-.23-.3c-.51-.67-1-1.36-1.5-2.06a13.83,13.83,0,0,1-1-2,5.47,5.47,0,0,1-.6-3,6,6,0,0,1,.83-2.42,3.68,3.68,0,0,1,1.25-1.23L64,6.36l.22-.16a2,2,0,0,1,1.1-.26h.63a10.4,10.4,0,0,1,1.93.16,7.47,7.47,0,0,1,2.36,1A2,2,0,0,1,71,8.22a6.5,6.5,0,0,1,.24,2.15,6.83,6.83,0,0,1-.08,1.28c-.07.62-.54.7-.94.7H69.1a.76.76,0,0,1-.56-.2.71.71,0,0,1-.18-.61,3.78,3.78,0,0,0-.17-2.13c-.07-.23-.18-.28-.28-.31a4.08,4.08,0,0,0-1.2-.2,3.39,3.39,0,0,0-.84.1.57.57,0,0,0-.43.4,2.61,2.61,0,0,0-.19.92v.21a3.26,3.26,0,0,0,.47,1.8,16.81,16.81,0,0,0,1.68,2.5,5.73,5.73,0,0,0,.56.54l.21.19a2.73,2.73,0,0,1,.56.66,9.87,9.87,0,0,0,1.09,1.24,7.47,7.47,0,0,1,2,3.26,6.24,6.24,0,0,1-.27,4,6,6,0,0,1-1,1.7,5.28,5.28,0,0,1-1.82,1.28A3.85,3.85,0,0,1,66.74,28.18Z" transform="translate(-18.89 -5.94)"/><path class="cls-1" d="M70.78,11.6c0,.35-.19.45-.61.45a4.53,4.53,0,0,0-1,.07c-.36.07-.53-.14-.49-.48a3.92,3.92,0,0,0-.2-2.27A.65.65,0,0,0,68,8.89a4.05,4.05,0,0,0-2.21-.11.85.85,0,0,0-.65.59,3.28,3.28,0,0,0-.23,1.2,3.67,3.67,0,0,0,.49,2,17.53,17.53,0,0,0,1.72,2.55,9.58,9.58,0,0,0,.8.76,2.79,2.79,0,0,1,.5.58,9.74,9.74,0,0,0,1.15,1.25,7.27,7.27,0,0,1,1.87,3.13,6,6,0,0,1-.26,3.87,5.77,5.77,0,0,1-1,1.62,4.78,4.78,0,0,1-1.71,1.2,3.74,3.74,0,0,1-2,.38,5,5,0,0,1-3-.89,7.49,7.49,0,0,1-.92-.86,5.06,5.06,0,0,1-.53-.69,1.72,1.72,0,0,1-.23-.42,5.37,5.37,0,0,1-.31-1.68c0-.45-.07-.86-.07-1.31,0-.24.07-.27.34-.27H64c.19,0,.31.13.23.27s0,.41,0,.59c0,.35,0,.71,0,1.06a5.24,5.24,0,0,0,.15.79.92.92,0,0,0,.65.72,3.09,3.09,0,0,0,1.49.35,8.76,8.76,0,0,0,1.26-.24.73.73,0,0,0,.3-.28,8.15,8.15,0,0,0,.65-1,1.9,1.9,0,0,0,0-1.55,6.5,6.5,0,0,0-1-1.92c-.31-.42-.61-.86-.92-1.31a2.18,2.18,0,0,0-.22-.31c-.42-.55-.88-1.07-1.3-1.62-.58-.76-1.19-1.55-1.72-2.34a14.11,14.11,0,0,1-1-1.93,5.23,5.23,0,0,1-.57-2.85,5.49,5.49,0,0,1,.84-2.38A3.5,3.5,0,0,1,64,6.71c.12-.07.27-.21.38-.28a1.72,1.72,0,0,1,.92-.2,14.7,14.7,0,0,1,2.48.17A7.54,7.54,0,0,1,70,7.33a1.62,1.62,0,0,1,.61,1,6.28,6.28,0,0,1,.23,2.07A6.92,6.92,0,0,1,70.78,11.6Z" transform="translate(-18.89 -5.94)"/><path class="cls-1" d="M76,27.5c-.51,0-.63-.17-.68-.53l-.09-1.62v-15c0-.8.07-1.63.13-2.44a1.49,1.49,0,0,1,.14-.51l.06-.13V7.22h.06A.65.65,0,0,1,76,7h1c.94,0,1.83,0,2.77.06h1.2c.47.12.85.2,1.17.25a.54.54,0,0,1,.48.55v1a.44.44,0,0,1-.1.35.63.63,0,0,1-.48.19H80.57c-.67.06-1.34.13-2,.22a1.15,1.15,0,0,0-.41.08.76.76,0,0,0,0,.3,20.86,20.86,0,0,1,.08,2.37v4.26h1.24A3.55,3.55,0,0,1,80,16.6h0a3.79,3.79,0,0,1,.58-.05,5.61,5.61,0,0,1,.58,0h.59c.56,0,.67.3.67.55h0a1,1,0,0,0,0,.24v.25c0,.26,0,.53,0,.79v.67h-.31l-2,.11-1.82.1h0v4.37s.11,1.32.11,1.33l.8-.07h.73a7,7,0,0,0,.91-.08l.47-.06.44-.06.48-.07h.14a.56.56,0,0,1,.58.52h0v.92a3.21,3.21,0,0,1,0,.62c0,.36-.16.52-.6.57l-1.25.1h-.79a1.25,1.25,0,0,1-.43-.07,3.06,3.06,0,0,1-1,.13h-2a5.25,5.25,0,0,0-.79.06h0Z" transform="translate(-18.89 -5.94)"/><path class="cls-1" d="M79.26,25.17a1,1,0,0,1,.35,0A8,8,0,0,0,81.37,25a7.27,7.27,0,0,0,.92-.13c.32,0,.32,0,.35.26v.64a5.61,5.61,0,0,1,0,.82c0,.26,0,.29-.31.32l-1.24.1H80.7c-.28-.07-.6.06-.88-.1h-.07a4.18,4.18,0,0,1-1.27.16H76.82a5.54,5.54,0,0,0-.81.07c-.32,0-.32,0-.35-.29,0-.54-.07-1.05-.11-1.59a8.34,8.34,0,0,1,0-1V10.47c0-.76.07-1.69.14-2.51a2,2,0,0,1,.18-.58A.26.26,0,0,1,76,7.29a3.42,3.42,0,0,1,.64,0H77c1,0,1.87,0,2.82.06h1.06c.39.09.81.19,1.2.25a.23.23,0,0,1,.21.25h0v1c0,.13-.07.23-.25.23H80.52c-.67.06-1.34.12-2,.22s-.74.16-.67.7a26,26,0,0,1,.07,2.93v2.87a11,11,0,0,0,0,1.15h1.59A3.62,3.62,0,0,1,80,16.9a3.07,3.07,0,0,1,.6-.07,8,8,0,0,0,1.2-.06c.39-.06.31.06.31.25a1.22,1.22,0,0,1-.07.51c0,.27,0,.53,0,.8v.38c-1.38.07-2.72.16-4.13.22v4.68c0,.49.08.86.11,1.31v.32Z" transform="translate(-18.89 -5.94)"/><path class="cls-1" d="M93.77,28h-.51v-.46a.81.81,0,0,1,0-.22v-.07a5.13,5.13,0,0,0,.13-1.46v-.25a19.22,19.22,0,0,0,0-2.4,29.05,29.05,0,0,0-.33-2.94,3.35,3.35,0,0,0-.4-1.24,1.12,1.12,0,0,0-1-.72h-.39a9.8,9.8,0,0,0-1.71.16.71.71,0,0,0,0,.29h0a11.87,11.87,0,0,0,.07,1.19v3.84a11.12,11.12,0,0,0-.06,2,5.57,5.57,0,0,1,0,1c0,.42-.2.61-.7.66a7.27,7.27,0,0,0-1,.11H87l-.07-.24a1.93,1.93,0,0,1,0-.48,7.82,7.82,0,0,0-.08-1.35c-.08-.46,0-.93-.08-1.38a31.92,31.92,0,0,1,0-3.66V19a8.6,8.6,0,0,1,.07-1.34c.07-.44,0-.87.07-1.31l.2-2.25c.06-.58.1-1.19.13-1.77v-.07c.07-.74.14-1.51.17-2.26a10.29,10.29,0,0,0,0-1.36V8.43l.16-.1a2.43,2.43,0,0,0,.25-.2A1,1,0,0,1,88.28,8c.6-.09,1.25-.15,1.87-.21h.41a3.92,3.92,0,0,1,.59,0,8.2,8.2,0,0,1,1.7.24,3.21,3.21,0,0,1,1.75.94,4.17,4.17,0,0,1,.76,1.22,5.48,5.48,0,0,1,.35,2.16v1.23a1.44,1.44,0,0,1-.08.46c-.06.35-.16.75-.26,1.13h0a1.36,1.36,0,0,1-.21.37h0l-.8.8a3.89,3.89,0,0,1,.82.63l.22.19a4.47,4.47,0,0,1,.45.42,3.11,3.11,0,0,1,.71,1.2l.09.22a7.81,7.81,0,0,1,.49,3.35,6.51,6.51,0,0,1-.07,1.17,4.74,4.74,0,0,1-.06.75v1.06c0,.62-.1,1.28-.16,1.92h0c0,.31-.22.51-.59.51-.65.06-1.28.09-2,.12ZM89.58,10.71a17.91,17.91,0,0,1-.08,2.06v2.77h.32l.63,0c.4-.09.84-.21,1.26-.33a.26.26,0,0,0,.16-.09,2.73,2.73,0,0,0,.55-1.68,7.27,7.27,0,0,0-.16-1.23.77.77,0,0,0-.07-.39,3.2,3.2,0,0,0-.34-1,1.53,1.53,0,0,0-.86-.64,3.08,3.08,0,0,0-.8-.1h-.62C89.59,10.24,89.58,10.5,89.58,10.71Z" transform="translate(-18.89 -5.94)"/><path class="cls-1" d="M94.64,17.24c.24.21.47.39.67.6a3.46,3.46,0,0,1,.74,1.34,7.27,7.27,0,0,1,.47,3.23,11.09,11.09,0,0,1-.07,1.15,4.87,4.87,0,0,1-.06.76,9.37,9.37,0,0,1,0,1.06c0,.63-.1,1.3-.16,2,0,.15-.07.25-.27.25-.71.06-1.38.09-2.08.12h-.24c-.1,0,0-.25,0-.37a6.24,6.24,0,0,0,.13-1.78,19.54,19.54,0,0,0,0-2.42c-.07-1-.17-2-.34-3A3.65,3.65,0,0,0,93,18.85,1.46,1.46,0,0,0,91.66,18a9.82,9.82,0,0,0-2.42.21,5.42,5.42,0,0,0,0,.57c0,.4,0,.81.07,1.21v3.74a10.42,10.42,0,0,0-.07,2.09,5.57,5.57,0,0,1,0,1c0,.3-.07.36-.4.39s-.67.06-1,.12h-.61a2.94,2.94,0,0,1,0-.42c-.07-.91-.1-1.85-.17-2.75-.1-1.7,0-3.39,0-5.08,0-.88.1-1.76.13-2.64s.14-1.48.21-2.24c.06-.6.1-1.24.13-1.84.07-.76.13-1.51.17-2.27a10.75,10.75,0,0,0,0-1.39A2.34,2.34,0,0,0,88,8.44a.53.53,0,0,1,.3-.09c.6-.09,1.24-.15,1.88-.22h.4a5.74,5.74,0,0,1,2.18.19,3,3,0,0,1,1.58.84,3.42,3.42,0,0,1,.7,1.12,5.38,5.38,0,0,1,.34,2.06v1.24a2.63,2.63,0,0,1-.06.39c-.07.37-.17.76-.27,1.15a1.46,1.46,0,0,1-.17.3l-.81.82a1.66,1.66,0,0,1-.26.27A2.73,2.73,0,0,1,94.64,17.24Zm-4.12-1.45c.43-.09.87-.21,1.31-.34a.61.61,0,0,0,.33-.21,3.11,3.11,0,0,0,.6-1.84,10.48,10.48,0,0,0-.23-1.67,3.46,3.46,0,0,0-.37-1.08,1.87,1.87,0,0,0-1-.79,8.33,8.33,0,0,0-1.41-.15,1.55,1.55,0,0,0-.43,0,29.58,29.58,0,0,1-.11,3.08,29.52,29.52,0,0,0,0,3.12C89.64,15.85,90.08,15.85,90.52,15.79Z" transform="translate(-18.89 -5.94)"/><path class="cls-1" d="M113.11,34.06V33.2L113,32.07c-.11-.86-.18-1.71-.26-2.53v-.11c-.09-1-.15-2-.21-2.93v-.29c0-.36,0-.71-.08-1.08s-.06-.8-.08-1.22l-.09-1c0-.34-.07-.68-.09-1s0-.6-.09-.89-.08-.81-.09-1.16a7.61,7.61,0,0,0-.09-1.51c0-.25-.06-.5-.08-.76,0-.57-.16-1.11-.25-1.64,0-.23-.09-.46-.13-.69-.1-.56-.2-1.13-.31-1.7s-.21-1.13-.31-1.68a.8.8,0,0,0-.67-.68h-.09a7.69,7.69,0,0,1-1.26-.2l-.76-.18-.78-.18a12.88,12.88,0,0,0-2.22-.38h-1.72l-.13.27a.13.13,0,0,1-.06.1A1.41,1.41,0,0,0,103,11c-.15.41-.31.83-.51,1.3a11,11,0,0,0-.65,2.46c-.07.29-.12.58-.17.89s-.1.51-.15.78-.19.8-.29,1.2-.21.83-.3,1.25a1.69,1.69,0,0,1-.12.44c0,.14-.08.27-.11.41-.09.5-.2,1-.31,1.5s-.22,1-.31,1.53c-.24,1.15-.5,2.5-.72,3.81-.17.92-.35,1.86-.53,2.81v.28a2.79,2.79,0,0,1-.07.4.92.92,0,0,1-.07.36l-.18,1.14c0,.36-.5,2.68-.57,3l-.29,2.22.37.11a1.79,1.79,0,0,0,.46.09h.2c.63,0,1.25,0,1.9-.06h.23c.55,0,.76-.24.79-.74a8.36,8.36,0,0,1,.09-.86c0-.56.5-3.09.59-3.66a5,5,0,0,1,.14-.86c0-.28.11-.59.14-.86a1.61,1.61,0,0,1,.11-.43,5.08,5.08,0,0,0,.22-1.34,9.56,9.56,0,0,1,.16-1.31,6,6,0,0,1,.09-.61c.08-.53.15-1.07.27-1.6V24.5c.06-.41.12-.83.2-1.24h4.7a116.8,116.8,0,0,0,1,12v.34l1.6.1h1.42c.66,0,.77-.4.79-.78S113.12,34.35,113.11,34.06Zm-6.53-14a8.34,8.34,0,0,0-1,0l-.89.09-.63.06.29-1.4c.06-.25.11-.47.17-.68v-.06c.11-.51.24-1.08.32-1.6s.25-1.28.34-2v-.1a13.33,13.33,0,0,1,2-.09A25.58,25.58,0,0,1,108,20h-.79c-.18,0-.38.05-.59,0Z" transform="translate(-18.89 -5.94)"/><path class="cls-1" d="M58.39,37.05a10.28,10.28,0,0,1,.21-1.38,5.22,5.22,0,0,0,0-.56.92.92,0,0,1,.08-.47.81.81,0,0,0,0-.22v-.71a13,13,0,0,0,1.52-.06v1.06a6.17,6.17,0,0,1,0,.86v.77c-.17.84-.3,1.68-.44,2.53a.84.84,0,0,1-.14.41c-.21.28-1.24.2-1.51,0a6.69,6.69,0,0,1-1.17-1.57c0-.13-.38-.49-.46-.6-.43-.56-.85-1.14-1.27-1.71-.08-.11-.19-.24-.32-.21s-.19.26-.19.43v2.73c0,.66-.32,1.19-1,1.13a1.05,1.05,0,0,1-.79-.38c-.31-.42,0-1.19,0-1.68,0-.21,0-.41,0-.62V35.16a7,7,0,0,1,.11-.82,2.91,2.91,0,0,1,.12-.39v-.13s.1-.12.15-.18h.13a5.47,5.47,0,0,1,.81,0,3.05,3.05,0,0,1,1.24.11,4.69,4.69,0,0,1,1,1.13q.47.57.9,1.17a9.37,9.37,0,0,0,.86,1.23A1.19,1.19,0,0,0,58.39,37.05Z" transform="translate(-18.89 -5.94)"/><path class="cls-1" d="M76.75,37.1a16.67,16.67,0,0,1,.15-2c0-.41,0-1.33.27-1.59a.89.89,0,0,1,.65-.16,1.89,1.89,0,0,0,.67,0v3c0,.79,0,2.73-.55,3.22a.24.24,0,0,1-.14,0H76.58c-1-1.62-2.12-3.24-3.3-4.85a.17.17,0,0,0,0,.21,2,2,0,0,1,0,.73,2.81,2.81,0,0,0,0,.58V39a1.17,1.17,0,0,1-.13.58c-.23.32-1,.15-1.32.16s-.17,0-.2-.08a4.34,4.34,0,0,1,0-.51,14.7,14.7,0,0,1,.11-2.65c.06-.8.11-1.61.18-2.41s.52-.72,1.13-.7h1a.29.29,0,0,1,.25.08,32.43,32.43,0,0,1,2.07,3.12,6.81,6.81,0,0,0,.41.63l.14.15h0Z" transform="translate(-18.89 -5.94)"/><path class="cls-1" d="M66.73,39.59h-.81a9.38,9.38,0,0,1-1.3-.12,2.53,2.53,0,0,1-1.48-.58l-.09-.09-.12-.09a1,1,0,0,1-.22-.34v-.12l-.25-.54h0a3.59,3.59,0,0,1-.12-.47,10,10,0,0,1-.15-1.1v-.7a5.81,5.81,0,0,1,0-.59,1.28,1.28,0,0,1,.11-.33l.09-.21c0-.09.09-.19.14-.29a2.67,2.67,0,0,1,.32-.43A1.64,1.64,0,0,1,64,33.15h.64a6.65,6.65,0,0,1,1-.11h.66a12.57,12.57,0,0,1,1.93.24,1.92,1.92,0,0,1,1.45,1.09,1.82,1.82,0,0,1,.11.46V35a1.48,1.48,0,0,1,.1.27c0,.22,0,.45,0,.67V37.7a.61.61,0,0,1,0,.27v.15a1.48,1.48,0,0,1-.52.91,2.6,2.6,0,0,1-1.59.61h-.08l-.91.08h0ZM65.5,33.92h-.12a1.1,1.1,0,0,0-.81.31,1.16,1.16,0,0,0-.24.62,1.64,1.64,0,0,1-.09.44,4,4,0,0,1-.08.48v.82a4.53,4.53,0,0,0,.09.74.9.9,0,0,0,.08.28,3.18,3.18,0,0,0,.16.32.88.88,0,0,0,.41.23,5,5,0,0,0,.75.15,6.73,6.73,0,0,0,1,.07h.2a2.38,2.38,0,0,0,.79-.17.55.55,0,0,0,.25-.2,1.18,1.18,0,0,0,.23-.54c0-.19.06-.38.07-.56s0-.22,0-.33v-.47a.45.45,0,0,1,0-.23,2.06,2.06,0,0,0,0-.7v-.13a.79.79,0,0,1-.06-.22,1,1,0,0,0-.31-.41h-.07a2.62,2.62,0,0,0-1.08-.37h-.11A5.39,5.39,0,0,0,65.5,33.92Z" transform="translate(-18.89 -5.94)"/><path class="cls-1" d="M41.26,72.49c0-.91,0-1.8,0-2.75v-.63h-.83a5.8,5.8,0,0,0-1.1.13h-.22V70a1.22,1.22,0,0,1,0,.27v1.44a5.42,5.42,0,0,1,0,.57L39,73.6v2.29a4,4,0,0,1,0,.76v1.47c0-.16-.09-.32-.13-.48-.12-.43-.22-.89-.32-1.34l-.1-.41-.06-.25c-.08-.35-.16-.67-.23-1a1.59,1.59,0,0,0-.12-.41,4.26,4.26,0,0,1-.19-.7,5.78,5.78,0,0,0-.17-.69v-.17c-.12-.38-.23-.68-.35-1-.19-.61-.41-1.27-.69-2a.51.51,0,0,0-.5-.39h0a6.09,6.09,0,0,1-1-.12h-.32a2,2,0,0,0-.68.12h0a.4.4,0,0,0-.25.24v.08a.85.85,0,0,0-.12.54.29.29,0,0,1,0,.13v.17c0,.36-.1.72-.13,1.1s0,.76,0,1.14a8.18,8.18,0,0,1-.06,1.19v4.56c0,.57,0,1.11,0,1.69v2.32a17.22,17.22,0,0,0,0,1.76v1.31h0c0,.22.1.44.5.44h1.16a.68.68,0,0,0,.61-.58,3.79,3.79,0,0,0,.05-.58,4.69,4.69,0,0,0,0-.53v-7.7a6.61,6.61,0,0,1,0-1.09v-.38c1.11,3.63,2.14,7.2,3,10.63v.15h.14a.81.81,0,0,0,.31,0h1.11a.51.51,0,0,0,.4-.25,1.09,1.09,0,0,0,.23-.68v-.06c0-.42.05-.82.05-1.25a13.72,13.72,0,0,1,.08-1.74,4.15,4.15,0,0,1,.06-.87,1,1,0,0,0,0-.43,1,1,0,0,1,0-.24h0a13,13,0,0,0,.14-1.87,1.5,1.5,0,0,1,0-.3v-.06a2.81,2.81,0,0,1,.05-.64V75A24.43,24.43,0,0,0,41.26,72.49Z" transform="translate(-18.89 -5.94)"/><path class="cls-1" d="M45.62,80.92h.57a17.42,17.42,0,0,0,2.53-.11.45.45,0,0,0,.48-.4V79.24a.52.52,0,0,0-.42-.54H45.64V73.42a4,4,0,0,0,0-.49V69.74a5.79,5.79,0,0,0,1.32-.1l1.28-.16h.91l.24-.09v-.25a4,4,0,0,1,0-1.61v-.24l-.21-.11a.63.63,0,0,0-.29-.1h-.55c-.56,0-1.15.08-1.71.11h-.08a3.9,3.9,0,0,0-.74.11l-.32.07a5.88,5.88,0,0,1-1.25.17.49.49,0,0,0-.24,0l-.39.07h-.15l-.06.13a.7.7,0,0,0-.06.35v9.57a7.37,7.37,0,0,0,0,.94,9.37,9.37,0,0,1,0,1.06,4.69,4.69,0,0,0,0,.53v5.54a.45.45,0,0,0,.41.49h1.07a13.82,13.82,0,0,1,1.58.07h.77a1.93,1.93,0,0,1,.34,0h1.17a.5.5,0,0,0,.5-.49l.06-.57v-.58a.54.54,0,0,0-.4-.65h-.25a1.55,1.55,0,0,1-.31-.06,7,7,0,0,0-1.21-.16,2.74,2.74,0,0,1-.84-.09l-.71-.09V80.93Z" transform="translate(-18.89 -5.94)"/><path class="cls-1" d="M58.62,67.77a3.1,3.1,0,0,0-2-2.33c-1.18-.44-3.18-.24-3.93.91-.2.34-.38.63-.56.88a10,10,0,0,0-.77,3.37,7.78,7.78,0,0,0,.81,4.47c1.09,2.11,2.91,4,3.66,6.34a3.6,3.6,0,0,1,.08,2.13A2.74,2.74,0,0,1,54.79,85a.73.73,0,0,1-.38.08h-.18a.57.57,0,0,1-.11-.11l-.06-.06a2.46,2.46,0,0,1-.57-1.39l-.23-1.3v-.87a.39.39,0,0,0-.32-.16h-.22a5.11,5.11,0,0,1-1.21-.1h0a.56.56,0,0,0-.46.16.51.51,0,0,0-.1.41A1.71,1.71,0,0,0,51,82a.89.89,0,0,1,0,.23,6,6,0,0,0,.12,1.2v.2a2.23,2.23,0,0,0,.34,1.12l.09.14a3.4,3.4,0,0,0,1.29,1.37l.15.08a3.19,3.19,0,0,0,.64.32,4,4,0,0,0,1.37.24h.58a2.57,2.57,0,0,0,.67-.19,5.68,5.68,0,0,0,.91-.63,3,3,0,0,0,1-1.59c.08-.28.14-.55.2-.83A10.22,10.22,0,0,0,57.07,77c-.7-1-1.57-1.83-2.25-2.83-.88-1.32-1.58-4.56-.57-6a.47.47,0,0,1,.2-.22,1.29,1.29,0,0,1,.71-.22,1.4,1.4,0,0,1,.53.11c.25.08.41,2.59.49,2.85a8.15,8.15,0,0,1,.38,1.53,1,1,0,0,0,.09.5c.09.18.1.46.41.46h.17a5.93,5.93,0,0,1,.84-.06h.38a.41.41,0,0,0,.42-.4v-.8A28.81,28.81,0,0,0,58.62,67.77Z" transform="translate(-18.89 -5.94)"/><path class="cls-1" d="M67.9,67.71a2.67,2.67,0,0,0-.27-.87,3,3,0,0,0-1-1.06l-.2-.15a.38.38,0,0,0-.25-.09l-.26-.07a8.52,8.52,0,0,0-1-.23h-.46a2.05,2.05,0,0,0-.65.1l-.28.07a6.09,6.09,0,0,0-.61.17,3,3,0,0,0-1.41.76c-1.58,2.77-2,8.28,1.09,10.36A3.19,3.19,0,0,1,63,77l.85,1,.15.21a2.43,2.43,0,0,1,.29.49A15.05,15.05,0,0,1,65,80.59a3.42,3.42,0,0,1,.08,2.12A2.72,2.72,0,0,1,64,84.17a.59.59,0,0,1-.37.07h-.18l-.11-.1-.06-.07a2.31,2.31,0,0,1-.62-1.36l-.16-1.3v-.86a.37.37,0,0,0-.32-.17h-.32a4.62,4.62,0,0,1-1.21-.11h0a.54.54,0,0,0-.45.15.53.53,0,0,0-.1.42,1.71,1.71,0,0,0,0,.32.81.81,0,0,1,0,.22,6.13,6.13,0,0,0,.12,1.21v.19a2.23,2.23,0,0,0,.34,1.12l.09.14a3.34,3.34,0,0,0,1.29,1.37l.15.09a2.91,2.91,0,0,0,.64.31,4,4,0,0,0,1.37.25h.58a3.19,3.19,0,0,0,.67-.19,4.81,4.81,0,0,0,.91-.64,3.05,3.05,0,0,0,1-1.58c.08-.28.14-.57.19-.84A6.7,6.7,0,0,0,67.52,81V80.8a1.51,1.51,0,0,0-.06-.52c-.11-.56-.22-1.13-.38-1.69-.62-2-2.5-3.2-3.44-5.07-.5-1-1.28-4.88,0-5.64a1.37,1.37,0,0,1,.71-.21,1.41,1.41,0,0,1,.54.11c.25.08.41,2.58.49,2.85a8.12,8.12,0,0,1,.37,1.53,2.46,2.46,0,0,0,.1.5c0,.18.09.46.41.46h.17a5.93,5.93,0,0,1,.84-.06h.38a.38.38,0,0,0,.41-.37v-.06a4.87,4.87,0,0,0,.06-.76C68,71.26,68,68.31,67.9,67.71Z" transform="translate(-18.89 -5.94)"/><path class="cls-1" d="M78.07,72.23v-.66c0-2-.13-4.06-.33-6.1a14.28,14.28,0,0,1-2.13.49c-.25,0-.52.14-.46.62a4.16,4.16,0,0,1,.08,1.22V71c0,.56.06,1.11.06,1.63v4.28c0,.65-.08,1.31-.13,1.94l-.16,2a6.61,6.61,0,0,1-.23,1.33,1.62,1.62,0,0,1-.5.83l-.13.11h0a2.73,2.73,0,0,1-.89.15h-.13a1.6,1.6,0,0,1-.79-.79A4.31,4.31,0,0,1,72,81V75.17a4.86,4.86,0,0,0,0-.54V64.92c0-.28,0-.47-.38-.53H69.8a.5.5,0,0,0-.43.55c0,.51-.06,2.56-.08,3.07v5.77a.33.33,0,0,0,0,.14V74a2,2,0,0,1,0,.35v2.81c0,.93.06,1.75.06,2.61v.4c0,.28,0,.55,0,.83a10.71,10.71,0,0,0,.44,2.17,3.78,3.78,0,0,0,.51,1,4.06,4.06,0,0,0,2.13,1.53,3.43,3.43,0,0,0,1,.21h.13a8.34,8.34,0,0,0,1.71-.33,2.3,2.3,0,0,0,1.61-1.63,9.88,9.88,0,0,0,.43-2.15V81.5a8.6,8.6,0,0,1,.15-1.23l.09-.63c0-.35,0-.69.07-1a8.91,8.91,0,0,1,.06-1v-.51a10.68,10.68,0,0,1,.15-1.56,4.69,4.69,0,0,0,0-.53v-1.4a2.29,2.29,0,0,0,0-.37q0-.33,0-.66Z" transform="translate(-18.89 -5.94)"/><path class="cls-1" d="M87.82,72.22V66.71H87a6,6,0,0,0-1.11.13l-.22.06v.79a1.41,1.41,0,0,1,0,.29v3.33c0,.2,0,.41,0,.61l-.08,1.38V75l-.06.76v2.34a2.39,2.39,0,0,0-.13-.51c-.12-.45-.22-.93-.32-1.4l-.1-.43-.06-.27c-.09-.36-.17-.71-.23-1.07a1.64,1.64,0,0,0-.13-.43,3.83,3.83,0,0,1-.19-.74,3.18,3.18,0,0,0-.17-.74v-.16a8,8,0,0,0-.35-1c-.19-.64-.42-3.3-.7-4.12a.53.53,0,0,0-.51-.4h0a7.7,7.7,0,0,1-1.06-.14h-.32a1.8,1.8,0,0,0-.69.13h0a.35.35,0,0,0-.25.25v.87a1,1,0,0,0-.12.56.33.33,0,0,1,0,.14v.19c0,.35-.1,1.92-.13,2.32s0,.8,0,1.2L80,73.53v4.84c0,.59,0,1.16,0,1.75v4.32A11.32,11.32,0,0,0,80,85.85c0,.24.1.46.5.46h1.17a.68.68,0,0,0,.61-.61c0-.2,0-.41.06-.61a5.23,5.23,0,0,0,0-.56.89.89,0,0,1,0-.23V76.45a7.36,7.36,0,0,1,0-1.15v-.4c1.13,3.82,2.16,7.57,3.09,11.19v.15h.15a.81.81,0,0,0,.31.05H87a.49.49,0,0,0,.4-.26,1.18,1.18,0,0,0,.24-.72V83.93a13.93,13.93,0,0,1,.08-1.83c0-.32,0-.62.06-.91s0-.29,0-.46a1,1,0,0,1,0-.25h0a16.65,16.65,0,0,0,.13-2,1.71,1.71,0,0,1,0-.32v-.74a2.29,2.29,0,0,0,0-.37V74.79C87.87,73.91,87.85,73.06,87.82,72.22Z" transform="translate(-18.89 -5.94)"/><path class="cls-1" d="M98.42,73.63v-.41A8.72,8.72,0,0,0,98.36,72a6.47,6.47,0,0,0-.59-2.07,2.2,2.2,0,0,0-.91-1,6.49,6.49,0,0,0-2.18-.79,3.64,3.64,0,0,0-.66,0,3.7,3.7,0,0,0-1.19.23l-.32.09-.44.11a1.81,1.81,0,0,0-1.35,1.13c-.18.43-.32.8-.44,1.16s-.13.51-.2.77-.09.38-.14.57a4.51,4.51,0,0,0-.17.89c-.06.52-.1,1.06-.14,1.59v.16c0,.57-.08,1.17-.09,1.75v3a8.28,8.28,0,0,0,.07,1.31h0l.14,1.52v.33a3.36,3.36,0,0,0,.2.94l.12.32a.7.7,0,0,0,.09.24,2.68,2.68,0,0,0,1.61,1.69,4.8,4.8,0,0,0,1.49.42h.33a3,3,0,0,0,.6,0h0a6.41,6.41,0,0,0,1.07-.15h.13a2.67,2.67,0,0,0,1.92-1.55,6.89,6.89,0,0,0,.75-2.46l.06-.39a4.54,4.54,0,0,0,.1-.74c0-.49,0-1,.08-1.5s0-.94.07-1.42v-2c0-.61,0-1.22.06-1.82A1.9,1.9,0,0,0,98.42,73.63ZM96.34,77v.33c0,.36-.06.72-.09,1.08a6.63,6.63,0,0,1-.08,1A14.14,14.14,0,0,1,96,81.1a7.64,7.64,0,0,1-.37,1.64,1.52,1.52,0,0,1-.32.6,1.69,1.69,0,0,1-.94.47h-.24A3.63,3.63,0,0,1,92.19,83a1.54,1.54,0,0,1-.43-.74c0-.31-.09-.66-.12-1a4.24,4.24,0,0,1,0-.87V78.17l.12-1.89v-.61c.07-.49.14-1,.18-1.47s.14-.88.18-1.35A8.52,8.52,0,0,1,92.46,71a1.21,1.21,0,0,1,1-.89h.13a2.77,2.77,0,0,1,1.06.27h.12A2.54,2.54,0,0,1,96,71.55a.89.89,0,0,1,.08.17A4.8,4.8,0,0,1,96.32,73a3.75,3.75,0,0,0,0,.67v.41c0,.71,0,1.42-.07,2.12A4.91,4.91,0,0,0,96.34,77Z" transform="translate(-18.89 -5.94)"/><path class="cls-1" d="M40.1,36.55a4.25,4.25,0,0,0,.87.21,4.17,4.17,0,0,0,.5,0,1.74,1.74,0,0,0,.45-.06,3.85,3.85,0,0,0,.47-.08q.31-.07.63-.18l.82-.28,1.1-.31A4.92,4.92,0,0,1,46,35.71a3.38,3.38,0,0,1,1,.07,3.79,3.79,0,0,1,.65.21,2.62,2.62,0,0,1,.46.19,1.07,1.07,0,0,1,.23.45c0,.27.06.53.08.8,0,.12,0,.16-.09.08a4.63,4.63,0,0,0-.58-.31l-.33-.1L47.08,37h-.51a2,2,0,0,0-.49,0q-.31.06-.63.15c-.22.06-.45.11-.68.19l-1,.34c-.34.12-.78.32-1.15.45a4.33,4.33,0,0,1-.79.19,3.63,3.63,0,0,1-1.23,0l-.34-.13a1.86,1.86,0,0,1-.65-.38.36.36,0,0,1-.12-.27V36.2A2.84,2.84,0,0,0,40.1,36.55Z" transform="translate(-18.89 -5.94)"/><path class="cls-1" d="M92.52,36.2v1.37a.29.29,0,0,1-.13.27,1.73,1.73,0,0,1-.64.38l-.35.07a3.63,3.63,0,0,1-1.23,0,4.33,4.33,0,0,1-.79-.19c-.38-.13-.76-.31-1.15-.45s-.66-.25-1-.34l-.68-.19L85.92,37a2,2,0,0,0-.49,0h-.52l-.36.07-.33.1a5.18,5.18,0,0,0-.57.31c-.09.08-.12,0-.1-.08l.09-.8a.88.88,0,0,1,.23-.45,8.49,8.49,0,0,1,1.1-.4,3.38,3.38,0,0,1,1-.07,4.89,4.89,0,0,1,1.08.19l1.1.31.81.28c.22.07.42.13.64.18a3.55,3.55,0,0,0,.47.08,1.74,1.74,0,0,0,.45.06H91a4.32,4.32,0,0,0,.86-.21A3.28,3.28,0,0,0,92.52,36.2Z" transform="translate(-18.89 -5.94)"/></svg>