<?xml version="1.0" encoding="UTF-8" standalone="no"?>
<!DOCTYPE svg PUBLIC "-//W3C//DTD SVG 1.1//EN" "http://www.w3.org/Graphics/SVG/1.1/DTD/svg11.dtd">
<svg width="100%" height="100%" viewBox="0 0 417 139" version="1.1" xmlns="http://www.w3.org/2000/svg" xmlns:xlink="http://www.w3.org/1999/xlink" xml:space="preserve" xmlns:serif="http://www.serif.com/" style="fill-rule:evenodd;clip-rule:evenodd;stroke-linejoin:round;stroke-miterlimit:2;">
    <g transform="matrix(0.713684,-0.018583,0.0137119,0.640289,-115.887,-69.1694)">
        <path d="M744.082,129.624L179.113,121.165L156.068,328.445L726.7,314.124L744.082,129.624Z" style="fill:rgb(203,226,244);"/>
    </g>
    <g transform="matrix(2.3967,-0.0624055,0.0565951,2.64276,43.7558,116.53)">
        <g transform="matrix(24.954,0,0,24.954,0,0)">
            <path d="M0.222,-0.366C0.225,-0.369 0.228,-0.372 0.23,-0.375C0.238,-0.384 0.246,-0.393 0.254,-0.402C0.256,-0.405 0.258,-0.409 0.259,-0.412C0.262,-0.425 0.265,-0.438 0.267,-0.45C0.268,-0.454 0.269,-0.459 0.269,-0.463C0.269,-0.476 0.269,-0.49 0.27,-0.504C0.271,-0.527 0.267,-0.55 0.26,-0.572C0.256,-0.585 0.248,-0.598 0.239,-0.609C0.227,-0.623 0.211,-0.633 0.192,-0.637C0.171,-0.642 0.149,-0.647 0.127,-0.643C0.123,-0.643 0.119,-0.642 0.115,-0.642C0.096,-0.64 0.077,-0.638 0.059,-0.635C0.056,-0.635 0.052,-0.634 0.05,-0.632C0.047,-0.629 0.044,-0.626 0.041,-0.624C0.042,-0.609 0.043,-0.593 0.042,-0.578C0.041,-0.553 0.039,-0.528 0.037,-0.503C0.036,-0.483 0.035,-0.462 0.033,-0.442C0.031,-0.417 0.029,-0.393 0.027,-0.368C0.026,-0.339 0.024,-0.31 0.023,-0.281C0.023,-0.225 0.021,-0.169 0.024,-0.113C0.026,-0.083 0.027,-0.052 0.029,-0.022C0.029,-0.018 0.029,-0.013 0.03,-0.008C0.032,-0.008 0.034,-0.007 0.036,-0.008C0.04,-0.008 0.044,-0.009 0.048,-0.009C0.059,-0.011 0.069,-0.012 0.079,-0.013C0.089,-0.014 0.091,-0.016 0.091,-0.026C0.092,-0.037 0.092,-0.047 0.091,-0.058C0.089,-0.081 0.091,-0.104 0.093,-0.127L0.093,-0.252C0.092,-0.265 0.091,-0.278 0.091,-0.292C0.09,-0.298 0.091,-0.305 0.091,-0.311C0.115,-0.317 0.139,-0.319 0.163,-0.318C0.184,-0.318 0.195,-0.305 0.203,-0.289C0.21,-0.276 0.214,-0.26 0.216,-0.245C0.221,-0.212 0.224,-0.18 0.226,-0.147C0.228,-0.12 0.228,-0.094 0.227,-0.067C0.227,-0.048 0.228,-0.028 0.223,-0.008C0.223,-0.004 0.224,-0 0.224,0.004C0.227,0.004 0.229,0.005 0.231,0.004C0.252,0.003 0.272,0.002 0.293,-0C0.299,-0 0.301,-0.003 0.301,-0.008C0.303,-0.03 0.305,-0.052 0.306,-0.073C0.307,-0.085 0.307,-0.096 0.307,-0.108C0.308,-0.116 0.309,-0.124 0.309,-0.133C0.31,-0.146 0.311,-0.159 0.311,-0.171C0.312,-0.208 0.31,-0.244 0.297,-0.278C0.291,-0.294 0.287,-0.309 0.275,-0.322C0.269,-0.329 0.262,-0.335 0.255,-0.342C0.246,-0.352 0.236,-0.361 0.222,-0.366ZM0.093,-0.386C0.091,-0.422 0.091,-0.455 0.092,-0.489C0.094,-0.523 0.094,-0.557 0.095,-0.591C0.1,-0.591 0.104,-0.592 0.108,-0.591C0.122,-0.589 0.136,-0.591 0.15,-0.586C0.164,-0.581 0.174,-0.572 0.181,-0.56C0.187,-0.548 0.19,-0.536 0.192,-0.524C0.195,-0.505 0.199,-0.487 0.199,-0.469C0.199,-0.446 0.193,-0.427 0.181,-0.408C0.179,-0.405 0.175,-0.402 0.171,-0.401C0.158,-0.397 0.145,-0.393 0.132,-0.39C0.119,-0.388 0.106,-0.388 0.093,-0.386Z" style="fill:rgb(228,1,83);fill-rule:nonzero;"/>
        </g>
        <g transform="matrix(24.954,0,0,24.954,8.18491,0)">
            <path d="M0.234,-0.333C0.244,-0.226 0.257,-0.122 0.277,-0.018L0.305,-0.018C0.315,-0.018 0.326,-0.019 0.336,-0.019C0.343,-0.02 0.344,-0.022 0.344,-0.029C0.343,-0.043 0.341,-0.058 0.34,-0.072C0.339,-0.081 0.338,-0.091 0.337,-0.1C0.333,-0.123 0.33,-0.145 0.327,-0.167C0.323,-0.194 0.32,-0.222 0.317,-0.249C0.315,-0.268 0.312,-0.287 0.31,-0.307C0.308,-0.324 0.305,-0.342 0.303,-0.359C0.301,-0.377 0.297,-0.395 0.296,-0.412C0.296,-0.432 0.291,-0.45 0.289,-0.468C0.286,-0.488 0.281,-0.507 0.277,-0.526C0.271,-0.554 0.264,-0.583 0.258,-0.611C0.257,-0.616 0.255,-0.618 0.25,-0.619C0.24,-0.619 0.229,-0.62 0.219,-0.622C0.207,-0.624 0.195,-0.627 0.183,-0.629C0.167,-0.632 0.151,-0.635 0.134,-0.635C0.123,-0.634 0.113,-0.635 0.101,-0.635C0.1,-0.632 0.097,-0.628 0.096,-0.624C0.093,-0.613 0.09,-0.602 0.086,-0.59C0.08,-0.57 0.077,-0.549 0.075,-0.528C0.073,-0.514 0.072,-0.5 0.07,-0.485C0.067,-0.464 0.063,-0.443 0.06,-0.422C0.059,-0.414 0.057,-0.407 0.056,-0.4C0.053,-0.374 0.049,-0.348 0.046,-0.322C0.042,-0.29 0.038,-0.257 0.035,-0.224C0.032,-0.198 0.029,-0.171 0.026,-0.144C0.025,-0.138 0.025,-0.131 0.024,-0.125C0.022,-0.106 0.021,-0.087 0.019,-0.068C0.018,-0.052 0.017,-0.036 0.016,-0.02C0.02,-0.019 0.024,-0.018 0.027,-0.019C0.043,-0.02 0.059,-0.022 0.076,-0.024C0.083,-0.025 0.084,-0.026 0.084,-0.034C0.085,-0.056 0.085,-0.078 0.087,-0.1C0.088,-0.115 0.09,-0.13 0.091,-0.145C0.093,-0.159 0.097,-0.174 0.096,-0.189C0.096,-0.206 0.098,-0.223 0.099,-0.239C0.1,-0.253 0.101,-0.267 0.103,-0.28C0.104,-0.294 0.105,-0.309 0.107,-0.324C0.149,-0.329 0.191,-0.327 0.234,-0.333ZM0.135,-0.549C0.156,-0.553 0.176,-0.556 0.196,-0.556C0.207,-0.536 0.226,-0.432 0.226,-0.392C0.217,-0.391 0.207,-0.389 0.198,-0.388C0.186,-0.387 0.173,-0.388 0.161,-0.386C0.148,-0.384 0.134,-0.381 0.121,-0.379C0.119,-0.378 0.117,-0.379 0.114,-0.379C0.113,-0.38 0.113,-0.382 0.113,-0.383C0.115,-0.398 0.117,-0.413 0.119,-0.428C0.12,-0.435 0.121,-0.441 0.122,-0.447C0.124,-0.461 0.126,-0.475 0.127,-0.488C0.129,-0.505 0.131,-0.522 0.132,-0.539C0.133,-0.542 0.134,-0.546 0.135,-0.549Z" style="fill:rgb(228,1,83);fill-rule:nonzero;"/>
        </g>
        <g transform="matrix(24.954,0,0,24.954,17.1434,0)">
            <path d="M0.264,-0.529C0.264,-0.549 0.264,-0.57 0.258,-0.589C0.255,-0.6 0.251,-0.61 0.242,-0.617C0.224,-0.63 0.204,-0.638 0.183,-0.644C0.162,-0.649 0.14,-0.648 0.118,-0.649C0.11,-0.649 0.101,-0.648 0.094,-0.643C0.091,-0.641 0.087,-0.637 0.084,-0.635C0.071,-0.626 0.061,-0.615 0.054,-0.602C0.042,-0.58 0.034,-0.557 0.032,-0.533C0.03,-0.504 0.035,-0.476 0.047,-0.45C0.055,-0.431 0.063,-0.412 0.074,-0.394C0.088,-0.371 0.104,-0.348 0.119,-0.326C0.13,-0.31 0.142,-0.295 0.153,-0.279C0.155,-0.276 0.157,-0.274 0.159,-0.27C0.167,-0.257 0.175,-0.244 0.183,-0.232C0.194,-0.214 0.203,-0.196 0.208,-0.176C0.212,-0.161 0.215,-0.146 0.208,-0.131C0.203,-0.12 0.197,-0.111 0.191,-0.101C0.189,-0.098 0.186,-0.094 0.183,-0.093C0.172,-0.09 0.161,-0.087 0.15,-0.086C0.136,-0.085 0.123,-0.09 0.111,-0.096C0.101,-0.1 0.096,-0.107 0.094,-0.117C0.092,-0.125 0.091,-0.132 0.09,-0.14C0.09,-0.151 0.089,-0.162 0.09,-0.173C0.09,-0.178 0.087,-0.184 0.09,-0.19C0.092,-0.194 0.089,-0.197 0.084,-0.198C0.079,-0.198 0.074,-0.198 0.069,-0.197L0.039,-0.197C0.034,-0.197 0.03,-0.198 0.025,-0.198C0.018,-0.198 0.016,-0.197 0.016,-0.19C0.016,-0.177 0.017,-0.165 0.018,-0.152C0.019,-0.136 0.02,-0.119 0.026,-0.103C0.028,-0.099 0.029,-0.095 0.032,-0.091C0.036,-0.084 0.041,-0.077 0.046,-0.071C0.054,-0.062 0.061,-0.053 0.07,-0.046C0.092,-0.027 0.12,-0.021 0.148,-0.02C0.166,-0.019 0.184,-0.021 0.201,-0.031C0.218,-0.04 0.234,-0.05 0.246,-0.066C0.257,-0.08 0.266,-0.096 0.272,-0.113C0.285,-0.15 0.288,-0.186 0.279,-0.224C0.27,-0.259 0.253,-0.289 0.23,-0.315C0.219,-0.327 0.209,-0.339 0.2,-0.353C0.197,-0.359 0.192,-0.365 0.187,-0.37C0.18,-0.377 0.172,-0.384 0.166,-0.392C0.149,-0.415 0.134,-0.44 0.121,-0.466C0.112,-0.484 0.107,-0.503 0.108,-0.523C0.109,-0.535 0.109,-0.547 0.114,-0.558C0.117,-0.566 0.122,-0.573 0.131,-0.575C0.15,-0.58 0.17,-0.579 0.189,-0.572C0.196,-0.57 0.2,-0.565 0.202,-0.558C0.211,-0.536 0.21,-0.514 0.207,-0.492C0.206,-0.482 0.211,-0.477 0.22,-0.478C0.229,-0.479 0.237,-0.479 0.246,-0.48C0.257,-0.48 0.261,-0.483 0.262,-0.493C0.264,-0.505 0.264,-0.517 0.264,-0.529Z" style="fill:rgb(228,1,83);fill-rule:nonzero;"/>
        </g>
        <g transform="matrix(24.954,0,0,24.954,24.7045,0)">
            <path d="M0.077,-0.325C0.076,-0.327 0.076,-0.329 0.076,-0.33C0.076,-0.352 0.075,-0.374 0.075,-0.396C0.074,-0.408 0.074,-0.42 0.074,-0.432C0.073,-0.449 0.073,-0.467 0.073,-0.484C0.072,-0.5 0.073,-0.517 0.074,-0.533C0.075,-0.551 0.076,-0.568 0.081,-0.585C0.082,-0.586 0.083,-0.586 0.084,-0.586C0.093,-0.589 0.102,-0.589 0.112,-0.589C0.128,-0.589 0.145,-0.592 0.162,-0.592C0.181,-0.592 0.2,-0.593 0.218,-0.594C0.224,-0.595 0.229,-0.594 0.236,-0.594C0.236,-0.598 0.237,-0.602 0.237,-0.605C0.236,-0.615 0.236,-0.625 0.236,-0.634C0.236,-0.644 0.235,-0.645 0.225,-0.646C0.205,-0.646 0.185,-0.647 0.165,-0.646C0.142,-0.646 0.119,-0.646 0.096,-0.645C0.076,-0.644 0.055,-0.643 0.035,-0.642C0.03,-0.642 0.028,-0.639 0.028,-0.634L0.028,-0.61C0.027,-0.581 0.029,-0.552 0.027,-0.523C0.025,-0.491 0.023,-0.459 0.024,-0.427C0.025,-0.403 0.024,-0.38 0.024,-0.356C0.024,-0.344 0.023,-0.332 0.023,-0.32C0.023,-0.303 0.024,-0.287 0.024,-0.271C0.024,-0.237 0.024,-0.202 0.025,-0.168C0.025,-0.158 0.024,-0.148 0.024,-0.138C0.025,-0.121 0.026,-0.104 0.026,-0.086L0.026,-0.007C0.048,-0.002 0.066,-0.013 0.085,-0.017C0.084,-0.029 0.083,-0.039 0.083,-0.05C0.082,-0.071 0.082,-0.092 0.082,-0.113C0.081,-0.143 0.081,-0.172 0.08,-0.202C0.08,-0.212 0.079,-0.222 0.079,-0.233C0.078,-0.244 0.079,-0.256 0.079,-0.268C0.083,-0.268 0.087,-0.269 0.09,-0.27C0.103,-0.27 0.116,-0.271 0.128,-0.272L0.165,-0.272C0.179,-0.273 0.192,-0.274 0.206,-0.274C0.214,-0.274 0.217,-0.276 0.216,-0.285C0.215,-0.298 0.214,-0.312 0.212,-0.325C0.212,-0.325 0.211,-0.326 0.21,-0.327C0.167,-0.331 0.122,-0.326 0.077,-0.325Z" style="fill:rgb(228,1,83);fill-rule:nonzero;"/>
        </g>
        <g transform="matrix(24.954,0,0,24.954,30.6186,0)">
            <path d="M0.34,-0.351L0.34,-0.46C0.339,-0.48 0.337,-0.5 0.336,-0.52C0.335,-0.542 0.33,-0.563 0.323,-0.584C0.322,-0.588 0.32,-0.591 0.318,-0.594C0.314,-0.601 0.309,-0.608 0.305,-0.614C0.298,-0.624 0.289,-0.631 0.279,-0.636C0.258,-0.648 0.235,-0.653 0.211,-0.659C0.197,-0.663 0.184,-0.66 0.17,-0.659C0.168,-0.659 0.166,-0.659 0.165,-0.658C0.161,-0.654 0.156,-0.654 0.151,-0.654C0.137,-0.652 0.121,-0.652 0.107,-0.647C0.099,-0.645 0.091,-0.642 0.086,-0.635C0.079,-0.622 0.071,-0.611 0.067,-0.598C0.057,-0.572 0.049,-0.546 0.046,-0.519C0.043,-0.501 0.041,-0.483 0.039,-0.464C0.038,-0.446 0.036,-0.428 0.034,-0.41C0.033,-0.397 0.032,-0.384 0.031,-0.371C0.029,-0.341 0.026,-0.311 0.024,-0.281C0.023,-0.25 0.023,-0.219 0.022,-0.188C0.022,-0.166 0.021,-0.143 0.02,-0.121C0.02,-0.095 0.022,-0.071 0.029,-0.047C0.032,-0.037 0.035,-0.029 0.044,-0.022C0.058,-0.012 0.073,-0.006 0.089,-0.004C0.107,-0.001 0.125,-0.001 0.144,0.001C0.149,0.001 0.154,0.002 0.159,0.002C0.175,0.001 0.19,-0.001 0.206,-0.002C0.22,-0.002 0.234,-0.004 0.247,-0.008C0.257,-0.011 0.267,-0.015 0.275,-0.021C0.289,-0.032 0.299,-0.047 0.306,-0.064C0.316,-0.089 0.321,-0.116 0.327,-0.143C0.333,-0.17 0.333,-0.199 0.335,-0.227C0.336,-0.243 0.334,-0.259 0.336,-0.275C0.337,-0.279 0.337,-0.283 0.338,-0.287C0.338,-0.308 0.339,-0.329 0.34,-0.351ZM0.188,-0.608C0.192,-0.607 0.197,-0.604 0.201,-0.603C0.211,-0.599 0.217,-0.597 0.227,-0.593C0.241,-0.587 0.25,-0.575 0.259,-0.563C0.269,-0.551 0.275,-0.536 0.278,-0.52C0.281,-0.501 0.284,-0.482 0.286,-0.463C0.288,-0.448 0.289,-0.433 0.29,-0.418C0.291,-0.4 0.291,-0.382 0.291,-0.364C0.291,-0.339 0.291,-0.313 0.289,-0.287C0.289,-0.275 0.286,-0.263 0.285,-0.25C0.284,-0.24 0.283,-0.23 0.282,-0.22C0.279,-0.186 0.277,-0.152 0.267,-0.119C0.264,-0.11 0.26,-0.102 0.253,-0.096C0.236,-0.079 0.216,-0.068 0.194,-0.063C0.179,-0.06 0.164,-0.059 0.149,-0.063L0.145,-0.063C0.129,-0.063 0.117,-0.071 0.103,-0.076C0.09,-0.081 0.084,-0.091 0.082,-0.104C0.081,-0.119 0.08,-0.135 0.08,-0.151L0.08,-0.216C0.08,-0.223 0.081,-0.229 0.082,-0.236C0.082,-0.248 0.082,-0.26 0.083,-0.272C0.084,-0.293 0.085,-0.314 0.086,-0.336C0.087,-0.349 0.089,-0.363 0.09,-0.377C0.092,-0.4 0.094,-0.423 0.097,-0.446C0.101,-0.476 0.105,-0.505 0.11,-0.534C0.114,-0.554 0.121,-0.574 0.131,-0.592C0.134,-0.596 0.137,-0.599 0.143,-0.6C0.151,-0.601 0.158,-0.605 0.166,-0.607C0.172,-0.608 0.179,-0.608 0.188,-0.608Z" style="fill:rgb(228,1,83);fill-rule:nonzero;"/>
        </g>
        <g transform="matrix(24.954,0,0,24.954,39.602,0)">
            <path d="M0.222,-0.366C0.225,-0.369 0.228,-0.372 0.23,-0.375C0.238,-0.384 0.246,-0.393 0.254,-0.402C0.256,-0.405 0.258,-0.409 0.259,-0.412C0.262,-0.425 0.265,-0.438 0.267,-0.45C0.268,-0.454 0.269,-0.459 0.269,-0.463C0.269,-0.476 0.269,-0.49 0.27,-0.504C0.271,-0.527 0.267,-0.55 0.26,-0.572C0.256,-0.585 0.248,-0.598 0.239,-0.609C0.227,-0.623 0.211,-0.633 0.192,-0.637C0.171,-0.642 0.149,-0.647 0.127,-0.643C0.123,-0.643 0.119,-0.642 0.115,-0.642C0.096,-0.64 0.077,-0.638 0.059,-0.635C0.056,-0.635 0.052,-0.634 0.05,-0.632C0.047,-0.629 0.044,-0.626 0.041,-0.624C0.042,-0.609 0.043,-0.593 0.042,-0.578C0.041,-0.553 0.039,-0.528 0.037,-0.503C0.036,-0.483 0.035,-0.462 0.033,-0.442C0.031,-0.417 0.029,-0.393 0.027,-0.368C0.026,-0.339 0.024,-0.31 0.023,-0.281C0.023,-0.225 0.021,-0.169 0.024,-0.113C0.026,-0.083 0.027,-0.052 0.029,-0.022C0.029,-0.018 0.029,-0.013 0.03,-0.008C0.032,-0.008 0.034,-0.007 0.036,-0.008C0.04,-0.008 0.044,-0.009 0.048,-0.009C0.059,-0.011 0.069,-0.012 0.079,-0.013C0.089,-0.014 0.091,-0.016 0.091,-0.026C0.092,-0.037 0.092,-0.047 0.091,-0.058C0.089,-0.081 0.091,-0.104 0.093,-0.127L0.093,-0.252C0.092,-0.265 0.091,-0.278 0.091,-0.292C0.09,-0.298 0.091,-0.305 0.091,-0.311C0.115,-0.317 0.139,-0.319 0.163,-0.318C0.184,-0.318 0.195,-0.305 0.203,-0.289C0.21,-0.276 0.214,-0.26 0.216,-0.245C0.221,-0.212 0.224,-0.18 0.226,-0.147C0.228,-0.12 0.228,-0.094 0.227,-0.067C0.227,-0.048 0.228,-0.028 0.223,-0.008C0.223,-0.004 0.224,-0 0.224,0.004C0.227,0.004 0.229,0.005 0.231,0.004C0.252,0.003 0.272,0.002 0.293,-0C0.299,-0 0.301,-0.003 0.301,-0.008C0.303,-0.03 0.305,-0.052 0.306,-0.073C0.307,-0.085 0.307,-0.096 0.307,-0.108C0.308,-0.116 0.309,-0.124 0.309,-0.133C0.31,-0.146 0.311,-0.159 0.311,-0.171C0.312,-0.208 0.31,-0.244 0.297,-0.278C0.291,-0.294 0.287,-0.309 0.275,-0.322C0.269,-0.329 0.262,-0.335 0.255,-0.342C0.246,-0.352 0.236,-0.361 0.222,-0.366ZM0.093,-0.386C0.091,-0.422 0.091,-0.455 0.092,-0.489C0.094,-0.523 0.094,-0.557 0.095,-0.591C0.1,-0.591 0.104,-0.592 0.108,-0.591C0.122,-0.589 0.136,-0.591 0.15,-0.586C0.164,-0.581 0.174,-0.572 0.181,-0.56C0.187,-0.548 0.19,-0.536 0.192,-0.524C0.195,-0.505 0.199,-0.487 0.199,-0.469C0.199,-0.446 0.193,-0.427 0.181,-0.408C0.179,-0.405 0.175,-0.402 0.171,-0.401C0.158,-0.397 0.145,-0.393 0.132,-0.39C0.119,-0.388 0.106,-0.388 0.093,-0.386Z" style="fill:rgb(228,1,83);fill-rule:nonzero;"/>
        </g>
        <g transform="matrix(24.954,0,0,24.954,47.7869,0)">
            <path d="M0.395,-0.019C0.399,-0.018 0.403,-0.017 0.406,-0.017C0.423,-0.017 0.439,-0.018 0.455,-0.018C0.459,-0.018 0.462,-0.019 0.462,-0.024L0.462,-0.049C0.461,-0.07 0.46,-0.091 0.459,-0.113C0.458,-0.142 0.456,-0.171 0.456,-0.2C0.455,-0.218 0.456,-0.236 0.456,-0.254C0.456,-0.289 0.455,-0.325 0.454,-0.36C0.453,-0.391 0.454,-0.423 0.45,-0.455C0.447,-0.475 0.446,-0.495 0.443,-0.515C0.439,-0.544 0.433,-0.572 0.428,-0.6C0.427,-0.607 0.425,-0.614 0.424,-0.621C0.422,-0.63 0.422,-0.631 0.412,-0.63C0.391,-0.628 0.371,-0.623 0.35,-0.624C0.346,-0.624 0.342,-0.623 0.338,-0.621C0.336,-0.621 0.334,-0.618 0.333,-0.616C0.321,-0.59 0.311,-0.563 0.299,-0.537C0.295,-0.526 0.291,-0.516 0.286,-0.506C0.28,-0.492 0.275,-0.477 0.268,-0.462C0.257,-0.439 0.246,-0.416 0.235,-0.393C0.232,-0.385 0.228,-0.376 0.224,-0.367C0.222,-0.37 0.22,-0.371 0.22,-0.373C0.214,-0.391 0.208,-0.409 0.202,-0.427C0.196,-0.447 0.19,-0.467 0.184,-0.487L0.184,-0.489C0.177,-0.506 0.169,-0.523 0.162,-0.539C0.155,-0.559 0.145,-0.578 0.133,-0.596C0.127,-0.605 0.12,-0.614 0.117,-0.625C0.116,-0.63 0.113,-0.633 0.108,-0.633C0.099,-0.634 0.089,-0.636 0.079,-0.636L0.033,-0.636C0.033,-0.632 0.032,-0.628 0.032,-0.623C0.031,-0.618 0.031,-0.612 0.031,-0.607C0.03,-0.599 0.029,-0.591 0.028,-0.584C0.027,-0.553 0.027,-0.521 0.026,-0.49C0.026,-0.457 0.025,-0.423 0.024,-0.39C0.024,-0.355 0.025,-0.321 0.025,-0.286C0.025,-0.258 0.024,-0.229 0.024,-0.201C0.024,-0.169 0.025,-0.138 0.026,-0.107L0.026,-0.059C0.026,-0.048 0.027,-0.037 0.028,-0.025C0.028,-0.021 0.03,-0.019 0.034,-0.02C0.047,-0.02 0.059,-0.021 0.072,-0.022C0.074,-0.022 0.077,-0.024 0.077,-0.026C0.08,-0.035 0.084,-0.044 0.085,-0.053C0.087,-0.068 0.087,-0.082 0.088,-0.097L0.088,-0.115C0.089,-0.134 0.09,-0.153 0.09,-0.172L0.09,-0.206C0.091,-0.219 0.093,-0.231 0.093,-0.243C0.094,-0.254 0.093,-0.265 0.093,-0.276C0.093,-0.285 0.092,-0.294 0.092,-0.303C0.093,-0.317 0.093,-0.332 0.093,-0.346C0.093,-0.358 0.093,-0.37 0.092,-0.381L0.092,-0.469C0.091,-0.475 0.091,-0.48 0.091,-0.486L0.091,-0.523C0.091,-0.527 0.092,-0.53 0.092,-0.533C0.096,-0.53 0.098,-0.527 0.1,-0.524C0.107,-0.508 0.113,-0.493 0.119,-0.477C0.126,-0.46 0.133,-0.442 0.139,-0.425C0.15,-0.393 0.16,-0.362 0.17,-0.33C0.176,-0.312 0.181,-0.293 0.186,-0.274C0.188,-0.267 0.189,-0.267 0.196,-0.267C0.208,-0.267 0.22,-0.271 0.232,-0.268C0.237,-0.267 0.239,-0.269 0.241,-0.273C0.244,-0.28 0.247,-0.287 0.25,-0.294C0.262,-0.321 0.275,-0.349 0.287,-0.376C0.293,-0.391 0.298,-0.407 0.304,-0.422C0.31,-0.435 0.316,-0.448 0.322,-0.462C0.324,-0.468 0.327,-0.474 0.33,-0.48C0.339,-0.5 0.349,-0.52 0.36,-0.539C0.36,-0.541 0.362,-0.542 0.364,-0.545C0.365,-0.539 0.366,-0.534 0.366,-0.53C0.367,-0.52 0.367,-0.511 0.368,-0.502C0.371,-0.474 0.373,-0.446 0.376,-0.419C0.378,-0.391 0.379,-0.363 0.378,-0.335C0.377,-0.325 0.377,-0.314 0.378,-0.304C0.379,-0.284 0.381,-0.265 0.382,-0.245C0.383,-0.223 0.383,-0.201 0.384,-0.179C0.385,-0.161 0.386,-0.142 0.388,-0.124C0.389,-0.099 0.39,-0.073 0.392,-0.048C0.392,-0.039 0.394,-0.029 0.395,-0.019Z" style="fill:rgb(228,1,83);fill-rule:nonzero;"/>
        </g>
        <g transform="matrix(24.954,0,0,24.954,59.8646,0)">
            <path d="M0.234,-0.333C0.244,-0.226 0.257,-0.122 0.277,-0.018L0.305,-0.018C0.315,-0.018 0.326,-0.019 0.336,-0.019C0.343,-0.02 0.344,-0.022 0.344,-0.029C0.343,-0.043 0.341,-0.058 0.34,-0.072C0.339,-0.081 0.338,-0.091 0.337,-0.1C0.333,-0.123 0.33,-0.145 0.327,-0.167C0.323,-0.194 0.32,-0.222 0.317,-0.249C0.315,-0.268 0.312,-0.287 0.31,-0.307C0.308,-0.324 0.305,-0.342 0.303,-0.359C0.301,-0.377 0.297,-0.395 0.296,-0.412C0.296,-0.432 0.291,-0.45 0.289,-0.468C0.286,-0.488 0.281,-0.507 0.277,-0.526C0.271,-0.554 0.264,-0.583 0.258,-0.611C0.257,-0.616 0.255,-0.618 0.25,-0.619C0.24,-0.619 0.229,-0.62 0.219,-0.622C0.207,-0.624 0.195,-0.627 0.183,-0.629C0.167,-0.632 0.151,-0.635 0.134,-0.635C0.123,-0.634 0.113,-0.635 0.101,-0.635C0.1,-0.632 0.097,-0.628 0.096,-0.624C0.093,-0.613 0.09,-0.602 0.086,-0.59C0.08,-0.57 0.077,-0.549 0.075,-0.528C0.073,-0.514 0.072,-0.5 0.07,-0.485C0.067,-0.464 0.063,-0.443 0.06,-0.422C0.059,-0.414 0.057,-0.407 0.056,-0.4C0.053,-0.374 0.049,-0.348 0.046,-0.322C0.042,-0.29 0.038,-0.257 0.035,-0.224C0.032,-0.198 0.029,-0.171 0.026,-0.144C0.025,-0.138 0.025,-0.131 0.024,-0.125C0.022,-0.106 0.021,-0.087 0.019,-0.068C0.018,-0.052 0.017,-0.036 0.016,-0.02C0.02,-0.019 0.024,-0.018 0.027,-0.019C0.043,-0.02 0.059,-0.022 0.076,-0.024C0.083,-0.025 0.084,-0.026 0.084,-0.034C0.085,-0.056 0.085,-0.078 0.087,-0.1C0.088,-0.115 0.09,-0.13 0.091,-0.145C0.093,-0.159 0.097,-0.174 0.096,-0.189C0.096,-0.206 0.098,-0.223 0.099,-0.239C0.1,-0.253 0.101,-0.267 0.103,-0.28C0.104,-0.294 0.105,-0.309 0.107,-0.324C0.149,-0.329 0.191,-0.327 0.234,-0.333ZM0.135,-0.549C0.156,-0.553 0.176,-0.556 0.196,-0.556C0.207,-0.536 0.226,-0.432 0.226,-0.392C0.217,-0.391 0.207,-0.389 0.198,-0.388C0.186,-0.387 0.173,-0.388 0.161,-0.386C0.148,-0.384 0.134,-0.381 0.121,-0.379C0.119,-0.378 0.117,-0.379 0.114,-0.379C0.113,-0.38 0.113,-0.382 0.113,-0.383C0.115,-0.398 0.117,-0.413 0.119,-0.428C0.12,-0.435 0.121,-0.441 0.122,-0.447C0.124,-0.461 0.126,-0.475 0.127,-0.488C0.129,-0.505 0.131,-0.522 0.132,-0.539C0.133,-0.542 0.134,-0.546 0.135,-0.549Z" style="fill:rgb(228,1,83);fill-rule:nonzero;"/>
        </g>
        <g transform="matrix(24.954,0,0,24.954,68.8231,0)">
            <path d="M0.101,-0.569C0.101,-0.541 0.102,-0.515 0.103,-0.489L0.103,-0.45C0.103,-0.435 0.103,-0.42 0.104,-0.404C0.104,-0.395 0.103,-0.385 0.104,-0.375C0.105,-0.365 0.106,-0.355 0.106,-0.344C0.105,-0.315 0.105,-0.285 0.106,-0.255C0.106,-0.233 0.107,-0.212 0.107,-0.19C0.107,-0.183 0.106,-0.175 0.106,-0.168C0.106,-0.157 0.107,-0.147 0.107,-0.136L0.107,-0.038C0.107,-0.036 0.108,-0.033 0.108,-0.031C0.109,-0.03 0.11,-0.03 0.111,-0.03C0.125,-0.03 0.138,-0.03 0.152,-0.029C0.163,-0.029 0.164,-0.031 0.167,-0.041C0.173,-0.056 0.174,-0.073 0.175,-0.089C0.175,-0.1 0.176,-0.111 0.177,-0.121C0.178,-0.133 0.179,-0.144 0.179,-0.155C0.179,-0.168 0.178,-0.181 0.178,-0.195C0.178,-0.201 0.179,-0.209 0.178,-0.215C0.178,-0.234 0.176,-0.253 0.175,-0.271C0.175,-0.279 0.175,-0.286 0.174,-0.294C0.173,-0.311 0.17,-0.329 0.169,-0.346C0.168,-0.36 0.169,-0.375 0.169,-0.389C0.169,-0.402 0.168,-0.416 0.168,-0.429C0.167,-0.441 0.167,-0.453 0.167,-0.465C0.166,-0.478 0.165,-0.492 0.164,-0.505C0.163,-0.527 0.161,-0.549 0.159,-0.571C0.161,-0.571 0.162,-0.572 0.164,-0.572C0.175,-0.572 0.188,-0.574 0.198,-0.571C0.21,-0.568 0.221,-0.572 0.232,-0.57C0.237,-0.569 0.242,-0.569 0.247,-0.568C0.255,-0.568 0.257,-0.569 0.257,-0.577L0.257,-0.59C0.258,-0.598 0.258,-0.605 0.259,-0.612C0.259,-0.617 0.258,-0.621 0.253,-0.621C0.243,-0.623 0.233,-0.625 0.223,-0.626C0.214,-0.627 0.206,-0.628 0.197,-0.629C0.183,-0.63 0.168,-0.632 0.154,-0.633C0.153,-0.634 0.152,-0.633 0.151,-0.633C0.13,-0.632 0.109,-0.63 0.088,-0.633L0.076,-0.633C0.07,-0.633 0.064,-0.632 0.059,-0.632L0.041,-0.632C0.032,-0.632 0.024,-0.629 0.016,-0.632C0.012,-0.633 0.01,-0.63 0.01,-0.627C0.009,-0.625 0.01,-0.623 0.01,-0.621C0.01,-0.604 0.009,-0.587 0.008,-0.57C0.008,-0.566 0.01,-0.564 0.013,-0.564L0.019,-0.564C0.037,-0.57 0.055,-0.57 0.073,-0.57C0.081,-0.57 0.09,-0.569 0.101,-0.569Z" style="fill:rgb(228,1,83);fill-rule:nonzero;"/>
        </g>
        <g transform="matrix(24.954,0,0,24.954,75.4859,0)">
            <path d="M0.34,-0.351L0.34,-0.46C0.339,-0.48 0.337,-0.5 0.336,-0.52C0.335,-0.542 0.33,-0.563 0.323,-0.584C0.322,-0.588 0.32,-0.591 0.318,-0.594C0.314,-0.601 0.309,-0.608 0.305,-0.614C0.298,-0.624 0.289,-0.631 0.279,-0.636C0.258,-0.648 0.235,-0.653 0.211,-0.659C0.197,-0.663 0.184,-0.66 0.17,-0.659C0.168,-0.659 0.166,-0.659 0.165,-0.658C0.161,-0.654 0.156,-0.654 0.151,-0.654C0.137,-0.652 0.121,-0.652 0.107,-0.647C0.099,-0.645 0.091,-0.642 0.086,-0.635C0.079,-0.622 0.071,-0.611 0.067,-0.598C0.057,-0.572 0.049,-0.546 0.046,-0.519C0.043,-0.501 0.041,-0.483 0.039,-0.464C0.038,-0.446 0.036,-0.428 0.034,-0.41C0.033,-0.397 0.032,-0.384 0.031,-0.371C0.029,-0.341 0.026,-0.311 0.024,-0.281C0.023,-0.25 0.023,-0.219 0.022,-0.188C0.022,-0.166 0.021,-0.143 0.02,-0.121C0.02,-0.095 0.022,-0.071 0.029,-0.047C0.032,-0.037 0.035,-0.029 0.044,-0.022C0.058,-0.012 0.073,-0.006 0.089,-0.004C0.107,-0.001 0.125,-0.001 0.144,0.001C0.149,0.001 0.154,0.002 0.159,0.002C0.175,0.001 0.19,-0.001 0.206,-0.002C0.22,-0.002 0.234,-0.004 0.247,-0.008C0.257,-0.011 0.267,-0.015 0.275,-0.021C0.289,-0.032 0.299,-0.047 0.306,-0.064C0.316,-0.089 0.321,-0.116 0.327,-0.143C0.333,-0.17 0.333,-0.199 0.335,-0.227C0.336,-0.243 0.334,-0.259 0.336,-0.275C0.337,-0.279 0.337,-0.283 0.338,-0.287C0.338,-0.308 0.339,-0.329 0.34,-0.351ZM0.188,-0.608C0.192,-0.607 0.197,-0.604 0.201,-0.603C0.211,-0.599 0.217,-0.597 0.227,-0.593C0.241,-0.587 0.25,-0.575 0.259,-0.563C0.269,-0.551 0.275,-0.536 0.278,-0.52C0.281,-0.501 0.284,-0.482 0.286,-0.463C0.288,-0.448 0.289,-0.433 0.29,-0.418C0.291,-0.4 0.291,-0.382 0.291,-0.364C0.291,-0.339 0.291,-0.313 0.289,-0.287C0.289,-0.275 0.286,-0.263 0.285,-0.25C0.284,-0.24 0.283,-0.23 0.282,-0.22C0.279,-0.186 0.277,-0.152 0.267,-0.119C0.264,-0.11 0.26,-0.102 0.253,-0.096C0.236,-0.079 0.216,-0.068 0.194,-0.063C0.179,-0.06 0.164,-0.059 0.149,-0.063L0.145,-0.063C0.129,-0.063 0.117,-0.071 0.103,-0.076C0.09,-0.081 0.084,-0.091 0.082,-0.104C0.081,-0.119 0.08,-0.135 0.08,-0.151L0.08,-0.216C0.08,-0.223 0.081,-0.229 0.082,-0.236C0.082,-0.248 0.082,-0.26 0.083,-0.272C0.084,-0.293 0.085,-0.314 0.086,-0.336C0.087,-0.349 0.089,-0.363 0.09,-0.377C0.092,-0.4 0.094,-0.423 0.097,-0.446C0.101,-0.476 0.105,-0.505 0.11,-0.534C0.114,-0.554 0.121,-0.574 0.131,-0.592C0.134,-0.596 0.137,-0.599 0.143,-0.6C0.151,-0.601 0.158,-0.605 0.166,-0.607C0.172,-0.608 0.179,-0.608 0.188,-0.608Z" style="fill:rgb(228,1,83);fill-rule:nonzero;"/>
        </g>
        <g transform="matrix(24.954,0,0,24.954,88.5867,0)">
            <path d="M0.024,-0.621C0.025,-0.613 0.025,-0.606 0.026,-0.599C0.026,-0.585 0.025,-0.571 0.026,-0.558C0.026,-0.529 0.025,-0.5 0.025,-0.472C0.026,-0.429 0.025,-0.385 0.025,-0.342C0.025,-0.318 0.025,-0.295 0.026,-0.272C0.026,-0.26 0.027,-0.247 0.027,-0.235C0.027,-0.224 0.026,-0.214 0.026,-0.204L0.026,-0.152C0.026,-0.132 0.025,-0.111 0.025,-0.091L0.025,-0.021C0.025,-0.021 0.026,-0.02 0.027,-0.018L0.035,-0.018C0.051,-0.019 0.066,-0.019 0.081,-0.02C0.086,-0.021 0.089,-0.023 0.089,-0.029C0.089,-0.036 0.091,-0.043 0.091,-0.05L0.091,-0.124C0.091,-0.143 0.092,-0.162 0.092,-0.181C0.092,-0.199 0.095,-0.218 0.09,-0.236C0.089,-0.239 0.09,-0.242 0.09,-0.246C0.09,-0.248 0.091,-0.25 0.091,-0.253C0.091,-0.259 0.09,-0.266 0.09,-0.273C0.09,-0.284 0.091,-0.296 0.091,-0.308C0.09,-0.327 0.089,-0.346 0.089,-0.365C0.089,-0.393 0.089,-0.421 0.09,-0.45C0.09,-0.466 0.089,-0.481 0.089,-0.497L0.089,-0.544C0.088,-0.564 0.087,-0.584 0.086,-0.604C0.085,-0.611 0.085,-0.618 0.085,-0.626C0.084,-0.632 0.083,-0.633 0.077,-0.632C0.068,-0.631 0.058,-0.63 0.049,-0.63C0.039,-0.63 0.031,-0.627 0.024,-0.621Z" style="fill:rgb(228,1,83);fill-rule:nonzero;"/>
        </g>
        <g transform="matrix(24.954,0,0,24.954,91.4315,0)">
            <path d="M0.273,-0.189L0.27,-0.189C0.27,-0.19 0.269,-0.191 0.269,-0.192C0.266,-0.202 0.263,-0.211 0.259,-0.221C0.251,-0.247 0.242,-0.273 0.233,-0.299C0.229,-0.312 0.225,-0.326 0.222,-0.34C0.217,-0.356 0.214,-0.372 0.21,-0.388C0.208,-0.399 0.205,-0.411 0.203,-0.422C0.2,-0.433 0.198,-0.444 0.196,-0.455C0.194,-0.464 0.191,-0.472 0.188,-0.481C0.183,-0.497 0.178,-0.514 0.17,-0.529C0.168,-0.531 0.167,-0.534 0.167,-0.536C0.161,-0.558 0.151,-0.578 0.142,-0.599C0.136,-0.611 0.131,-0.622 0.129,-0.635C0.128,-0.64 0.126,-0.641 0.122,-0.64C0.114,-0.639 0.106,-0.64 0.099,-0.64C0.083,-0.639 0.067,-0.639 0.051,-0.638C0.04,-0.637 0.033,-0.63 0.033,-0.619C0.031,-0.594 0.03,-0.568 0.029,-0.543C0.028,-0.499 0.028,-0.455 0.025,-0.412C0.024,-0.4 0.024,-0.389 0.024,-0.377C0.024,-0.347 0.023,-0.318 0.023,-0.288C0.023,-0.253 0.024,-0.218 0.024,-0.183C0.025,-0.145 0.025,-0.108 0.026,-0.07C0.026,-0.047 0.029,-0.023 0.031,0.002C0.048,0.002 0.065,-0.001 0.082,-0.002C0.086,-0.003 0.089,-0.005 0.092,-0.006C0.092,-0.013 0.093,-0.019 0.093,-0.024C0.093,-0.028 0.092,-0.032 0.092,-0.035C0.092,-0.039 0.091,-0.044 0.091,-0.048C0.092,-0.068 0.092,-0.089 0.093,-0.109C0.093,-0.11 0.093,-0.112 0.092,-0.114C0.088,-0.141 0.088,-0.168 0.088,-0.195C0.087,-0.218 0.089,-0.241 0.088,-0.264C0.088,-0.279 0.09,-0.293 0.088,-0.308C0.086,-0.32 0.089,-0.333 0.089,-0.346C0.089,-0.359 0.09,-0.371 0.09,-0.384C0.09,-0.401 0.089,-0.418 0.089,-0.435L0.089,-0.446C0.089,-0.456 0.088,-0.467 0.087,-0.478C0.087,-0.498 0.086,-0.519 0.086,-0.539C0.086,-0.541 0.087,-0.542 0.087,-0.544C0.092,-0.538 0.096,-0.532 0.098,-0.525C0.105,-0.51 0.112,-0.495 0.119,-0.479C0.123,-0.469 0.127,-0.46 0.131,-0.45C0.138,-0.431 0.144,-0.412 0.15,-0.393C0.155,-0.377 0.16,-0.361 0.164,-0.345C0.17,-0.322 0.175,-0.299 0.181,-0.276C0.189,-0.245 0.197,-0.215 0.204,-0.184C0.211,-0.161 0.216,-0.137 0.224,-0.114C0.234,-0.084 0.241,-0.052 0.25,-0.021C0.252,-0.015 0.252,-0.015 0.259,-0.016C0.269,-0.017 0.279,-0.019 0.289,-0.02C0.298,-0.021 0.308,-0.021 0.317,-0.022C0.324,-0.023 0.325,-0.024 0.325,-0.031C0.325,-0.048 0.324,-0.065 0.323,-0.082C0.323,-0.09 0.322,-0.098 0.322,-0.106C0.321,-0.116 0.321,-0.126 0.321,-0.136C0.321,-0.145 0.321,-0.155 0.322,-0.165C0.322,-0.176 0.323,-0.187 0.323,-0.197C0.323,-0.213 0.322,-0.229 0.324,-0.244C0.326,-0.273 0.325,-0.301 0.325,-0.33C0.324,-0.342 0.324,-0.355 0.325,-0.367C0.328,-0.395 0.331,-0.421 0.329,-0.449C0.328,-0.471 0.329,-0.494 0.329,-0.516C0.329,-0.532 0.33,-0.547 0.33,-0.562C0.33,-0.588 0.325,-0.614 0.322,-0.639C0.322,-0.644 0.318,-0.647 0.313,-0.645C0.307,-0.644 0.3,-0.642 0.294,-0.641C0.287,-0.639 0.279,-0.639 0.272,-0.639C0.272,-0.636 0.271,-0.634 0.271,-0.632C0.272,-0.612 0.267,-0.592 0.268,-0.572C0.269,-0.561 0.267,-0.55 0.267,-0.539C0.268,-0.513 0.268,-0.487 0.268,-0.461C0.269,-0.452 0.267,-0.442 0.267,-0.432C0.267,-0.419 0.268,-0.405 0.268,-0.391C0.269,-0.37 0.269,-0.35 0.269,-0.329C0.27,-0.31 0.271,-0.292 0.271,-0.273C0.272,-0.252 0.272,-0.232 0.273,-0.211L0.273,-0.189Z" style="fill:rgb(228,1,83);fill-rule:nonzero;"/>
        </g>
        <g transform="matrix(24.954,0,0,24.954,104.358,0)">
            <path d="M0.264,-0.529C0.264,-0.549 0.264,-0.57 0.258,-0.589C0.255,-0.6 0.251,-0.61 0.242,-0.617C0.224,-0.63 0.204,-0.638 0.183,-0.644C0.162,-0.649 0.14,-0.648 0.118,-0.649C0.11,-0.649 0.101,-0.648 0.094,-0.643C0.091,-0.641 0.087,-0.637 0.084,-0.635C0.071,-0.626 0.061,-0.615 0.054,-0.602C0.042,-0.58 0.034,-0.557 0.032,-0.533C0.03,-0.504 0.035,-0.476 0.047,-0.45C0.055,-0.431 0.063,-0.412 0.074,-0.394C0.088,-0.371 0.104,-0.348 0.119,-0.326C0.13,-0.31 0.142,-0.295 0.153,-0.279C0.155,-0.276 0.157,-0.274 0.159,-0.27C0.167,-0.257 0.175,-0.244 0.183,-0.232C0.194,-0.214 0.203,-0.196 0.208,-0.176C0.212,-0.161 0.215,-0.146 0.208,-0.131C0.203,-0.12 0.197,-0.111 0.191,-0.101C0.189,-0.098 0.186,-0.094 0.183,-0.093C0.172,-0.09 0.161,-0.087 0.15,-0.086C0.136,-0.085 0.123,-0.09 0.111,-0.096C0.101,-0.1 0.096,-0.107 0.094,-0.117C0.092,-0.125 0.091,-0.132 0.09,-0.14C0.09,-0.151 0.089,-0.162 0.09,-0.173C0.09,-0.178 0.087,-0.184 0.09,-0.19C0.092,-0.194 0.089,-0.197 0.084,-0.198C0.079,-0.198 0.074,-0.198 0.069,-0.197L0.039,-0.197C0.034,-0.197 0.03,-0.198 0.025,-0.198C0.018,-0.198 0.016,-0.197 0.016,-0.19C0.016,-0.177 0.017,-0.165 0.018,-0.152C0.019,-0.136 0.02,-0.119 0.026,-0.103C0.028,-0.099 0.029,-0.095 0.032,-0.091C0.036,-0.084 0.041,-0.077 0.046,-0.071C0.054,-0.062 0.061,-0.053 0.07,-0.046C0.092,-0.027 0.12,-0.021 0.148,-0.02C0.166,-0.019 0.184,-0.021 0.201,-0.031C0.218,-0.04 0.234,-0.05 0.246,-0.066C0.257,-0.08 0.266,-0.096 0.272,-0.113C0.285,-0.15 0.288,-0.186 0.279,-0.224C0.27,-0.259 0.253,-0.289 0.23,-0.315C0.219,-0.327 0.209,-0.339 0.2,-0.353C0.197,-0.359 0.192,-0.365 0.187,-0.37C0.18,-0.377 0.172,-0.384 0.166,-0.392C0.149,-0.415 0.134,-0.44 0.121,-0.466C0.112,-0.484 0.107,-0.503 0.108,-0.523C0.109,-0.535 0.109,-0.547 0.114,-0.558C0.117,-0.566 0.122,-0.573 0.131,-0.575C0.15,-0.58 0.17,-0.579 0.189,-0.572C0.196,-0.57 0.2,-0.565 0.202,-0.558C0.211,-0.536 0.21,-0.514 0.207,-0.492C0.206,-0.482 0.211,-0.477 0.22,-0.478C0.229,-0.479 0.237,-0.479 0.246,-0.48C0.257,-0.48 0.261,-0.483 0.262,-0.493C0.264,-0.505 0.264,-0.517 0.264,-0.529Z" style="fill:rgb(228,1,83);fill-rule:nonzero;"/>
        </g>
        <g transform="matrix(24.954,0,0,24.954,111.919,0)">
            <path d="M0.234,-0.333C0.244,-0.226 0.257,-0.122 0.277,-0.018L0.305,-0.018C0.315,-0.018 0.326,-0.019 0.336,-0.019C0.343,-0.02 0.344,-0.022 0.344,-0.029C0.343,-0.043 0.341,-0.058 0.34,-0.072C0.339,-0.081 0.338,-0.091 0.337,-0.1C0.333,-0.123 0.33,-0.145 0.327,-0.167C0.323,-0.194 0.32,-0.222 0.317,-0.249C0.315,-0.268 0.312,-0.287 0.31,-0.307C0.308,-0.324 0.305,-0.342 0.303,-0.359C0.301,-0.377 0.297,-0.395 0.296,-0.412C0.296,-0.432 0.291,-0.45 0.289,-0.468C0.286,-0.488 0.281,-0.507 0.277,-0.526C0.271,-0.554 0.264,-0.583 0.258,-0.611C0.257,-0.616 0.255,-0.618 0.25,-0.619C0.24,-0.619 0.229,-0.62 0.219,-0.622C0.207,-0.624 0.195,-0.627 0.183,-0.629C0.167,-0.632 0.151,-0.635 0.134,-0.635C0.123,-0.634 0.113,-0.635 0.101,-0.635C0.1,-0.632 0.097,-0.628 0.096,-0.624C0.093,-0.613 0.09,-0.602 0.086,-0.59C0.08,-0.57 0.077,-0.549 0.075,-0.528C0.073,-0.514 0.072,-0.5 0.07,-0.485C0.067,-0.464 0.063,-0.443 0.06,-0.422C0.059,-0.414 0.057,-0.407 0.056,-0.4C0.053,-0.374 0.049,-0.348 0.046,-0.322C0.042,-0.29 0.038,-0.257 0.035,-0.224C0.032,-0.198 0.029,-0.171 0.026,-0.144C0.025,-0.138 0.025,-0.131 0.024,-0.125C0.022,-0.106 0.021,-0.087 0.019,-0.068C0.018,-0.052 0.017,-0.036 0.016,-0.02C0.02,-0.019 0.024,-0.018 0.027,-0.019C0.043,-0.02 0.059,-0.022 0.076,-0.024C0.083,-0.025 0.084,-0.026 0.084,-0.034C0.085,-0.056 0.085,-0.078 0.087,-0.1C0.088,-0.115 0.09,-0.13 0.091,-0.145C0.093,-0.159 0.097,-0.174 0.096,-0.189C0.096,-0.206 0.098,-0.223 0.099,-0.239C0.1,-0.253 0.101,-0.267 0.103,-0.28C0.104,-0.294 0.105,-0.309 0.107,-0.324C0.149,-0.329 0.191,-0.327 0.234,-0.333ZM0.135,-0.549C0.156,-0.553 0.176,-0.556 0.196,-0.556C0.207,-0.536 0.226,-0.432 0.226,-0.392C0.217,-0.391 0.207,-0.389 0.198,-0.388C0.186,-0.387 0.173,-0.388 0.161,-0.386C0.148,-0.384 0.134,-0.381 0.121,-0.379C0.119,-0.378 0.117,-0.379 0.114,-0.379C0.113,-0.38 0.113,-0.382 0.113,-0.383C0.115,-0.398 0.117,-0.413 0.119,-0.428C0.12,-0.435 0.121,-0.441 0.122,-0.447C0.124,-0.461 0.126,-0.475 0.127,-0.488C0.129,-0.505 0.131,-0.522 0.132,-0.539C0.133,-0.542 0.134,-0.546 0.135,-0.549Z" style="fill:rgb(228,1,83);fill-rule:nonzero;"/>
        </g>
        <g transform="matrix(24.954,0,0,24.954,120.877,0)">
            <path d="M0.026,-0.645C0.025,-0.642 0.024,-0.639 0.023,-0.637C0.023,-0.635 0.024,-0.632 0.023,-0.63C0.023,-0.603 0.021,-0.575 0.021,-0.547C0.021,-0.519 0.022,-0.49 0.023,-0.461C0.023,-0.435 0.024,-0.41 0.026,-0.384C0.027,-0.358 0.029,-0.332 0.031,-0.306C0.032,-0.278 0.033,-0.25 0.034,-0.222C0.035,-0.193 0.036,-0.165 0.037,-0.136C0.038,-0.101 0.038,-0.066 0.039,-0.031L0.039,-0C0.041,0.001 0.043,0.001 0.045,0.001C0.061,-0 0.076,-0.001 0.092,-0.002L0.154,-0.002C0.166,-0.002 0.177,-0.003 0.189,-0.004C0.197,-0.004 0.204,-0.003 0.212,-0.004C0.219,-0.004 0.221,-0.005 0.221,-0.012C0.221,-0.026 0.221,-0.04 0.22,-0.054C0.22,-0.06 0.219,-0.065 0.218,-0.071C0.199,-0.073 0.18,-0.075 0.162,-0.076C0.143,-0.076 0.124,-0.075 0.105,-0.074C0.103,-0.084 0.102,-0.094 0.101,-0.104C0.1,-0.111 0.1,-0.119 0.1,-0.127C0.098,-0.145 0.096,-0.162 0.095,-0.18L0.095,-0.244C0.095,-0.253 0.095,-0.262 0.094,-0.27C0.092,-0.312 0.094,-0.353 0.095,-0.394C0.096,-0.404 0.097,-0.414 0.097,-0.424L0.097,-0.477C0.096,-0.505 0.098,-0.532 0.097,-0.559C0.095,-0.582 0.094,-0.605 0.093,-0.627C0.093,-0.635 0.092,-0.637 0.085,-0.637C0.077,-0.638 0.069,-0.637 0.061,-0.638C0.05,-0.64 0.038,-0.637 0.026,-0.645Z" style="fill:rgb(228,1,83);fill-rule:nonzero;"/>
        </g>
        <g transform="matrix(24.954,0,0,24.954,126.442,0)">
            <path d="M0.34,-0.351L0.34,-0.46C0.339,-0.48 0.337,-0.5 0.336,-0.52C0.335,-0.542 0.33,-0.563 0.323,-0.584C0.322,-0.588 0.32,-0.591 0.318,-0.594C0.314,-0.601 0.309,-0.608 0.305,-0.614C0.298,-0.624 0.289,-0.631 0.279,-0.636C0.258,-0.648 0.235,-0.653 0.211,-0.659C0.197,-0.663 0.184,-0.66 0.17,-0.659C0.168,-0.659 0.166,-0.659 0.165,-0.658C0.161,-0.654 0.156,-0.654 0.151,-0.654C0.137,-0.652 0.121,-0.652 0.107,-0.647C0.099,-0.645 0.091,-0.642 0.086,-0.635C0.079,-0.622 0.071,-0.611 0.067,-0.598C0.057,-0.572 0.049,-0.546 0.046,-0.519C0.043,-0.501 0.041,-0.483 0.039,-0.464C0.038,-0.446 0.036,-0.428 0.034,-0.41C0.033,-0.397 0.032,-0.384 0.031,-0.371C0.029,-0.341 0.026,-0.311 0.024,-0.281C0.023,-0.25 0.023,-0.219 0.022,-0.188C0.022,-0.166 0.021,-0.143 0.02,-0.121C0.02,-0.095 0.022,-0.071 0.029,-0.047C0.032,-0.037 0.035,-0.029 0.044,-0.022C0.058,-0.012 0.073,-0.006 0.089,-0.004C0.107,-0.001 0.125,-0.001 0.144,0.001C0.149,0.001 0.154,0.002 0.159,0.002C0.175,0.001 0.19,-0.001 0.206,-0.002C0.22,-0.002 0.234,-0.004 0.247,-0.008C0.257,-0.011 0.267,-0.015 0.275,-0.021C0.289,-0.032 0.299,-0.047 0.306,-0.064C0.316,-0.089 0.321,-0.116 0.327,-0.143C0.333,-0.17 0.333,-0.199 0.335,-0.227C0.336,-0.243 0.334,-0.259 0.336,-0.275C0.337,-0.279 0.337,-0.283 0.338,-0.287C0.338,-0.308 0.339,-0.329 0.34,-0.351ZM0.188,-0.608C0.192,-0.607 0.197,-0.604 0.201,-0.603C0.211,-0.599 0.217,-0.597 0.227,-0.593C0.241,-0.587 0.25,-0.575 0.259,-0.563C0.269,-0.551 0.275,-0.536 0.278,-0.52C0.281,-0.501 0.284,-0.482 0.286,-0.463C0.288,-0.448 0.289,-0.433 0.29,-0.418C0.291,-0.4 0.291,-0.382 0.291,-0.364C0.291,-0.339 0.291,-0.313 0.289,-0.287C0.289,-0.275 0.286,-0.263 0.285,-0.25C0.284,-0.24 0.283,-0.23 0.282,-0.22C0.279,-0.186 0.277,-0.152 0.267,-0.119C0.264,-0.11 0.26,-0.102 0.253,-0.096C0.236,-0.079 0.216,-0.068 0.194,-0.063C0.179,-0.06 0.164,-0.059 0.149,-0.063L0.145,-0.063C0.129,-0.063 0.117,-0.071 0.103,-0.076C0.09,-0.081 0.084,-0.091 0.082,-0.104C0.081,-0.119 0.08,-0.135 0.08,-0.151L0.08,-0.216C0.08,-0.223 0.081,-0.229 0.082,-0.236C0.082,-0.248 0.082,-0.26 0.083,-0.272C0.084,-0.293 0.085,-0.314 0.086,-0.336C0.087,-0.349 0.089,-0.363 0.09,-0.377C0.092,-0.4 0.094,-0.423 0.097,-0.446C0.101,-0.476 0.105,-0.505 0.11,-0.534C0.114,-0.554 0.121,-0.574 0.131,-0.592C0.134,-0.596 0.137,-0.599 0.143,-0.6C0.151,-0.601 0.158,-0.605 0.166,-0.607C0.172,-0.608 0.179,-0.608 0.188,-0.608Z" style="fill:rgb(228,1,83);fill-rule:nonzero;"/>
        </g>
        <g transform="matrix(24.954,0,0,24.954,135.425,0)">
            <path d="M0.101,-0.569C0.101,-0.541 0.102,-0.515 0.103,-0.489L0.103,-0.45C0.103,-0.435 0.103,-0.42 0.104,-0.404C0.104,-0.395 0.103,-0.385 0.104,-0.375C0.105,-0.365 0.106,-0.355 0.106,-0.344C0.105,-0.315 0.105,-0.285 0.106,-0.255C0.106,-0.233 0.107,-0.212 0.107,-0.19C0.107,-0.183 0.106,-0.175 0.106,-0.168C0.106,-0.157 0.107,-0.147 0.107,-0.136L0.107,-0.038C0.107,-0.036 0.108,-0.033 0.108,-0.031C0.109,-0.03 0.11,-0.03 0.111,-0.03C0.125,-0.03 0.138,-0.03 0.152,-0.029C0.163,-0.029 0.164,-0.031 0.167,-0.041C0.173,-0.056 0.174,-0.073 0.175,-0.089C0.175,-0.1 0.176,-0.111 0.177,-0.121C0.178,-0.133 0.179,-0.144 0.179,-0.155C0.179,-0.168 0.178,-0.181 0.178,-0.195C0.178,-0.201 0.179,-0.209 0.178,-0.215C0.178,-0.234 0.176,-0.253 0.175,-0.271C0.175,-0.279 0.175,-0.286 0.174,-0.294C0.173,-0.311 0.17,-0.329 0.169,-0.346C0.168,-0.36 0.169,-0.375 0.169,-0.389C0.169,-0.402 0.168,-0.416 0.168,-0.429C0.167,-0.441 0.167,-0.453 0.167,-0.465C0.166,-0.478 0.165,-0.492 0.164,-0.505C0.163,-0.527 0.161,-0.549 0.159,-0.571C0.161,-0.571 0.162,-0.572 0.164,-0.572C0.175,-0.572 0.188,-0.574 0.198,-0.571C0.21,-0.568 0.221,-0.572 0.232,-0.57C0.237,-0.569 0.242,-0.569 0.247,-0.568C0.255,-0.568 0.257,-0.569 0.257,-0.577L0.257,-0.59C0.258,-0.598 0.258,-0.605 0.259,-0.612C0.259,-0.617 0.258,-0.621 0.253,-0.621C0.243,-0.623 0.233,-0.625 0.223,-0.626C0.214,-0.627 0.206,-0.628 0.197,-0.629C0.183,-0.63 0.168,-0.632 0.154,-0.633C0.153,-0.634 0.152,-0.633 0.151,-0.633C0.13,-0.632 0.109,-0.63 0.088,-0.633L0.076,-0.633C0.07,-0.633 0.064,-0.632 0.059,-0.632L0.041,-0.632C0.032,-0.632 0.024,-0.629 0.016,-0.632C0.012,-0.633 0.01,-0.63 0.01,-0.627C0.009,-0.625 0.01,-0.623 0.01,-0.621C0.01,-0.604 0.009,-0.587 0.008,-0.57C0.008,-0.566 0.01,-0.564 0.013,-0.564L0.019,-0.564C0.037,-0.57 0.055,-0.57 0.073,-0.57C0.081,-0.57 0.09,-0.569 0.101,-0.569Z" style="fill:rgb(228,1,83);fill-rule:nonzero;"/>
        </g>
        <g transform="matrix(24.954,0,0,24.954,142.088,0)">
            <path d="M0.101,-0.569C0.101,-0.541 0.102,-0.515 0.103,-0.489L0.103,-0.45C0.103,-0.435 0.103,-0.42 0.104,-0.404C0.104,-0.395 0.103,-0.385 0.104,-0.375C0.105,-0.365 0.106,-0.355 0.106,-0.344C0.105,-0.315 0.105,-0.285 0.106,-0.255C0.106,-0.233 0.107,-0.212 0.107,-0.19C0.107,-0.183 0.106,-0.175 0.106,-0.168C0.106,-0.157 0.107,-0.147 0.107,-0.136L0.107,-0.038C0.107,-0.036 0.108,-0.033 0.108,-0.031C0.109,-0.03 0.11,-0.03 0.111,-0.03C0.125,-0.03 0.138,-0.03 0.152,-0.029C0.163,-0.029 0.164,-0.031 0.167,-0.041C0.173,-0.056 0.174,-0.073 0.175,-0.089C0.175,-0.1 0.176,-0.111 0.177,-0.121C0.178,-0.133 0.179,-0.144 0.179,-0.155C0.179,-0.168 0.178,-0.181 0.178,-0.195C0.178,-0.201 0.179,-0.209 0.178,-0.215C0.178,-0.234 0.176,-0.253 0.175,-0.271C0.175,-0.279 0.175,-0.286 0.174,-0.294C0.173,-0.311 0.17,-0.329 0.169,-0.346C0.168,-0.36 0.169,-0.375 0.169,-0.389C0.169,-0.402 0.168,-0.416 0.168,-0.429C0.167,-0.441 0.167,-0.453 0.167,-0.465C0.166,-0.478 0.165,-0.492 0.164,-0.505C0.163,-0.527 0.161,-0.549 0.159,-0.571C0.161,-0.571 0.162,-0.572 0.164,-0.572C0.175,-0.572 0.188,-0.574 0.198,-0.571C0.21,-0.568 0.221,-0.572 0.232,-0.57C0.237,-0.569 0.242,-0.569 0.247,-0.568C0.255,-0.568 0.257,-0.569 0.257,-0.577L0.257,-0.59C0.258,-0.598 0.258,-0.605 0.259,-0.612C0.259,-0.617 0.258,-0.621 0.253,-0.621C0.243,-0.623 0.233,-0.625 0.223,-0.626C0.214,-0.627 0.206,-0.628 0.197,-0.629C0.183,-0.63 0.168,-0.632 0.154,-0.633C0.153,-0.634 0.152,-0.633 0.151,-0.633C0.13,-0.632 0.109,-0.63 0.088,-0.633L0.076,-0.633C0.07,-0.633 0.064,-0.632 0.059,-0.632L0.041,-0.632C0.032,-0.632 0.024,-0.629 0.016,-0.632C0.012,-0.633 0.01,-0.63 0.01,-0.627C0.009,-0.625 0.01,-0.623 0.01,-0.621C0.01,-0.604 0.009,-0.587 0.008,-0.57C0.008,-0.566 0.01,-0.564 0.013,-0.564L0.019,-0.564C0.037,-0.57 0.055,-0.57 0.073,-0.57C0.081,-0.57 0.09,-0.569 0.101,-0.569Z" style="fill:rgb(228,1,83);fill-rule:nonzero;"/>
        </g>
        <g transform="matrix(24.954,0,0,24.954,148.751,0)">
            <path d="M0.34,-0.351L0.34,-0.46C0.339,-0.48 0.337,-0.5 0.336,-0.52C0.335,-0.542 0.33,-0.563 0.323,-0.584C0.322,-0.588 0.32,-0.591 0.318,-0.594C0.314,-0.601 0.309,-0.608 0.305,-0.614C0.298,-0.624 0.289,-0.631 0.279,-0.636C0.258,-0.648 0.235,-0.653 0.211,-0.659C0.197,-0.663 0.184,-0.66 0.17,-0.659C0.168,-0.659 0.166,-0.659 0.165,-0.658C0.161,-0.654 0.156,-0.654 0.151,-0.654C0.137,-0.652 0.121,-0.652 0.107,-0.647C0.099,-0.645 0.091,-0.642 0.086,-0.635C0.079,-0.622 0.071,-0.611 0.067,-0.598C0.057,-0.572 0.049,-0.546 0.046,-0.519C0.043,-0.501 0.041,-0.483 0.039,-0.464C0.038,-0.446 0.036,-0.428 0.034,-0.41C0.033,-0.397 0.032,-0.384 0.031,-0.371C0.029,-0.341 0.026,-0.311 0.024,-0.281C0.023,-0.25 0.023,-0.219 0.022,-0.188C0.022,-0.166 0.021,-0.143 0.02,-0.121C0.02,-0.095 0.022,-0.071 0.029,-0.047C0.032,-0.037 0.035,-0.029 0.044,-0.022C0.058,-0.012 0.073,-0.006 0.089,-0.004C0.107,-0.001 0.125,-0.001 0.144,0.001C0.149,0.001 0.154,0.002 0.159,0.002C0.175,0.001 0.19,-0.001 0.206,-0.002C0.22,-0.002 0.234,-0.004 0.247,-0.008C0.257,-0.011 0.267,-0.015 0.275,-0.021C0.289,-0.032 0.299,-0.047 0.306,-0.064C0.316,-0.089 0.321,-0.116 0.327,-0.143C0.333,-0.17 0.333,-0.199 0.335,-0.227C0.336,-0.243 0.334,-0.259 0.336,-0.275C0.337,-0.279 0.337,-0.283 0.338,-0.287C0.338,-0.308 0.339,-0.329 0.34,-0.351ZM0.188,-0.608C0.192,-0.607 0.197,-0.604 0.201,-0.603C0.211,-0.599 0.217,-0.597 0.227,-0.593C0.241,-0.587 0.25,-0.575 0.259,-0.563C0.269,-0.551 0.275,-0.536 0.278,-0.52C0.281,-0.501 0.284,-0.482 0.286,-0.463C0.288,-0.448 0.289,-0.433 0.29,-0.418C0.291,-0.4 0.291,-0.382 0.291,-0.364C0.291,-0.339 0.291,-0.313 0.289,-0.287C0.289,-0.275 0.286,-0.263 0.285,-0.25C0.284,-0.24 0.283,-0.23 0.282,-0.22C0.279,-0.186 0.277,-0.152 0.267,-0.119C0.264,-0.11 0.26,-0.102 0.253,-0.096C0.236,-0.079 0.216,-0.068 0.194,-0.063C0.179,-0.06 0.164,-0.059 0.149,-0.063L0.145,-0.063C0.129,-0.063 0.117,-0.071 0.103,-0.076C0.09,-0.081 0.084,-0.091 0.082,-0.104C0.081,-0.119 0.08,-0.135 0.08,-0.151L0.08,-0.216C0.08,-0.223 0.081,-0.229 0.082,-0.236C0.082,-0.248 0.082,-0.26 0.083,-0.272C0.084,-0.293 0.085,-0.314 0.086,-0.336C0.087,-0.349 0.089,-0.363 0.09,-0.377C0.092,-0.4 0.094,-0.423 0.097,-0.446C0.101,-0.476 0.105,-0.505 0.11,-0.534C0.114,-0.554 0.121,-0.574 0.131,-0.592C0.134,-0.596 0.137,-0.599 0.143,-0.6C0.151,-0.601 0.158,-0.605 0.166,-0.607C0.172,-0.608 0.179,-0.608 0.188,-0.608Z" style="fill:rgb(228,1,83);fill-rule:nonzero;"/>
        </g>
        <g transform="matrix(24.954,-1.11022e-16,0,24.954,-6.114,-5.68434e-14)">
            <path d="M0.101,-0.569C0.101,-0.541 0.102,-0.515 0.103,-0.489L0.103,-0.45C0.103,-0.435 0.103,-0.42 0.104,-0.404C0.104,-0.395 0.103,-0.385 0.104,-0.375C0.105,-0.365 0.106,-0.355 0.106,-0.344C0.105,-0.315 0.105,-0.285 0.106,-0.255C0.106,-0.233 0.107,-0.212 0.107,-0.19C0.107,-0.183 0.106,-0.175 0.106,-0.168C0.106,-0.157 0.107,-0.147 0.107,-0.136L0.107,-0.038C0.107,-0.036 0.108,-0.033 0.108,-0.031C0.109,-0.03 0.11,-0.03 0.111,-0.03C0.125,-0.03 0.138,-0.03 0.152,-0.029C0.163,-0.029 0.164,-0.031 0.167,-0.041C0.173,-0.056 0.174,-0.073 0.175,-0.089C0.175,-0.1 0.176,-0.111 0.177,-0.121C0.178,-0.133 0.179,-0.144 0.179,-0.155C0.179,-0.168 0.178,-0.181 0.178,-0.195C0.178,-0.201 0.179,-0.209 0.178,-0.215C0.178,-0.234 0.176,-0.253 0.175,-0.271C0.175,-0.279 0.175,-0.286 0.174,-0.294C0.173,-0.311 0.17,-0.329 0.169,-0.346C0.168,-0.36 0.169,-0.375 0.169,-0.389C0.169,-0.402 0.168,-0.416 0.168,-0.429C0.167,-0.441 0.167,-0.453 0.167,-0.465C0.166,-0.478 0.165,-0.492 0.164,-0.505C0.163,-0.527 0.161,-0.549 0.159,-0.571C0.161,-0.571 0.162,-0.572 0.164,-0.572C0.175,-0.572 0.188,-0.574 0.198,-0.571C0.21,-0.568 0.221,-0.572 0.232,-0.57C0.237,-0.569 0.242,-0.569 0.247,-0.568C0.255,-0.568 0.257,-0.569 0.257,-0.577L0.257,-0.59C0.258,-0.598 0.258,-0.605 0.259,-0.612C0.259,-0.617 0.258,-0.621 0.253,-0.621C0.243,-0.623 0.233,-0.625 0.223,-0.626C0.214,-0.627 0.206,-0.628 0.197,-0.629C0.183,-0.63 0.168,-0.632 0.154,-0.633C0.153,-0.634 0.152,-0.633 0.151,-0.633C0.13,-0.632 0.109,-0.63 0.088,-0.633L0.076,-0.633C0.07,-0.633 0.064,-0.632 0.059,-0.632L0.041,-0.632C0.032,-0.632 0.024,-0.629 0.016,-0.632C0.012,-0.633 0.01,-0.63 0.01,-0.627C0.009,-0.625 0.01,-0.623 0.01,-0.621C0.01,-0.604 0.009,-0.587 0.008,-0.57C0.008,-0.566 0.01,-0.564 0.013,-0.564L0.019,-0.564C0.037,-0.57 0.055,-0.57 0.073,-0.57C0.081,-0.57 0.09,-0.569 0.101,-0.569Z" style="fill:rgb(228,1,83);fill-rule:nonzero;"/>
        </g>
    </g>
    <g transform="matrix(2.3967,-0.0624055,0.0565951,2.64276,46.5513,65.4389)">
        <g transform="matrix(24.954,0,0,24.954,0,0)">
            <path d="M0.273,-0.189L0.27,-0.189C0.27,-0.19 0.269,-0.191 0.269,-0.192C0.266,-0.202 0.263,-0.211 0.259,-0.221C0.251,-0.247 0.242,-0.273 0.233,-0.299C0.229,-0.312 0.225,-0.326 0.222,-0.34C0.217,-0.356 0.214,-0.372 0.21,-0.388C0.208,-0.399 0.205,-0.411 0.203,-0.422C0.2,-0.433 0.198,-0.444 0.196,-0.455C0.194,-0.464 0.191,-0.472 0.188,-0.481C0.183,-0.497 0.178,-0.514 0.17,-0.529C0.168,-0.531 0.167,-0.534 0.167,-0.536C0.161,-0.558 0.151,-0.578 0.142,-0.599C0.136,-0.611 0.131,-0.622 0.129,-0.635C0.128,-0.64 0.126,-0.641 0.122,-0.64C0.114,-0.639 0.106,-0.64 0.099,-0.64C0.083,-0.639 0.067,-0.639 0.051,-0.638C0.04,-0.637 0.033,-0.63 0.033,-0.619C0.031,-0.594 0.03,-0.568 0.029,-0.543C0.028,-0.499 0.028,-0.455 0.025,-0.412C0.024,-0.4 0.024,-0.389 0.024,-0.377C0.024,-0.347 0.023,-0.318 0.023,-0.288C0.023,-0.253 0.024,-0.218 0.024,-0.183C0.025,-0.145 0.025,-0.108 0.026,-0.07C0.026,-0.047 0.029,-0.023 0.031,0.002C0.048,0.002 0.065,-0.001 0.082,-0.002C0.086,-0.003 0.089,-0.005 0.092,-0.006C0.092,-0.013 0.093,-0.019 0.093,-0.024C0.093,-0.028 0.092,-0.032 0.092,-0.035C0.092,-0.039 0.091,-0.044 0.091,-0.048C0.092,-0.068 0.092,-0.089 0.093,-0.109C0.093,-0.11 0.093,-0.112 0.092,-0.114C0.088,-0.141 0.088,-0.168 0.088,-0.195C0.087,-0.218 0.089,-0.241 0.088,-0.264C0.088,-0.279 0.09,-0.293 0.088,-0.308C0.086,-0.32 0.089,-0.333 0.089,-0.346C0.089,-0.359 0.09,-0.371 0.09,-0.384C0.09,-0.401 0.089,-0.418 0.089,-0.435L0.089,-0.446C0.089,-0.456 0.088,-0.467 0.087,-0.478C0.087,-0.498 0.086,-0.519 0.086,-0.539C0.086,-0.541 0.087,-0.542 0.087,-0.544C0.092,-0.538 0.096,-0.532 0.098,-0.525C0.105,-0.51 0.112,-0.495 0.119,-0.479C0.123,-0.469 0.127,-0.46 0.131,-0.45C0.138,-0.431 0.144,-0.412 0.15,-0.393C0.155,-0.377 0.16,-0.361 0.164,-0.345C0.17,-0.322 0.175,-0.299 0.181,-0.276C0.189,-0.245 0.197,-0.215 0.204,-0.184C0.211,-0.161 0.216,-0.137 0.224,-0.114C0.234,-0.084 0.241,-0.052 0.25,-0.021C0.252,-0.015 0.252,-0.015 0.259,-0.016C0.269,-0.017 0.279,-0.019 0.289,-0.02C0.298,-0.021 0.308,-0.021 0.317,-0.022C0.324,-0.023 0.325,-0.024 0.325,-0.031C0.325,-0.048 0.324,-0.065 0.323,-0.082C0.323,-0.09 0.322,-0.098 0.322,-0.106C0.321,-0.116 0.321,-0.126 0.321,-0.136C0.321,-0.145 0.321,-0.155 0.322,-0.165C0.322,-0.176 0.323,-0.187 0.323,-0.197C0.323,-0.213 0.322,-0.229 0.324,-0.244C0.326,-0.273 0.325,-0.301 0.325,-0.33C0.324,-0.342 0.324,-0.355 0.325,-0.367C0.328,-0.395 0.331,-0.421 0.329,-0.449C0.328,-0.471 0.329,-0.494 0.329,-0.516C0.329,-0.532 0.33,-0.547 0.33,-0.562C0.33,-0.588 0.325,-0.614 0.322,-0.639C0.322,-0.644 0.318,-0.647 0.313,-0.645C0.307,-0.644 0.3,-0.642 0.294,-0.641C0.287,-0.639 0.279,-0.639 0.272,-0.639C0.272,-0.636 0.271,-0.634 0.271,-0.632C0.272,-0.612 0.267,-0.592 0.268,-0.572C0.269,-0.561 0.267,-0.55 0.267,-0.539C0.268,-0.513 0.268,-0.487 0.268,-0.461C0.269,-0.452 0.267,-0.442 0.267,-0.432C0.267,-0.419 0.268,-0.405 0.268,-0.391C0.269,-0.37 0.269,-0.35 0.269,-0.329C0.27,-0.31 0.271,-0.292 0.271,-0.273C0.272,-0.252 0.272,-0.232 0.273,-0.211L0.273,-0.189Z" style="fill:rgb(228,1,83);fill-rule:nonzero;"/>
        </g>
        <g transform="matrix(24.954,0,0,24.954,12.9262,0)">
            <path d="M0.03,-0.657C0.03,-0.651 0.031,-0.646 0.029,-0.643C0.026,-0.639 0.026,-0.636 0.026,-0.632L0.026,-0.613C0.025,-0.6 0.025,-0.587 0.024,-0.574L0.024,-0.502C0.023,-0.478 0.023,-0.454 0.023,-0.43L0.023,-0.394C0.024,-0.376 0.023,-0.358 0.024,-0.339C0.024,-0.313 0.025,-0.286 0.026,-0.26L0.026,-0.181C0.027,-0.169 0.028,-0.156 0.028,-0.144C0.029,-0.104 0.029,-0.065 0.03,-0.026C0.03,-0.015 0.03,-0.004 0.033,0.008L0.039,0.008C0.051,0.006 0.063,0.004 0.075,0.002C0.098,-0.001 0.092,-0 0.095,-0.019L0.095,-0.021C0.095,-0.04 0.094,-0.059 0.094,-0.078C0.093,-0.095 0.094,-0.112 0.094,-0.129C0.093,-0.143 0.093,-0.157 0.092,-0.171L0.092,-0.18C0.093,-0.194 0.095,-0.208 0.095,-0.222C0.095,-0.246 0.094,-0.27 0.094,-0.295L0.094,-0.339C0.094,-0.349 0.092,-0.36 0.092,-0.37C0.091,-0.374 0.093,-0.377 0.098,-0.377C0.113,-0.376 0.128,-0.38 0.143,-0.383C0.152,-0.385 0.162,-0.387 0.17,-0.391C0.191,-0.399 0.211,-0.408 0.231,-0.418C0.247,-0.425 0.258,-0.436 0.262,-0.453C0.269,-0.483 0.269,-0.513 0.267,-0.543C0.266,-0.551 0.266,-0.558 0.265,-0.565C0.262,-0.578 0.259,-0.591 0.256,-0.604C0.253,-0.618 0.246,-0.63 0.237,-0.642C0.229,-0.651 0.219,-0.659 0.206,-0.662C0.19,-0.666 0.175,-0.669 0.159,-0.671C0.136,-0.673 0.113,-0.67 0.091,-0.669C0.087,-0.669 0.083,-0.667 0.079,-0.666C0.078,-0.665 0.076,-0.664 0.075,-0.665C0.062,-0.667 0.049,-0.66 0.036,-0.66C0.034,-0.659 0.031,-0.658 0.03,-0.657ZM0.087,-0.444C0.082,-0.5 0.082,-0.554 0.08,-0.609C0.089,-0.615 0.098,-0.616 0.108,-0.617C0.126,-0.618 0.143,-0.619 0.16,-0.614C0.182,-0.607 0.196,-0.592 0.2,-0.569C0.202,-0.558 0.203,-0.546 0.204,-0.535C0.206,-0.513 0.201,-0.493 0.19,-0.475C0.183,-0.463 0.172,-0.455 0.158,-0.452C0.14,-0.449 0.123,-0.447 0.105,-0.444C0.099,-0.443 0.094,-0.444 0.087,-0.444Z" style="fill:rgb(228,1,83);fill-rule:nonzero;"/>
        </g>
        <g transform="matrix(24.954,0,0,24.954,19.7137,0)">
            <path d="M0.234,-0.333C0.244,-0.226 0.257,-0.122 0.277,-0.018L0.305,-0.018C0.315,-0.018 0.326,-0.019 0.336,-0.019C0.343,-0.02 0.344,-0.022 0.344,-0.029C0.343,-0.043 0.341,-0.058 0.34,-0.072C0.339,-0.081 0.338,-0.091 0.337,-0.1C0.333,-0.123 0.33,-0.145 0.327,-0.167C0.323,-0.194 0.32,-0.222 0.317,-0.249C0.315,-0.268 0.312,-0.287 0.31,-0.307C0.308,-0.324 0.305,-0.342 0.303,-0.359C0.301,-0.377 0.297,-0.395 0.296,-0.412C0.296,-0.432 0.291,-0.45 0.289,-0.468C0.286,-0.488 0.281,-0.507 0.277,-0.526C0.271,-0.554 0.264,-0.583 0.258,-0.611C0.257,-0.616 0.255,-0.618 0.25,-0.619C0.24,-0.619 0.229,-0.62 0.219,-0.622C0.207,-0.624 0.195,-0.627 0.183,-0.629C0.167,-0.632 0.151,-0.635 0.134,-0.635C0.123,-0.634 0.113,-0.635 0.101,-0.635C0.1,-0.632 0.097,-0.628 0.096,-0.624C0.093,-0.613 0.09,-0.602 0.086,-0.59C0.08,-0.57 0.077,-0.549 0.075,-0.528C0.073,-0.514 0.072,-0.5 0.07,-0.485C0.067,-0.464 0.063,-0.443 0.06,-0.422C0.059,-0.414 0.057,-0.407 0.056,-0.4C0.053,-0.374 0.049,-0.348 0.046,-0.322C0.042,-0.29 0.038,-0.257 0.035,-0.224C0.032,-0.198 0.029,-0.171 0.026,-0.144C0.025,-0.138 0.025,-0.131 0.024,-0.125C0.022,-0.106 0.021,-0.087 0.019,-0.068C0.018,-0.052 0.017,-0.036 0.016,-0.02C0.02,-0.019 0.024,-0.018 0.027,-0.019C0.043,-0.02 0.059,-0.022 0.076,-0.024C0.083,-0.025 0.084,-0.026 0.084,-0.034C0.085,-0.056 0.085,-0.078 0.087,-0.1C0.088,-0.115 0.09,-0.13 0.091,-0.145C0.093,-0.159 0.097,-0.174 0.096,-0.189C0.096,-0.206 0.098,-0.223 0.099,-0.239C0.1,-0.253 0.101,-0.267 0.103,-0.28C0.104,-0.294 0.105,-0.309 0.107,-0.324C0.149,-0.329 0.191,-0.327 0.234,-0.333ZM0.135,-0.549C0.156,-0.553 0.176,-0.556 0.196,-0.556C0.207,-0.536 0.226,-0.432 0.226,-0.392C0.217,-0.391 0.207,-0.389 0.198,-0.388C0.186,-0.387 0.173,-0.388 0.161,-0.386C0.148,-0.384 0.134,-0.381 0.121,-0.379C0.119,-0.378 0.117,-0.379 0.114,-0.379C0.113,-0.38 0.113,-0.382 0.113,-0.383C0.115,-0.398 0.117,-0.413 0.119,-0.428C0.12,-0.435 0.121,-0.441 0.122,-0.447C0.124,-0.461 0.126,-0.475 0.127,-0.488C0.129,-0.505 0.131,-0.522 0.132,-0.539C0.133,-0.542 0.134,-0.546 0.135,-0.549Z" style="fill:rgb(228,1,83);fill-rule:nonzero;"/>
        </g>
        <g transform="matrix(24.954,0,0,24.954,28.6721,0)">
            <path d="M0.026,-0.645C0.025,-0.642 0.024,-0.639 0.023,-0.637C0.023,-0.635 0.024,-0.632 0.023,-0.63C0.023,-0.603 0.021,-0.575 0.021,-0.547C0.021,-0.519 0.022,-0.49 0.023,-0.461C0.023,-0.435 0.024,-0.41 0.026,-0.384C0.027,-0.358 0.029,-0.332 0.031,-0.306C0.032,-0.278 0.033,-0.25 0.034,-0.222C0.035,-0.193 0.036,-0.165 0.037,-0.136C0.038,-0.101 0.038,-0.066 0.039,-0.031L0.039,-0C0.041,0.001 0.043,0.001 0.045,0.001C0.061,-0 0.076,-0.001 0.092,-0.002L0.154,-0.002C0.166,-0.002 0.177,-0.003 0.189,-0.004C0.197,-0.004 0.204,-0.003 0.212,-0.004C0.219,-0.004 0.221,-0.005 0.221,-0.012C0.221,-0.026 0.221,-0.04 0.22,-0.054C0.22,-0.06 0.219,-0.065 0.218,-0.071C0.199,-0.073 0.18,-0.075 0.162,-0.076C0.143,-0.076 0.124,-0.075 0.105,-0.074C0.103,-0.084 0.102,-0.094 0.101,-0.104C0.1,-0.111 0.1,-0.119 0.1,-0.127C0.098,-0.145 0.096,-0.162 0.095,-0.18L0.095,-0.244C0.095,-0.253 0.095,-0.262 0.094,-0.27C0.092,-0.312 0.094,-0.353 0.095,-0.394C0.096,-0.404 0.097,-0.414 0.097,-0.424L0.097,-0.477C0.096,-0.505 0.098,-0.532 0.097,-0.559C0.095,-0.582 0.094,-0.605 0.093,-0.627C0.093,-0.635 0.092,-0.637 0.085,-0.637C0.077,-0.638 0.069,-0.637 0.061,-0.638C0.05,-0.64 0.038,-0.637 0.026,-0.645Z" style="fill:rgb(228,1,83);fill-rule:nonzero;"/>
        </g>
        <g transform="matrix(24.954,0,0,24.954,34.2369,0)">
            <path d="M0.216,-0.161L0.214,-0.161L0.214,-0.138C0.214,-0.131 0.213,-0.125 0.212,-0.118C0.207,-0.094 0.184,-0.081 0.16,-0.088C0.156,-0.089 0.152,-0.091 0.148,-0.092C0.137,-0.095 0.129,-0.101 0.123,-0.11C0.113,-0.124 0.108,-0.14 0.106,-0.157C0.105,-0.166 0.104,-0.175 0.104,-0.184C0.101,-0.21 0.098,-0.237 0.097,-0.263C0.096,-0.292 0.092,-0.321 0.09,-0.351C0.089,-0.367 0.089,-0.382 0.089,-0.398C0.089,-0.41 0.09,-0.421 0.089,-0.433C0.087,-0.458 0.087,-0.484 0.091,-0.509C0.092,-0.517 0.094,-0.526 0.097,-0.534C0.101,-0.546 0.108,-0.557 0.121,-0.562C0.137,-0.569 0.154,-0.576 0.172,-0.574C0.179,-0.574 0.186,-0.572 0.19,-0.567C0.196,-0.557 0.203,-0.546 0.204,-0.534C0.207,-0.51 0.209,-0.486 0.212,-0.462C0.213,-0.455 0.213,-0.454 0.22,-0.454C0.233,-0.454 0.247,-0.454 0.26,-0.455C0.265,-0.455 0.269,-0.457 0.27,-0.463C0.271,-0.474 0.273,-0.485 0.273,-0.497C0.273,-0.515 0.272,-0.534 0.272,-0.552C0.271,-0.577 0.264,-0.599 0.245,-0.617C0.241,-0.621 0.237,-0.624 0.233,-0.626C0.219,-0.633 0.206,-0.64 0.192,-0.644C0.17,-0.652 0.149,-0.654 0.126,-0.649C0.112,-0.647 0.099,-0.64 0.086,-0.633C0.078,-0.629 0.069,-0.624 0.063,-0.617C0.053,-0.604 0.043,-0.59 0.038,-0.573C0.027,-0.537 0.022,-0.499 0.021,-0.461C0.021,-0.441 0.022,-0.421 0.022,-0.401C0.022,-0.39 0.025,-0.384 0.025,-0.368C0.025,-0.367 0.026,-0.365 0.026,-0.364C0.027,-0.342 0.028,-0.319 0.028,-0.297C0.028,-0.28 0.026,-0.262 0.026,-0.245C0.025,-0.211 0.028,-0.178 0.03,-0.144C0.031,-0.119 0.036,-0.096 0.049,-0.075C0.06,-0.055 0.072,-0.036 0.094,-0.028C0.098,-0.027 0.101,-0.024 0.105,-0.023C0.114,-0.018 0.123,-0.014 0.134,-0.014C0.139,-0.014 0.145,-0.013 0.15,-0.012C0.159,-0.011 0.167,-0.011 0.176,-0.014C0.181,-0.016 0.187,-0.019 0.193,-0.021C0.219,-0.027 0.238,-0.044 0.253,-0.063C0.266,-0.081 0.273,-0.102 0.274,-0.125C0.276,-0.153 0.271,-0.18 0.269,-0.208C0.269,-0.212 0.267,-0.214 0.263,-0.214C0.26,-0.214 0.257,-0.213 0.255,-0.213C0.245,-0.211 0.234,-0.208 0.224,-0.207C0.219,-0.206 0.216,-0.204 0.216,-0.199L0.216,-0.161Z" style="fill:rgb(228,1,83);fill-rule:nonzero;"/>
        </g>
        <g transform="matrix(24.954,0,0,24.954,41.5734,0)">
            <path d="M0.34,-0.351L0.34,-0.46C0.339,-0.48 0.337,-0.5 0.336,-0.52C0.335,-0.542 0.33,-0.563 0.323,-0.584C0.322,-0.588 0.32,-0.591 0.318,-0.594C0.314,-0.601 0.309,-0.608 0.305,-0.614C0.298,-0.624 0.289,-0.631 0.279,-0.636C0.258,-0.648 0.235,-0.653 0.211,-0.659C0.197,-0.663 0.184,-0.66 0.17,-0.659C0.168,-0.659 0.166,-0.659 0.165,-0.658C0.161,-0.654 0.156,-0.654 0.151,-0.654C0.137,-0.652 0.121,-0.652 0.107,-0.647C0.099,-0.645 0.091,-0.642 0.086,-0.635C0.079,-0.622 0.071,-0.611 0.067,-0.598C0.057,-0.572 0.049,-0.546 0.046,-0.519C0.043,-0.501 0.041,-0.483 0.039,-0.464C0.038,-0.446 0.036,-0.428 0.034,-0.41C0.033,-0.397 0.032,-0.384 0.031,-0.371C0.029,-0.341 0.026,-0.311 0.024,-0.281C0.023,-0.25 0.023,-0.219 0.022,-0.188C0.022,-0.166 0.021,-0.143 0.02,-0.121C0.02,-0.095 0.022,-0.071 0.029,-0.047C0.032,-0.037 0.035,-0.029 0.044,-0.022C0.058,-0.012 0.073,-0.006 0.089,-0.004C0.107,-0.001 0.125,-0.001 0.144,0.001C0.149,0.001 0.154,0.002 0.159,0.002C0.175,0.001 0.19,-0.001 0.206,-0.002C0.22,-0.002 0.234,-0.004 0.247,-0.008C0.257,-0.011 0.267,-0.015 0.275,-0.021C0.289,-0.032 0.299,-0.047 0.306,-0.064C0.316,-0.089 0.321,-0.116 0.327,-0.143C0.333,-0.17 0.333,-0.199 0.335,-0.227C0.336,-0.243 0.334,-0.259 0.336,-0.275C0.337,-0.279 0.337,-0.283 0.338,-0.287C0.338,-0.308 0.339,-0.329 0.34,-0.351ZM0.188,-0.608C0.192,-0.607 0.197,-0.604 0.201,-0.603C0.211,-0.599 0.217,-0.597 0.227,-0.593C0.241,-0.587 0.25,-0.575 0.259,-0.563C0.269,-0.551 0.275,-0.536 0.278,-0.52C0.281,-0.501 0.284,-0.482 0.286,-0.463C0.288,-0.448 0.289,-0.433 0.29,-0.418C0.291,-0.4 0.291,-0.382 0.291,-0.364C0.291,-0.339 0.291,-0.313 0.289,-0.287C0.289,-0.275 0.286,-0.263 0.285,-0.25C0.284,-0.24 0.283,-0.23 0.282,-0.22C0.279,-0.186 0.277,-0.152 0.267,-0.119C0.264,-0.11 0.26,-0.102 0.253,-0.096C0.236,-0.079 0.216,-0.068 0.194,-0.063C0.179,-0.06 0.164,-0.059 0.149,-0.063L0.145,-0.063C0.129,-0.063 0.117,-0.071 0.103,-0.076C0.09,-0.081 0.084,-0.091 0.082,-0.104C0.081,-0.119 0.08,-0.135 0.08,-0.151L0.08,-0.216C0.08,-0.223 0.081,-0.229 0.082,-0.236C0.082,-0.248 0.082,-0.26 0.083,-0.272C0.084,-0.293 0.085,-0.314 0.086,-0.336C0.087,-0.349 0.089,-0.363 0.09,-0.377C0.092,-0.4 0.094,-0.423 0.097,-0.446C0.101,-0.476 0.105,-0.505 0.11,-0.534C0.114,-0.554 0.121,-0.574 0.131,-0.592C0.134,-0.596 0.137,-0.599 0.143,-0.6C0.151,-0.601 0.158,-0.605 0.166,-0.607C0.172,-0.608 0.179,-0.608 0.188,-0.608Z" style="fill:rgb(228,1,83);fill-rule:nonzero;"/>
        </g>
        <g transform="matrix(24.954,0,0,24.954,50.5568,0)">
            <path d="M0.264,-0.529C0.264,-0.549 0.264,-0.57 0.258,-0.589C0.255,-0.6 0.251,-0.61 0.242,-0.617C0.224,-0.63 0.204,-0.638 0.183,-0.644C0.162,-0.649 0.14,-0.648 0.118,-0.649C0.11,-0.649 0.101,-0.648 0.094,-0.643C0.091,-0.641 0.087,-0.637 0.084,-0.635C0.071,-0.626 0.061,-0.615 0.054,-0.602C0.042,-0.58 0.034,-0.557 0.032,-0.533C0.03,-0.504 0.035,-0.476 0.047,-0.45C0.055,-0.431 0.063,-0.412 0.074,-0.394C0.088,-0.371 0.104,-0.348 0.119,-0.326C0.13,-0.31 0.142,-0.295 0.153,-0.279C0.155,-0.276 0.157,-0.274 0.159,-0.27C0.167,-0.257 0.175,-0.244 0.183,-0.232C0.194,-0.214 0.203,-0.196 0.208,-0.176C0.212,-0.161 0.215,-0.146 0.208,-0.131C0.203,-0.12 0.197,-0.111 0.191,-0.101C0.189,-0.098 0.186,-0.094 0.183,-0.093C0.172,-0.09 0.161,-0.087 0.15,-0.086C0.136,-0.085 0.123,-0.09 0.111,-0.096C0.101,-0.1 0.096,-0.107 0.094,-0.117C0.092,-0.125 0.091,-0.132 0.09,-0.14C0.09,-0.151 0.089,-0.162 0.09,-0.173C0.09,-0.178 0.087,-0.184 0.09,-0.19C0.092,-0.194 0.089,-0.197 0.084,-0.198C0.079,-0.198 0.074,-0.198 0.069,-0.197L0.039,-0.197C0.034,-0.197 0.03,-0.198 0.025,-0.198C0.018,-0.198 0.016,-0.197 0.016,-0.19C0.016,-0.177 0.017,-0.165 0.018,-0.152C0.019,-0.136 0.02,-0.119 0.026,-0.103C0.028,-0.099 0.029,-0.095 0.032,-0.091C0.036,-0.084 0.041,-0.077 0.046,-0.071C0.054,-0.062 0.061,-0.053 0.07,-0.046C0.092,-0.027 0.12,-0.021 0.148,-0.02C0.166,-0.019 0.184,-0.021 0.201,-0.031C0.218,-0.04 0.234,-0.05 0.246,-0.066C0.257,-0.08 0.266,-0.096 0.272,-0.113C0.285,-0.15 0.288,-0.186 0.279,-0.224C0.27,-0.259 0.253,-0.289 0.23,-0.315C0.219,-0.327 0.209,-0.339 0.2,-0.353C0.197,-0.359 0.192,-0.365 0.187,-0.37C0.18,-0.377 0.172,-0.384 0.166,-0.392C0.149,-0.415 0.134,-0.44 0.121,-0.466C0.112,-0.484 0.107,-0.503 0.108,-0.523C0.109,-0.535 0.109,-0.547 0.114,-0.558C0.117,-0.566 0.122,-0.573 0.131,-0.575C0.15,-0.58 0.17,-0.579 0.189,-0.572C0.196,-0.57 0.2,-0.565 0.202,-0.558C0.211,-0.536 0.21,-0.514 0.207,-0.492C0.206,-0.482 0.211,-0.477 0.22,-0.478C0.229,-0.479 0.237,-0.479 0.246,-0.48C0.257,-0.48 0.261,-0.483 0.262,-0.493C0.264,-0.505 0.264,-0.517 0.264,-0.529Z" style="fill:rgb(228,1,83);fill-rule:nonzero;"/>
        </g>
        <g transform="matrix(24.954,0,0,24.954,58.1179,0)">
            <path d="M0.216,-0.161L0.214,-0.161L0.214,-0.138C0.214,-0.131 0.213,-0.125 0.212,-0.118C0.207,-0.094 0.184,-0.081 0.16,-0.088C0.156,-0.089 0.152,-0.091 0.148,-0.092C0.137,-0.095 0.129,-0.101 0.123,-0.11C0.113,-0.124 0.108,-0.14 0.106,-0.157C0.105,-0.166 0.104,-0.175 0.104,-0.184C0.101,-0.21 0.098,-0.237 0.097,-0.263C0.096,-0.292 0.092,-0.321 0.09,-0.351C0.089,-0.367 0.089,-0.382 0.089,-0.398C0.089,-0.41 0.09,-0.421 0.089,-0.433C0.087,-0.458 0.087,-0.484 0.091,-0.509C0.092,-0.517 0.094,-0.526 0.097,-0.534C0.101,-0.546 0.108,-0.557 0.121,-0.562C0.137,-0.569 0.154,-0.576 0.172,-0.574C0.179,-0.574 0.186,-0.572 0.19,-0.567C0.196,-0.557 0.203,-0.546 0.204,-0.534C0.207,-0.51 0.209,-0.486 0.212,-0.462C0.213,-0.455 0.213,-0.454 0.22,-0.454C0.233,-0.454 0.247,-0.454 0.26,-0.455C0.265,-0.455 0.269,-0.457 0.27,-0.463C0.271,-0.474 0.273,-0.485 0.273,-0.497C0.273,-0.515 0.272,-0.534 0.272,-0.552C0.271,-0.577 0.264,-0.599 0.245,-0.617C0.241,-0.621 0.237,-0.624 0.233,-0.626C0.219,-0.633 0.206,-0.64 0.192,-0.644C0.17,-0.652 0.149,-0.654 0.126,-0.649C0.112,-0.647 0.099,-0.64 0.086,-0.633C0.078,-0.629 0.069,-0.624 0.063,-0.617C0.053,-0.604 0.043,-0.59 0.038,-0.573C0.027,-0.537 0.022,-0.499 0.021,-0.461C0.021,-0.441 0.022,-0.421 0.022,-0.401C0.022,-0.39 0.025,-0.384 0.025,-0.368C0.025,-0.367 0.026,-0.365 0.026,-0.364C0.027,-0.342 0.028,-0.319 0.028,-0.297C0.028,-0.28 0.026,-0.262 0.026,-0.245C0.025,-0.211 0.028,-0.178 0.03,-0.144C0.031,-0.119 0.036,-0.096 0.049,-0.075C0.06,-0.055 0.072,-0.036 0.094,-0.028C0.098,-0.027 0.101,-0.024 0.105,-0.023C0.114,-0.018 0.123,-0.014 0.134,-0.014C0.139,-0.014 0.145,-0.013 0.15,-0.012C0.159,-0.011 0.167,-0.011 0.176,-0.014C0.181,-0.016 0.187,-0.019 0.193,-0.021C0.219,-0.027 0.238,-0.044 0.253,-0.063C0.266,-0.081 0.273,-0.102 0.274,-0.125C0.276,-0.153 0.271,-0.18 0.269,-0.208C0.269,-0.212 0.267,-0.214 0.263,-0.214C0.26,-0.214 0.257,-0.213 0.255,-0.213C0.245,-0.211 0.234,-0.208 0.224,-0.207C0.219,-0.206 0.216,-0.204 0.216,-0.199L0.216,-0.161Z" style="fill:rgb(228,1,83);fill-rule:nonzero;"/>
        </g>
        <g transform="matrix(24.954,0,0,24.954,65.4543,0)">
            <path d="M0.099,-0.077C0.099,-0.082 0.098,-0.084 0.098,-0.087C0.097,-0.101 0.096,-0.114 0.095,-0.128C0.094,-0.144 0.094,-0.159 0.094,-0.175C0.094,-0.187 0.095,-0.199 0.095,-0.21C0.095,-0.229 0.094,-0.248 0.094,-0.266L0.094,-0.275C0.134,-0.277 0.172,-0.28 0.211,-0.282L0.211,-0.295C0.212,-0.303 0.212,-0.312 0.212,-0.32C0.213,-0.325 0.213,-0.33 0.214,-0.336C0.214,-0.342 0.212,-0.344 0.205,-0.344C0.194,-0.343 0.182,-0.343 0.171,-0.342C0.165,-0.342 0.16,-0.341 0.154,-0.34C0.15,-0.34 0.145,-0.339 0.141,-0.338L0.096,-0.338C0.095,-0.351 0.095,-0.362 0.095,-0.374L0.095,-0.466C0.095,-0.497 0.096,-0.528 0.093,-0.558C0.091,-0.575 0.094,-0.578 0.112,-0.58C0.13,-0.583 0.149,-0.585 0.168,-0.587C0.17,-0.588 0.171,-0.587 0.173,-0.587L0.21,-0.587C0.215,-0.587 0.218,-0.59 0.217,-0.594C0.217,-0.605 0.216,-0.615 0.216,-0.626C0.216,-0.631 0.214,-0.633 0.21,-0.634C0.199,-0.636 0.187,-0.639 0.176,-0.642C0.171,-0.642 0.165,-0.641 0.16,-0.641C0.155,-0.641 0.151,-0.64 0.146,-0.64C0.119,-0.641 0.093,-0.642 0.066,-0.642C0.063,-0.642 0.061,-0.643 0.058,-0.643C0.052,-0.643 0.046,-0.643 0.04,-0.642C0.038,-0.642 0.036,-0.64 0.035,-0.639C0.033,-0.633 0.03,-0.627 0.03,-0.621C0.028,-0.595 0.027,-0.568 0.026,-0.542C0.025,-0.518 0.026,-0.493 0.026,-0.469L0.026,-0.424C0.025,-0.39 0.025,-0.356 0.025,-0.323L0.025,-0.262C0.025,-0.238 0.024,-0.215 0.025,-0.191C0.025,-0.163 0.025,-0.135 0.026,-0.107C0.026,-0.096 0.025,-0.085 0.026,-0.075C0.027,-0.058 0.028,-0.042 0.029,-0.025C0.03,-0.017 0.03,-0.016 0.039,-0.016C0.046,-0.017 0.054,-0.018 0.062,-0.018C0.078,-0.019 0.093,-0.018 0.109,-0.019C0.121,-0.02 0.134,-0.019 0.145,-0.024L0.147,-0.024C0.155,-0.019 0.164,-0.023 0.172,-0.021L0.183,-0.021C0.194,-0.022 0.206,-0.023 0.218,-0.024C0.226,-0.025 0.227,-0.026 0.227,-0.034C0.228,-0.043 0.227,-0.052 0.227,-0.06L0.227,-0.08C0.226,-0.087 0.224,-0.089 0.217,-0.088C0.208,-0.087 0.2,-0.085 0.191,-0.084C0.174,-0.082 0.158,-0.078 0.141,-0.08C0.138,-0.081 0.135,-0.08 0.131,-0.08C0.121,-0.079 0.111,-0.078 0.099,-0.077Z" style="fill:rgb(228,1,83);fill-rule:nonzero;"/>
        </g>
        <g transform="matrix(24.954,0,0,24.954,71.3684,0)">
            <path d="M0.273,-0.189L0.27,-0.189C0.27,-0.19 0.269,-0.191 0.269,-0.192C0.266,-0.202 0.263,-0.211 0.259,-0.221C0.251,-0.247 0.242,-0.273 0.233,-0.299C0.229,-0.312 0.225,-0.326 0.222,-0.34C0.217,-0.356 0.214,-0.372 0.21,-0.388C0.208,-0.399 0.205,-0.411 0.203,-0.422C0.2,-0.433 0.198,-0.444 0.196,-0.455C0.194,-0.464 0.191,-0.472 0.188,-0.481C0.183,-0.497 0.178,-0.514 0.17,-0.529C0.168,-0.531 0.167,-0.534 0.167,-0.536C0.161,-0.558 0.151,-0.578 0.142,-0.599C0.136,-0.611 0.131,-0.622 0.129,-0.635C0.128,-0.64 0.126,-0.641 0.122,-0.64C0.114,-0.639 0.106,-0.64 0.099,-0.64C0.083,-0.639 0.067,-0.639 0.051,-0.638C0.04,-0.637 0.033,-0.63 0.033,-0.619C0.031,-0.594 0.03,-0.568 0.029,-0.543C0.028,-0.499 0.028,-0.455 0.025,-0.412C0.024,-0.4 0.024,-0.389 0.024,-0.377C0.024,-0.347 0.023,-0.318 0.023,-0.288C0.023,-0.253 0.024,-0.218 0.024,-0.183C0.025,-0.145 0.025,-0.108 0.026,-0.07C0.026,-0.047 0.029,-0.023 0.031,0.002C0.048,0.002 0.065,-0.001 0.082,-0.002C0.086,-0.003 0.089,-0.005 0.092,-0.006C0.092,-0.013 0.093,-0.019 0.093,-0.024C0.093,-0.028 0.092,-0.032 0.092,-0.035C0.092,-0.039 0.091,-0.044 0.091,-0.048C0.092,-0.068 0.092,-0.089 0.093,-0.109C0.093,-0.11 0.093,-0.112 0.092,-0.114C0.088,-0.141 0.088,-0.168 0.088,-0.195C0.087,-0.218 0.089,-0.241 0.088,-0.264C0.088,-0.279 0.09,-0.293 0.088,-0.308C0.086,-0.32 0.089,-0.333 0.089,-0.346C0.089,-0.359 0.09,-0.371 0.09,-0.384C0.09,-0.401 0.089,-0.418 0.089,-0.435L0.089,-0.446C0.089,-0.456 0.088,-0.467 0.087,-0.478C0.087,-0.498 0.086,-0.519 0.086,-0.539C0.086,-0.541 0.087,-0.542 0.087,-0.544C0.092,-0.538 0.096,-0.532 0.098,-0.525C0.105,-0.51 0.112,-0.495 0.119,-0.479C0.123,-0.469 0.127,-0.46 0.131,-0.45C0.138,-0.431 0.144,-0.412 0.15,-0.393C0.155,-0.377 0.16,-0.361 0.164,-0.345C0.17,-0.322 0.175,-0.299 0.181,-0.276C0.189,-0.245 0.197,-0.215 0.204,-0.184C0.211,-0.161 0.216,-0.137 0.224,-0.114C0.234,-0.084 0.241,-0.052 0.25,-0.021C0.252,-0.015 0.252,-0.015 0.259,-0.016C0.269,-0.017 0.279,-0.019 0.289,-0.02C0.298,-0.021 0.308,-0.021 0.317,-0.022C0.324,-0.023 0.325,-0.024 0.325,-0.031C0.325,-0.048 0.324,-0.065 0.323,-0.082C0.323,-0.09 0.322,-0.098 0.322,-0.106C0.321,-0.116 0.321,-0.126 0.321,-0.136C0.321,-0.145 0.321,-0.155 0.322,-0.165C0.322,-0.176 0.323,-0.187 0.323,-0.197C0.323,-0.213 0.322,-0.229 0.324,-0.244C0.326,-0.273 0.325,-0.301 0.325,-0.33C0.324,-0.342 0.324,-0.355 0.325,-0.367C0.328,-0.395 0.331,-0.421 0.329,-0.449C0.328,-0.471 0.329,-0.494 0.329,-0.516C0.329,-0.532 0.33,-0.547 0.33,-0.562C0.33,-0.588 0.325,-0.614 0.322,-0.639C0.322,-0.644 0.318,-0.647 0.313,-0.645C0.307,-0.644 0.3,-0.642 0.294,-0.641C0.287,-0.639 0.279,-0.639 0.272,-0.639C0.272,-0.636 0.271,-0.634 0.271,-0.632C0.272,-0.612 0.267,-0.592 0.268,-0.572C0.269,-0.561 0.267,-0.55 0.267,-0.539C0.268,-0.513 0.268,-0.487 0.268,-0.461C0.269,-0.452 0.267,-0.442 0.267,-0.432C0.267,-0.419 0.268,-0.405 0.268,-0.391C0.269,-0.37 0.269,-0.35 0.269,-0.329C0.27,-0.31 0.271,-0.292 0.271,-0.273C0.272,-0.252 0.272,-0.232 0.273,-0.211L0.273,-0.189Z" style="fill:rgb(228,1,83);fill-rule:nonzero;"/>
        </g>
        <g transform="matrix(24.954,0,0,24.954,80.1772,0)">
            <path d="M0.024,-0.621C0.025,-0.613 0.025,-0.606 0.026,-0.599C0.026,-0.585 0.025,-0.571 0.026,-0.558C0.026,-0.529 0.025,-0.5 0.025,-0.472C0.026,-0.429 0.025,-0.385 0.025,-0.342C0.025,-0.318 0.025,-0.295 0.026,-0.272C0.026,-0.26 0.027,-0.247 0.027,-0.235C0.027,-0.224 0.026,-0.214 0.026,-0.204L0.026,-0.152C0.026,-0.132 0.025,-0.111 0.025,-0.091L0.025,-0.021C0.025,-0.021 0.026,-0.02 0.027,-0.018L0.035,-0.018C0.051,-0.019 0.066,-0.019 0.081,-0.02C0.086,-0.021 0.089,-0.023 0.089,-0.029C0.089,-0.036 0.091,-0.043 0.091,-0.05L0.091,-0.124C0.091,-0.143 0.092,-0.162 0.092,-0.181C0.092,-0.199 0.095,-0.218 0.09,-0.236C0.089,-0.239 0.09,-0.242 0.09,-0.246C0.09,-0.248 0.091,-0.25 0.091,-0.253C0.091,-0.259 0.09,-0.266 0.09,-0.273C0.09,-0.284 0.091,-0.296 0.091,-0.308C0.09,-0.327 0.089,-0.346 0.089,-0.365C0.089,-0.393 0.089,-0.421 0.09,-0.45C0.09,-0.466 0.089,-0.481 0.089,-0.497L0.089,-0.544C0.088,-0.564 0.087,-0.584 0.086,-0.604C0.085,-0.611 0.085,-0.618 0.085,-0.626C0.084,-0.632 0.083,-0.633 0.077,-0.632C0.068,-0.631 0.058,-0.63 0.049,-0.63C0.039,-0.63 0.031,-0.627 0.024,-0.621Z" style="fill:rgb(228,1,83);fill-rule:nonzero;"/>
        </g>
        <g transform="matrix(24.954,0,0,24.954,83.022,0)">
            <path d="M0.216,-0.161L0.214,-0.161L0.214,-0.138C0.214,-0.131 0.213,-0.125 0.212,-0.118C0.207,-0.094 0.184,-0.081 0.16,-0.088C0.156,-0.089 0.152,-0.091 0.148,-0.092C0.137,-0.095 0.129,-0.101 0.123,-0.11C0.113,-0.124 0.108,-0.14 0.106,-0.157C0.105,-0.166 0.104,-0.175 0.104,-0.184C0.101,-0.21 0.098,-0.237 0.097,-0.263C0.096,-0.292 0.092,-0.321 0.09,-0.351C0.089,-0.367 0.089,-0.382 0.089,-0.398C0.089,-0.41 0.09,-0.421 0.089,-0.433C0.087,-0.458 0.087,-0.484 0.091,-0.509C0.092,-0.517 0.094,-0.526 0.097,-0.534C0.101,-0.546 0.108,-0.557 0.121,-0.562C0.137,-0.569 0.154,-0.576 0.172,-0.574C0.179,-0.574 0.186,-0.572 0.19,-0.567C0.196,-0.557 0.203,-0.546 0.204,-0.534C0.207,-0.51 0.209,-0.486 0.212,-0.462C0.213,-0.455 0.213,-0.454 0.22,-0.454C0.233,-0.454 0.247,-0.454 0.26,-0.455C0.265,-0.455 0.269,-0.457 0.27,-0.463C0.271,-0.474 0.273,-0.485 0.273,-0.497C0.273,-0.515 0.272,-0.534 0.272,-0.552C0.271,-0.577 0.264,-0.599 0.245,-0.617C0.241,-0.621 0.237,-0.624 0.233,-0.626C0.219,-0.633 0.206,-0.64 0.192,-0.644C0.17,-0.652 0.149,-0.654 0.126,-0.649C0.112,-0.647 0.099,-0.64 0.086,-0.633C0.078,-0.629 0.069,-0.624 0.063,-0.617C0.053,-0.604 0.043,-0.59 0.038,-0.573C0.027,-0.537 0.022,-0.499 0.021,-0.461C0.021,-0.441 0.022,-0.421 0.022,-0.401C0.022,-0.39 0.025,-0.384 0.025,-0.368C0.025,-0.367 0.026,-0.365 0.026,-0.364C0.027,-0.342 0.028,-0.319 0.028,-0.297C0.028,-0.28 0.026,-0.262 0.026,-0.245C0.025,-0.211 0.028,-0.178 0.03,-0.144C0.031,-0.119 0.036,-0.096 0.049,-0.075C0.06,-0.055 0.072,-0.036 0.094,-0.028C0.098,-0.027 0.101,-0.024 0.105,-0.023C0.114,-0.018 0.123,-0.014 0.134,-0.014C0.139,-0.014 0.145,-0.013 0.15,-0.012C0.159,-0.011 0.167,-0.011 0.176,-0.014C0.181,-0.016 0.187,-0.019 0.193,-0.021C0.219,-0.027 0.238,-0.044 0.253,-0.063C0.266,-0.081 0.273,-0.102 0.274,-0.125C0.276,-0.153 0.271,-0.18 0.269,-0.208C0.269,-0.212 0.267,-0.214 0.263,-0.214C0.26,-0.214 0.257,-0.213 0.255,-0.213C0.245,-0.211 0.234,-0.208 0.224,-0.207C0.219,-0.206 0.216,-0.204 0.216,-0.199L0.216,-0.161Z" style="fill:rgb(228,1,83);fill-rule:nonzero;"/>
        </g>
        <g transform="matrix(24.954,0,0,24.954,90.3584,0)">
            <path d="M0.34,-0.351L0.34,-0.46C0.339,-0.48 0.337,-0.5 0.336,-0.52C0.335,-0.542 0.33,-0.563 0.323,-0.584C0.322,-0.588 0.32,-0.591 0.318,-0.594C0.314,-0.601 0.309,-0.608 0.305,-0.614C0.298,-0.624 0.289,-0.631 0.279,-0.636C0.258,-0.648 0.235,-0.653 0.211,-0.659C0.197,-0.663 0.184,-0.66 0.17,-0.659C0.168,-0.659 0.166,-0.659 0.165,-0.658C0.161,-0.654 0.156,-0.654 0.151,-0.654C0.137,-0.652 0.121,-0.652 0.107,-0.647C0.099,-0.645 0.091,-0.642 0.086,-0.635C0.079,-0.622 0.071,-0.611 0.067,-0.598C0.057,-0.572 0.049,-0.546 0.046,-0.519C0.043,-0.501 0.041,-0.483 0.039,-0.464C0.038,-0.446 0.036,-0.428 0.034,-0.41C0.033,-0.397 0.032,-0.384 0.031,-0.371C0.029,-0.341 0.026,-0.311 0.024,-0.281C0.023,-0.25 0.023,-0.219 0.022,-0.188C0.022,-0.166 0.021,-0.143 0.02,-0.121C0.02,-0.095 0.022,-0.071 0.029,-0.047C0.032,-0.037 0.035,-0.029 0.044,-0.022C0.058,-0.012 0.073,-0.006 0.089,-0.004C0.107,-0.001 0.125,-0.001 0.144,0.001C0.149,0.001 0.154,0.002 0.159,0.002C0.175,0.001 0.19,-0.001 0.206,-0.002C0.22,-0.002 0.234,-0.004 0.247,-0.008C0.257,-0.011 0.267,-0.015 0.275,-0.021C0.289,-0.032 0.299,-0.047 0.306,-0.064C0.316,-0.089 0.321,-0.116 0.327,-0.143C0.333,-0.17 0.333,-0.199 0.335,-0.227C0.336,-0.243 0.334,-0.259 0.336,-0.275C0.337,-0.279 0.337,-0.283 0.338,-0.287C0.338,-0.308 0.339,-0.329 0.34,-0.351ZM0.188,-0.608C0.192,-0.607 0.197,-0.604 0.201,-0.603C0.211,-0.599 0.217,-0.597 0.227,-0.593C0.241,-0.587 0.25,-0.575 0.259,-0.563C0.269,-0.551 0.275,-0.536 0.278,-0.52C0.281,-0.501 0.284,-0.482 0.286,-0.463C0.288,-0.448 0.289,-0.433 0.29,-0.418C0.291,-0.4 0.291,-0.382 0.291,-0.364C0.291,-0.339 0.291,-0.313 0.289,-0.287C0.289,-0.275 0.286,-0.263 0.285,-0.25C0.284,-0.24 0.283,-0.23 0.282,-0.22C0.279,-0.186 0.277,-0.152 0.267,-0.119C0.264,-0.11 0.26,-0.102 0.253,-0.096C0.236,-0.079 0.216,-0.068 0.194,-0.063C0.179,-0.06 0.164,-0.059 0.149,-0.063L0.145,-0.063C0.129,-0.063 0.117,-0.071 0.103,-0.076C0.09,-0.081 0.084,-0.091 0.082,-0.104C0.081,-0.119 0.08,-0.135 0.08,-0.151L0.08,-0.216C0.08,-0.223 0.081,-0.229 0.082,-0.236C0.082,-0.248 0.082,-0.26 0.083,-0.272C0.084,-0.293 0.085,-0.314 0.086,-0.336C0.087,-0.349 0.089,-0.363 0.09,-0.377C0.092,-0.4 0.094,-0.423 0.097,-0.446C0.101,-0.476 0.105,-0.505 0.11,-0.534C0.114,-0.554 0.121,-0.574 0.131,-0.592C0.134,-0.596 0.137,-0.599 0.143,-0.6C0.151,-0.601 0.158,-0.605 0.166,-0.607C0.172,-0.608 0.179,-0.608 0.188,-0.608Z" style="fill:rgb(228,1,83);fill-rule:nonzero;"/>
        </g>
        <g transform="matrix(24.954,-1.11022e-16,0,24.954,-7.736,0)">
            <path d="M0.231,-0.629C0.229,-0.612 0.233,-0.588 0.233,-0.556C0.234,-0.518 0.235,-0.479 0.236,-0.441C0.236,-0.422 0.235,-0.403 0.235,-0.385C0.234,-0.362 0.234,-0.339 0.234,-0.316C0.233,-0.302 0.232,-0.288 0.231,-0.274C0.228,-0.246 0.225,-0.218 0.223,-0.189C0.222,-0.18 0.219,-0.171 0.219,-0.162C0.218,-0.144 0.214,-0.126 0.206,-0.11C0.199,-0.096 0.189,-0.086 0.174,-0.082C0.17,-0.081 0.166,-0.08 0.162,-0.079C0.152,-0.077 0.142,-0.076 0.134,-0.083C0.127,-0.089 0.12,-0.097 0.117,-0.106C0.112,-0.12 0.108,-0.133 0.106,-0.147C0.104,-0.161 0.104,-0.175 0.103,-0.189C0.102,-0.205 0.101,-0.221 0.101,-0.237C0.1,-0.249 0.1,-0.262 0.1,-0.275L0.1,-0.361C0.099,-0.375 0.098,-0.39 0.097,-0.404C0.097,-0.428 0.096,-0.452 0.096,-0.476C0.096,-0.499 0.095,-0.523 0.095,-0.546L0.095,-0.566C0.095,-0.583 0.095,-0.599 0.094,-0.616C0.094,-0.623 0.093,-0.623 0.086,-0.624L0.026,-0.624C0.022,-0.624 0.023,-0.62 0.023,-0.616C0.022,-0.601 0.025,-0.581 0.025,-0.564C0.024,-0.534 0.024,-0.503 0.024,-0.472C0.025,-0.433 0.026,-0.395 0.028,-0.356C0.029,-0.326 0.031,-0.295 0.032,-0.265C0.033,-0.248 0.035,-0.231 0.036,-0.214C0.036,-0.187 0.038,-0.161 0.042,-0.135C0.046,-0.112 0.051,-0.089 0.063,-0.069C0.077,-0.047 0.096,-0.034 0.12,-0.026C0.134,-0.022 0.148,-0.021 0.163,-0.02C0.192,-0.018 0.217,-0.028 0.241,-0.041C0.244,-0.042 0.246,-0.044 0.248,-0.045C0.257,-0.055 0.265,-0.065 0.271,-0.077C0.279,-0.093 0.285,-0.11 0.289,-0.128C0.296,-0.149 0.297,-0.171 0.299,-0.194C0.299,-0.199 0.299,-0.205 0.3,-0.211C0.301,-0.223 0.303,-0.234 0.304,-0.246C0.306,-0.267 0.307,-0.289 0.308,-0.31C0.31,-0.347 0.31,-0.384 0.308,-0.421C0.307,-0.441 0.308,-0.46 0.309,-0.48C0.31,-0.494 0.311,-0.509 0.312,-0.523C0.312,-0.53 0.31,-0.537 0.311,-0.544C0.312,-0.564 0.308,-0.583 0.308,-0.602C0.307,-0.611 0.305,-0.621 0.304,-0.63C0.303,-0.636 0.3,-0.637 0.294,-0.636C0.287,-0.634 0.28,-0.631 0.273,-0.631C0.26,-0.63 0.247,-0.63 0.231,-0.629Z" style="fill:rgb(228,1,83);fill-rule:nonzero;"/>
        </g>
    </g>
</svg>
