<?xml version="1.0" encoding="UTF-8" standalone="no"?>
<!DOCTYPE svg PUBLIC "-//W3C//DTD SVG 1.1//EN" "http://www.w3.org/Graphics/SVG/1.1/DTD/svg11.dtd">
<svg width="100%" height="100%" viewBox="0 0 313 112" version="1.1" xmlns="http://www.w3.org/2000/svg" xmlns:xlink="http://www.w3.org/1999/xlink" xml:space="preserve" xmlns:serif="http://www.serif.com/" style="fill-rule:evenodd;clip-rule:evenodd;stroke-linejoin:round;stroke-miterlimit:2;">
    <g transform="matrix(0.545826,-0.0526866,0.0346624,0.436617,-100.028,-16.883)">
        <path d="M746.223,129.86L176.763,116.723L179.113,314.124L726.7,314.124L746.223,129.86Z" style="fill:rgb(203,226,244);"/>
    </g>
    <g transform="matrix(1.5239,-0.147097,0.133401,1.68036,44.124,86.0826)">
        <g transform="matrix(37.079,0,0,37.079,0,0)">
            <path d="M0.273,-0.189L0.27,-0.189C0.27,-0.19 0.269,-0.191 0.269,-0.192C0.266,-0.202 0.263,-0.211 0.259,-0.221C0.251,-0.247 0.242,-0.273 0.233,-0.299C0.229,-0.312 0.225,-0.326 0.222,-0.34C0.217,-0.356 0.214,-0.372 0.21,-0.388C0.208,-0.399 0.205,-0.411 0.203,-0.422C0.2,-0.433 0.198,-0.444 0.196,-0.455C0.194,-0.464 0.191,-0.472 0.188,-0.481C0.183,-0.497 0.178,-0.514 0.17,-0.529C0.168,-0.531 0.167,-0.534 0.167,-0.536C0.161,-0.558 0.151,-0.578 0.142,-0.599C0.136,-0.611 0.131,-0.622 0.129,-0.635C0.128,-0.64 0.126,-0.641 0.122,-0.64C0.114,-0.639 0.106,-0.64 0.099,-0.64C0.083,-0.639 0.067,-0.639 0.051,-0.638C0.04,-0.637 0.033,-0.63 0.033,-0.619C0.031,-0.594 0.03,-0.568 0.029,-0.543C0.028,-0.499 0.028,-0.455 0.025,-0.412C0.024,-0.4 0.024,-0.389 0.024,-0.377C0.024,-0.347 0.023,-0.318 0.023,-0.288C0.023,-0.253 0.024,-0.218 0.024,-0.183C0.025,-0.145 0.025,-0.108 0.026,-0.07C0.026,-0.047 0.029,-0.023 0.031,0.002C0.048,0.002 0.065,-0.001 0.082,-0.002C0.086,-0.003 0.089,-0.005 0.092,-0.006C0.092,-0.013 0.093,-0.019 0.093,-0.024C0.093,-0.028 0.092,-0.032 0.092,-0.035C0.092,-0.039 0.091,-0.044 0.091,-0.048C0.092,-0.068 0.092,-0.089 0.093,-0.109C0.093,-0.11 0.093,-0.112 0.092,-0.114C0.088,-0.141 0.088,-0.168 0.088,-0.195C0.087,-0.218 0.089,-0.241 0.088,-0.264C0.088,-0.279 0.09,-0.293 0.088,-0.308C0.086,-0.32 0.089,-0.333 0.089,-0.346C0.089,-0.359 0.09,-0.371 0.09,-0.384C0.09,-0.401 0.089,-0.418 0.089,-0.435L0.089,-0.446C0.089,-0.456 0.088,-0.467 0.087,-0.478C0.087,-0.498 0.086,-0.519 0.086,-0.539C0.086,-0.541 0.087,-0.542 0.087,-0.544C0.092,-0.538 0.096,-0.532 0.098,-0.525C0.105,-0.51 0.112,-0.495 0.119,-0.479C0.123,-0.469 0.127,-0.46 0.131,-0.45C0.138,-0.431 0.144,-0.412 0.15,-0.393C0.155,-0.377 0.16,-0.361 0.164,-0.345C0.17,-0.322 0.175,-0.299 0.181,-0.276C0.189,-0.245 0.197,-0.215 0.204,-0.184C0.211,-0.161 0.216,-0.137 0.224,-0.114C0.234,-0.084 0.241,-0.052 0.25,-0.021C0.252,-0.015 0.252,-0.015 0.259,-0.016C0.269,-0.017 0.279,-0.019 0.289,-0.02C0.298,-0.021 0.308,-0.021 0.317,-0.022C0.324,-0.023 0.325,-0.024 0.325,-0.031C0.325,-0.048 0.324,-0.065 0.323,-0.082C0.323,-0.09 0.322,-0.098 0.322,-0.106C0.321,-0.116 0.321,-0.126 0.321,-0.136C0.321,-0.145 0.321,-0.155 0.322,-0.165C0.322,-0.176 0.323,-0.187 0.323,-0.197C0.323,-0.213 0.322,-0.229 0.324,-0.244C0.326,-0.273 0.325,-0.301 0.325,-0.33C0.324,-0.342 0.324,-0.355 0.325,-0.367C0.328,-0.395 0.331,-0.421 0.329,-0.449C0.328,-0.471 0.329,-0.494 0.329,-0.516C0.329,-0.532 0.33,-0.547 0.33,-0.562C0.33,-0.588 0.325,-0.614 0.322,-0.639C0.322,-0.644 0.318,-0.647 0.313,-0.645C0.307,-0.644 0.3,-0.642 0.294,-0.641C0.287,-0.639 0.279,-0.639 0.272,-0.639C0.272,-0.636 0.271,-0.634 0.271,-0.632C0.272,-0.612 0.267,-0.592 0.268,-0.572C0.269,-0.561 0.267,-0.55 0.267,-0.539C0.268,-0.513 0.268,-0.487 0.268,-0.461C0.269,-0.452 0.267,-0.442 0.267,-0.432C0.267,-0.419 0.268,-0.405 0.268,-0.391C0.269,-0.37 0.269,-0.35 0.269,-0.329C0.27,-0.31 0.271,-0.292 0.271,-0.273C0.272,-0.252 0.272,-0.232 0.273,-0.211L0.273,-0.189Z" style="fill:rgb(228,1,83);fill-rule:nonzero;"/>
        </g>
        <g transform="matrix(37.079,0,0,37.079,13.0889,0)">
            <path d="M0.234,-0.333C0.244,-0.226 0.257,-0.122 0.277,-0.018L0.305,-0.018C0.315,-0.018 0.326,-0.019 0.336,-0.019C0.343,-0.02 0.344,-0.022 0.344,-0.029C0.343,-0.043 0.341,-0.058 0.34,-0.072C0.339,-0.081 0.338,-0.091 0.337,-0.1C0.333,-0.123 0.33,-0.145 0.327,-0.167C0.323,-0.194 0.32,-0.222 0.317,-0.249C0.315,-0.268 0.312,-0.287 0.31,-0.307C0.308,-0.324 0.305,-0.342 0.303,-0.359C0.301,-0.377 0.297,-0.395 0.296,-0.412C0.296,-0.432 0.291,-0.45 0.289,-0.468C0.286,-0.488 0.281,-0.507 0.277,-0.526C0.271,-0.554 0.264,-0.583 0.258,-0.611C0.257,-0.616 0.255,-0.618 0.25,-0.619C0.24,-0.619 0.229,-0.62 0.219,-0.622C0.207,-0.624 0.195,-0.627 0.183,-0.629C0.167,-0.632 0.151,-0.635 0.134,-0.635C0.123,-0.634 0.113,-0.635 0.101,-0.635C0.1,-0.632 0.097,-0.628 0.096,-0.624C0.093,-0.613 0.09,-0.602 0.086,-0.59C0.08,-0.57 0.077,-0.549 0.075,-0.528C0.073,-0.514 0.072,-0.5 0.07,-0.485C0.067,-0.464 0.063,-0.443 0.06,-0.422C0.059,-0.414 0.057,-0.407 0.056,-0.4C0.053,-0.374 0.049,-0.348 0.046,-0.322C0.042,-0.29 0.038,-0.257 0.035,-0.224C0.032,-0.198 0.029,-0.171 0.026,-0.144C0.025,-0.138 0.025,-0.131 0.024,-0.125C0.022,-0.106 0.021,-0.087 0.019,-0.068C0.018,-0.052 0.017,-0.036 0.016,-0.02C0.02,-0.019 0.024,-0.018 0.027,-0.019C0.043,-0.02 0.059,-0.022 0.076,-0.024C0.083,-0.025 0.084,-0.026 0.084,-0.034C0.085,-0.056 0.085,-0.078 0.087,-0.1C0.088,-0.115 0.09,-0.13 0.091,-0.145C0.093,-0.159 0.097,-0.174 0.096,-0.189C0.096,-0.206 0.098,-0.223 0.099,-0.239C0.1,-0.253 0.101,-0.267 0.103,-0.28C0.104,-0.294 0.105,-0.309 0.107,-0.324C0.149,-0.329 0.191,-0.327 0.234,-0.333ZM0.135,-0.549C0.156,-0.553 0.176,-0.556 0.196,-0.556C0.207,-0.536 0.226,-0.432 0.226,-0.392C0.217,-0.391 0.207,-0.389 0.198,-0.388C0.186,-0.387 0.173,-0.388 0.161,-0.386C0.148,-0.384 0.134,-0.381 0.121,-0.379C0.119,-0.378 0.117,-0.379 0.114,-0.379C0.113,-0.38 0.113,-0.382 0.113,-0.383C0.115,-0.398 0.117,-0.413 0.119,-0.428C0.12,-0.435 0.121,-0.441 0.122,-0.447C0.124,-0.461 0.126,-0.475 0.127,-0.488C0.129,-0.505 0.131,-0.522 0.132,-0.539C0.133,-0.542 0.134,-0.546 0.135,-0.549Z" style="fill:rgb(228,1,83);fill-rule:nonzero;"/>
        </g>
        <g transform="matrix(37.079,4.44089e-16,-4.44089e-16,37.079,-11.523,-1.42109e-14)">
            <path d="M0.231,-0.629C0.229,-0.612 0.233,-0.588 0.233,-0.556C0.234,-0.518 0.235,-0.479 0.236,-0.441C0.236,-0.422 0.235,-0.403 0.235,-0.385C0.234,-0.362 0.234,-0.339 0.234,-0.316C0.233,-0.302 0.232,-0.288 0.231,-0.274C0.228,-0.246 0.225,-0.218 0.223,-0.189C0.222,-0.18 0.219,-0.171 0.219,-0.162C0.218,-0.144 0.214,-0.126 0.206,-0.11C0.199,-0.096 0.189,-0.086 0.174,-0.082C0.17,-0.081 0.166,-0.08 0.162,-0.079C0.152,-0.077 0.142,-0.076 0.134,-0.083C0.127,-0.089 0.12,-0.097 0.117,-0.106C0.112,-0.12 0.108,-0.133 0.106,-0.147C0.104,-0.161 0.104,-0.175 0.103,-0.189C0.102,-0.205 0.101,-0.221 0.101,-0.237C0.1,-0.249 0.1,-0.262 0.1,-0.275L0.1,-0.361C0.099,-0.375 0.098,-0.39 0.097,-0.404C0.097,-0.428 0.096,-0.452 0.096,-0.476C0.096,-0.499 0.095,-0.523 0.095,-0.546L0.095,-0.566C0.095,-0.583 0.095,-0.599 0.094,-0.616C0.094,-0.623 0.093,-0.623 0.086,-0.624L0.026,-0.624C0.022,-0.624 0.023,-0.62 0.023,-0.616C0.022,-0.601 0.025,-0.581 0.025,-0.564C0.024,-0.534 0.024,-0.503 0.024,-0.472C0.025,-0.433 0.026,-0.395 0.028,-0.356C0.029,-0.326 0.031,-0.295 0.032,-0.265C0.033,-0.248 0.035,-0.231 0.036,-0.214C0.036,-0.187 0.038,-0.161 0.042,-0.135C0.046,-0.112 0.051,-0.089 0.063,-0.069C0.077,-0.047 0.096,-0.034 0.12,-0.026C0.134,-0.022 0.148,-0.021 0.163,-0.02C0.192,-0.018 0.217,-0.028 0.241,-0.041C0.244,-0.042 0.246,-0.044 0.248,-0.045C0.257,-0.055 0.265,-0.065 0.271,-0.077C0.279,-0.093 0.285,-0.11 0.289,-0.128C0.296,-0.149 0.297,-0.171 0.299,-0.194C0.299,-0.199 0.299,-0.205 0.3,-0.211C0.301,-0.223 0.303,-0.234 0.304,-0.246C0.306,-0.267 0.307,-0.289 0.308,-0.31C0.31,-0.347 0.31,-0.384 0.308,-0.421C0.307,-0.441 0.308,-0.46 0.309,-0.48C0.31,-0.494 0.311,-0.509 0.312,-0.523C0.312,-0.53 0.31,-0.537 0.311,-0.544C0.312,-0.564 0.308,-0.583 0.308,-0.602C0.307,-0.611 0.305,-0.621 0.304,-0.63C0.303,-0.636 0.3,-0.637 0.294,-0.636C0.287,-0.634 0.28,-0.631 0.273,-0.631C0.26,-0.63 0.247,-0.63 0.231,-0.629Z" style="fill:rgb(228,1,83);fill-rule:nonzero;"/>
        </g>
    </g>
    <g transform="matrix(1.5239,-0.147097,0.133401,1.68036,110.783,79.6136)">
        <g transform="matrix(37.079,0,0,37.079,0,0)">
            <path d="M0.026,-0.645C0.025,-0.642 0.024,-0.639 0.023,-0.637C0.023,-0.635 0.024,-0.632 0.023,-0.63C0.023,-0.603 0.021,-0.575 0.021,-0.547C0.021,-0.519 0.022,-0.49 0.023,-0.461C0.023,-0.435 0.024,-0.41 0.026,-0.384C0.027,-0.358 0.029,-0.332 0.031,-0.306C0.032,-0.278 0.033,-0.25 0.034,-0.222C0.035,-0.193 0.036,-0.165 0.037,-0.136C0.038,-0.101 0.038,-0.066 0.039,-0.031L0.039,-0C0.041,0.001 0.043,0.001 0.045,0.001C0.061,-0 0.076,-0.001 0.092,-0.002L0.154,-0.002C0.166,-0.002 0.177,-0.003 0.189,-0.004C0.197,-0.004 0.204,-0.003 0.212,-0.004C0.219,-0.004 0.221,-0.005 0.221,-0.012C0.221,-0.026 0.221,-0.04 0.22,-0.054C0.22,-0.06 0.219,-0.065 0.218,-0.071C0.199,-0.073 0.18,-0.075 0.162,-0.076C0.143,-0.076 0.124,-0.075 0.105,-0.074C0.103,-0.084 0.102,-0.094 0.101,-0.104C0.1,-0.111 0.1,-0.119 0.1,-0.127C0.098,-0.145 0.096,-0.162 0.095,-0.18L0.095,-0.244C0.095,-0.253 0.095,-0.262 0.094,-0.27C0.092,-0.312 0.094,-0.353 0.095,-0.394C0.096,-0.404 0.097,-0.414 0.097,-0.424L0.097,-0.477C0.096,-0.505 0.098,-0.532 0.097,-0.559C0.095,-0.582 0.094,-0.605 0.093,-0.627C0.093,-0.635 0.092,-0.637 0.085,-0.637C0.077,-0.638 0.069,-0.637 0.061,-0.638C0.05,-0.64 0.038,-0.637 0.026,-0.645Z" style="fill:rgb(228,1,83);fill-rule:nonzero;"/>
        </g>
        <g transform="matrix(37.079,0,0,37.079,8.26862,0)">
            <path d="M0.234,-0.333C0.244,-0.226 0.257,-0.122 0.277,-0.018L0.305,-0.018C0.315,-0.018 0.326,-0.019 0.336,-0.019C0.343,-0.02 0.344,-0.022 0.344,-0.029C0.343,-0.043 0.341,-0.058 0.34,-0.072C0.339,-0.081 0.338,-0.091 0.337,-0.1C0.333,-0.123 0.33,-0.145 0.327,-0.167C0.323,-0.194 0.32,-0.222 0.317,-0.249C0.315,-0.268 0.312,-0.287 0.31,-0.307C0.308,-0.324 0.305,-0.342 0.303,-0.359C0.301,-0.377 0.297,-0.395 0.296,-0.412C0.296,-0.432 0.291,-0.45 0.289,-0.468C0.286,-0.488 0.281,-0.507 0.277,-0.526C0.271,-0.554 0.264,-0.583 0.258,-0.611C0.257,-0.616 0.255,-0.618 0.25,-0.619C0.24,-0.619 0.229,-0.62 0.219,-0.622C0.207,-0.624 0.195,-0.627 0.183,-0.629C0.167,-0.632 0.151,-0.635 0.134,-0.635C0.123,-0.634 0.113,-0.635 0.101,-0.635C0.1,-0.632 0.097,-0.628 0.096,-0.624C0.093,-0.613 0.09,-0.602 0.086,-0.59C0.08,-0.57 0.077,-0.549 0.075,-0.528C0.073,-0.514 0.072,-0.5 0.07,-0.485C0.067,-0.464 0.063,-0.443 0.06,-0.422C0.059,-0.414 0.057,-0.407 0.056,-0.4C0.053,-0.374 0.049,-0.348 0.046,-0.322C0.042,-0.29 0.038,-0.257 0.035,-0.224C0.032,-0.198 0.029,-0.171 0.026,-0.144C0.025,-0.138 0.025,-0.131 0.024,-0.125C0.022,-0.106 0.021,-0.087 0.019,-0.068C0.018,-0.052 0.017,-0.036 0.016,-0.02C0.02,-0.019 0.024,-0.018 0.027,-0.019C0.043,-0.02 0.059,-0.022 0.076,-0.024C0.083,-0.025 0.084,-0.026 0.084,-0.034C0.085,-0.056 0.085,-0.078 0.087,-0.1C0.088,-0.115 0.09,-0.13 0.091,-0.145C0.093,-0.159 0.097,-0.174 0.096,-0.189C0.096,-0.206 0.098,-0.223 0.099,-0.239C0.1,-0.253 0.101,-0.267 0.103,-0.28C0.104,-0.294 0.105,-0.309 0.107,-0.324C0.149,-0.329 0.191,-0.327 0.234,-0.333ZM0.135,-0.549C0.156,-0.553 0.176,-0.556 0.196,-0.556C0.207,-0.536 0.226,-0.432 0.226,-0.392C0.217,-0.391 0.207,-0.389 0.198,-0.388C0.186,-0.387 0.173,-0.388 0.161,-0.386C0.148,-0.384 0.134,-0.381 0.121,-0.379C0.119,-0.378 0.117,-0.379 0.114,-0.379C0.113,-0.38 0.113,-0.382 0.113,-0.383C0.115,-0.398 0.117,-0.413 0.119,-0.428C0.12,-0.435 0.121,-0.441 0.122,-0.447C0.124,-0.461 0.126,-0.475 0.127,-0.488C0.129,-0.505 0.131,-0.522 0.132,-0.539C0.133,-0.542 0.134,-0.546 0.135,-0.549Z" style="fill:rgb(228,1,83);fill-rule:nonzero;"/>
        </g>
        <g transform="matrix(37.079,0,0,37.079,21.58,0)">
            <path d="M0.101,-0.569C0.101,-0.541 0.102,-0.515 0.103,-0.489L0.103,-0.45C0.103,-0.435 0.103,-0.42 0.104,-0.404C0.104,-0.395 0.103,-0.385 0.104,-0.375C0.105,-0.365 0.106,-0.355 0.106,-0.344C0.105,-0.315 0.105,-0.285 0.106,-0.255C0.106,-0.233 0.107,-0.212 0.107,-0.19C0.107,-0.183 0.106,-0.175 0.106,-0.168C0.106,-0.157 0.107,-0.147 0.107,-0.136L0.107,-0.038C0.107,-0.036 0.108,-0.033 0.108,-0.031C0.109,-0.03 0.11,-0.03 0.111,-0.03C0.125,-0.03 0.138,-0.03 0.152,-0.029C0.163,-0.029 0.164,-0.031 0.167,-0.041C0.173,-0.056 0.174,-0.073 0.175,-0.089C0.175,-0.1 0.176,-0.111 0.177,-0.121C0.178,-0.133 0.179,-0.144 0.179,-0.155C0.179,-0.168 0.178,-0.181 0.178,-0.195C0.178,-0.201 0.179,-0.209 0.178,-0.215C0.178,-0.234 0.176,-0.253 0.175,-0.271C0.175,-0.279 0.175,-0.286 0.174,-0.294C0.173,-0.311 0.17,-0.329 0.169,-0.346C0.168,-0.36 0.169,-0.375 0.169,-0.389C0.169,-0.402 0.168,-0.416 0.168,-0.429C0.167,-0.441 0.167,-0.453 0.167,-0.465C0.166,-0.478 0.165,-0.492 0.164,-0.505C0.163,-0.527 0.161,-0.549 0.159,-0.571C0.161,-0.571 0.162,-0.572 0.164,-0.572C0.175,-0.572 0.188,-0.574 0.198,-0.571C0.21,-0.568 0.221,-0.572 0.232,-0.57C0.237,-0.569 0.242,-0.569 0.247,-0.568C0.255,-0.568 0.257,-0.569 0.257,-0.577L0.257,-0.59C0.258,-0.598 0.258,-0.605 0.259,-0.612C0.259,-0.617 0.258,-0.621 0.253,-0.621C0.243,-0.623 0.233,-0.625 0.223,-0.626C0.214,-0.627 0.206,-0.628 0.197,-0.629C0.183,-0.63 0.168,-0.632 0.154,-0.633C0.153,-0.634 0.152,-0.633 0.151,-0.633C0.13,-0.632 0.109,-0.63 0.088,-0.633L0.076,-0.633C0.07,-0.633 0.064,-0.632 0.059,-0.632L0.041,-0.632C0.032,-0.632 0.024,-0.629 0.016,-0.632C0.012,-0.633 0.01,-0.63 0.01,-0.627C0.009,-0.625 0.01,-0.623 0.01,-0.621C0.01,-0.604 0.009,-0.587 0.008,-0.57C0.008,-0.566 0.01,-0.564 0.013,-0.564L0.019,-0.564C0.037,-0.57 0.055,-0.57 0.073,-0.57C0.081,-0.57 0.09,-0.569 0.101,-0.569Z" style="fill:rgb(228,1,83);fill-rule:nonzero;"/>
        </g>
        <g transform="matrix(37.079,0,0,37.079,31.4801,0)">
            <path d="M0.099,-0.077C0.099,-0.082 0.098,-0.084 0.098,-0.087C0.097,-0.101 0.096,-0.114 0.095,-0.128C0.094,-0.144 0.094,-0.159 0.094,-0.175C0.094,-0.187 0.095,-0.199 0.095,-0.21C0.095,-0.229 0.094,-0.248 0.094,-0.266L0.094,-0.275C0.134,-0.277 0.172,-0.28 0.211,-0.282L0.211,-0.295C0.212,-0.303 0.212,-0.312 0.212,-0.32C0.213,-0.325 0.213,-0.33 0.214,-0.336C0.214,-0.342 0.212,-0.344 0.205,-0.344C0.194,-0.343 0.182,-0.343 0.171,-0.342C0.165,-0.342 0.16,-0.341 0.154,-0.34C0.15,-0.34 0.145,-0.339 0.141,-0.338L0.096,-0.338C0.095,-0.351 0.095,-0.362 0.095,-0.374L0.095,-0.466C0.095,-0.497 0.096,-0.528 0.093,-0.558C0.091,-0.575 0.094,-0.578 0.112,-0.58C0.13,-0.583 0.149,-0.585 0.168,-0.587C0.17,-0.588 0.171,-0.587 0.173,-0.587L0.21,-0.587C0.215,-0.587 0.218,-0.59 0.217,-0.594C0.217,-0.605 0.216,-0.615 0.216,-0.626C0.216,-0.631 0.214,-0.633 0.21,-0.634C0.199,-0.636 0.187,-0.639 0.176,-0.642C0.171,-0.642 0.165,-0.641 0.16,-0.641C0.155,-0.641 0.151,-0.64 0.146,-0.64C0.119,-0.641 0.093,-0.642 0.066,-0.642C0.063,-0.642 0.061,-0.643 0.058,-0.643C0.052,-0.643 0.046,-0.643 0.04,-0.642C0.038,-0.642 0.036,-0.64 0.035,-0.639C0.033,-0.633 0.03,-0.627 0.03,-0.621C0.028,-0.595 0.027,-0.568 0.026,-0.542C0.025,-0.518 0.026,-0.493 0.026,-0.469L0.026,-0.424C0.025,-0.39 0.025,-0.356 0.025,-0.323L0.025,-0.262C0.025,-0.238 0.024,-0.215 0.025,-0.191C0.025,-0.163 0.025,-0.135 0.026,-0.107C0.026,-0.096 0.025,-0.085 0.026,-0.075C0.027,-0.058 0.028,-0.042 0.029,-0.025C0.03,-0.017 0.03,-0.016 0.039,-0.016C0.046,-0.017 0.054,-0.018 0.062,-0.018C0.078,-0.019 0.093,-0.018 0.109,-0.019C0.121,-0.02 0.134,-0.019 0.145,-0.024L0.147,-0.024C0.155,-0.019 0.164,-0.023 0.172,-0.021L0.183,-0.021C0.194,-0.022 0.206,-0.023 0.218,-0.024C0.226,-0.025 0.227,-0.026 0.227,-0.034C0.228,-0.043 0.227,-0.052 0.227,-0.06L0.227,-0.08C0.226,-0.087 0.224,-0.089 0.217,-0.088C0.208,-0.087 0.2,-0.085 0.191,-0.084C0.174,-0.082 0.158,-0.078 0.141,-0.08C0.138,-0.081 0.135,-0.08 0.131,-0.08C0.121,-0.079 0.111,-0.078 0.099,-0.077Z" style="fill:rgb(228,1,83);fill-rule:nonzero;"/>
        </g>
        <g transform="matrix(37.079,0,0,37.079,40.2678,0)">
            <path d="M0.234,-0.333C0.244,-0.226 0.257,-0.122 0.277,-0.018L0.305,-0.018C0.315,-0.018 0.326,-0.019 0.336,-0.019C0.343,-0.02 0.344,-0.022 0.344,-0.029C0.343,-0.043 0.341,-0.058 0.34,-0.072C0.339,-0.081 0.338,-0.091 0.337,-0.1C0.333,-0.123 0.33,-0.145 0.327,-0.167C0.323,-0.194 0.32,-0.222 0.317,-0.249C0.315,-0.268 0.312,-0.287 0.31,-0.307C0.308,-0.324 0.305,-0.342 0.303,-0.359C0.301,-0.377 0.297,-0.395 0.296,-0.412C0.296,-0.432 0.291,-0.45 0.289,-0.468C0.286,-0.488 0.281,-0.507 0.277,-0.526C0.271,-0.554 0.264,-0.583 0.258,-0.611C0.257,-0.616 0.255,-0.618 0.25,-0.619C0.24,-0.619 0.229,-0.62 0.219,-0.622C0.207,-0.624 0.195,-0.627 0.183,-0.629C0.167,-0.632 0.151,-0.635 0.134,-0.635C0.123,-0.634 0.113,-0.635 0.101,-0.635C0.1,-0.632 0.097,-0.628 0.096,-0.624C0.093,-0.613 0.09,-0.602 0.086,-0.59C0.08,-0.57 0.077,-0.549 0.075,-0.528C0.073,-0.514 0.072,-0.5 0.07,-0.485C0.067,-0.464 0.063,-0.443 0.06,-0.422C0.059,-0.414 0.057,-0.407 0.056,-0.4C0.053,-0.374 0.049,-0.348 0.046,-0.322C0.042,-0.29 0.038,-0.257 0.035,-0.224C0.032,-0.198 0.029,-0.171 0.026,-0.144C0.025,-0.138 0.025,-0.131 0.024,-0.125C0.022,-0.106 0.021,-0.087 0.019,-0.068C0.018,-0.052 0.017,-0.036 0.016,-0.02C0.02,-0.019 0.024,-0.018 0.027,-0.019C0.043,-0.02 0.059,-0.022 0.076,-0.024C0.083,-0.025 0.084,-0.026 0.084,-0.034C0.085,-0.056 0.085,-0.078 0.087,-0.1C0.088,-0.115 0.09,-0.13 0.091,-0.145C0.093,-0.159 0.097,-0.174 0.096,-0.189C0.096,-0.206 0.098,-0.223 0.099,-0.239C0.1,-0.253 0.101,-0.267 0.103,-0.28C0.104,-0.294 0.105,-0.309 0.107,-0.324C0.149,-0.329 0.191,-0.327 0.234,-0.333ZM0.135,-0.549C0.156,-0.553 0.176,-0.556 0.196,-0.556C0.207,-0.536 0.226,-0.432 0.226,-0.392C0.217,-0.391 0.207,-0.389 0.198,-0.388C0.186,-0.387 0.173,-0.388 0.161,-0.386C0.148,-0.384 0.134,-0.381 0.121,-0.379C0.119,-0.378 0.117,-0.379 0.114,-0.379C0.113,-0.38 0.113,-0.382 0.113,-0.383C0.115,-0.398 0.117,-0.413 0.119,-0.428C0.12,-0.435 0.121,-0.441 0.122,-0.447C0.124,-0.461 0.126,-0.475 0.127,-0.488C0.129,-0.505 0.131,-0.522 0.132,-0.539C0.133,-0.542 0.134,-0.546 0.135,-0.549Z" style="fill:rgb(228,1,83);fill-rule:nonzero;"/>
        </g>
        <g transform="matrix(37.079,1.33227e-15,-4.44089e-16,37.079,-9.298,2.13163e-14)">
            <path d="M0.03,-0.657C0.03,-0.651 0.031,-0.646 0.029,-0.643C0.026,-0.639 0.026,-0.636 0.026,-0.632L0.026,-0.613C0.025,-0.6 0.025,-0.587 0.024,-0.574L0.024,-0.502C0.023,-0.478 0.023,-0.454 0.023,-0.43L0.023,-0.394C0.024,-0.376 0.023,-0.358 0.024,-0.339C0.024,-0.313 0.025,-0.286 0.026,-0.26L0.026,-0.181C0.027,-0.169 0.028,-0.156 0.028,-0.144C0.029,-0.104 0.029,-0.065 0.03,-0.026C0.03,-0.015 0.03,-0.004 0.033,0.008L0.039,0.008C0.051,0.006 0.063,0.004 0.075,0.002C0.098,-0.001 0.092,-0 0.095,-0.019L0.095,-0.021C0.095,-0.04 0.094,-0.059 0.094,-0.078C0.093,-0.095 0.094,-0.112 0.094,-0.129C0.093,-0.143 0.093,-0.157 0.092,-0.171L0.092,-0.18C0.093,-0.194 0.095,-0.208 0.095,-0.222C0.095,-0.246 0.094,-0.27 0.094,-0.295L0.094,-0.339C0.094,-0.349 0.092,-0.36 0.092,-0.37C0.091,-0.374 0.093,-0.377 0.098,-0.377C0.113,-0.376 0.128,-0.38 0.143,-0.383C0.152,-0.385 0.162,-0.387 0.17,-0.391C0.191,-0.399 0.211,-0.408 0.231,-0.418C0.247,-0.425 0.258,-0.436 0.262,-0.453C0.269,-0.483 0.269,-0.513 0.267,-0.543C0.266,-0.551 0.266,-0.558 0.265,-0.565C0.262,-0.578 0.259,-0.591 0.256,-0.604C0.253,-0.618 0.246,-0.63 0.237,-0.642C0.229,-0.651 0.219,-0.659 0.206,-0.662C0.19,-0.666 0.175,-0.669 0.159,-0.671C0.136,-0.673 0.113,-0.67 0.091,-0.669C0.087,-0.669 0.083,-0.667 0.079,-0.666C0.078,-0.665 0.076,-0.664 0.075,-0.665C0.062,-0.667 0.049,-0.66 0.036,-0.66C0.034,-0.659 0.031,-0.658 0.03,-0.657ZM0.087,-0.444C0.082,-0.5 0.082,-0.554 0.08,-0.609C0.089,-0.615 0.098,-0.616 0.108,-0.617C0.126,-0.618 0.143,-0.619 0.16,-0.614C0.182,-0.607 0.196,-0.592 0.2,-0.569C0.202,-0.558 0.203,-0.546 0.204,-0.535C0.206,-0.513 0.201,-0.493 0.19,-0.475C0.183,-0.463 0.172,-0.455 0.158,-0.452C0.14,-0.449 0.123,-0.447 0.105,-0.444C0.099,-0.443 0.094,-0.444 0.087,-0.444Z" style="fill:rgb(228,1,83);fill-rule:nonzero;"/>
        </g>
    </g>
    <g transform="matrix(1.5239,-0.147097,0.133401,1.68036,219.032,67.0334)">
        <g transform="matrix(37.079,0,0,37.079,0,0)">
            <path d="M0.231,-0.629C0.229,-0.612 0.233,-0.588 0.233,-0.556C0.234,-0.518 0.235,-0.479 0.236,-0.441C0.236,-0.422 0.235,-0.403 0.235,-0.385C0.234,-0.362 0.234,-0.339 0.234,-0.316C0.233,-0.302 0.232,-0.288 0.231,-0.274C0.228,-0.246 0.225,-0.218 0.223,-0.189C0.222,-0.18 0.219,-0.171 0.219,-0.162C0.218,-0.144 0.214,-0.126 0.206,-0.11C0.199,-0.096 0.189,-0.086 0.174,-0.082C0.17,-0.081 0.166,-0.08 0.162,-0.079C0.152,-0.077 0.142,-0.076 0.134,-0.083C0.127,-0.089 0.12,-0.097 0.117,-0.106C0.112,-0.12 0.108,-0.133 0.106,-0.147C0.104,-0.161 0.104,-0.175 0.103,-0.189C0.102,-0.205 0.101,-0.221 0.101,-0.237C0.1,-0.249 0.1,-0.262 0.1,-0.275L0.1,-0.361C0.099,-0.375 0.098,-0.39 0.097,-0.404C0.097,-0.428 0.096,-0.452 0.096,-0.476C0.096,-0.499 0.095,-0.523 0.095,-0.546L0.095,-0.566C0.095,-0.583 0.095,-0.599 0.094,-0.616C0.094,-0.623 0.093,-0.623 0.086,-0.624L0.026,-0.624C0.022,-0.624 0.023,-0.62 0.023,-0.616C0.022,-0.601 0.025,-0.581 0.025,-0.564C0.024,-0.534 0.024,-0.503 0.024,-0.472C0.025,-0.433 0.026,-0.395 0.028,-0.356C0.029,-0.326 0.031,-0.295 0.032,-0.265C0.033,-0.248 0.035,-0.231 0.036,-0.214C0.036,-0.187 0.038,-0.161 0.042,-0.135C0.046,-0.112 0.051,-0.089 0.063,-0.069C0.077,-0.047 0.096,-0.034 0.12,-0.026C0.134,-0.022 0.148,-0.021 0.163,-0.02C0.192,-0.018 0.217,-0.028 0.241,-0.041C0.244,-0.042 0.246,-0.044 0.248,-0.045C0.257,-0.055 0.265,-0.065 0.271,-0.077C0.279,-0.093 0.285,-0.11 0.289,-0.128C0.296,-0.149 0.297,-0.171 0.299,-0.194C0.299,-0.199 0.299,-0.205 0.3,-0.211C0.301,-0.223 0.303,-0.234 0.304,-0.246C0.306,-0.267 0.307,-0.289 0.308,-0.31C0.31,-0.347 0.31,-0.384 0.308,-0.421C0.307,-0.441 0.308,-0.46 0.309,-0.48C0.31,-0.494 0.311,-0.509 0.312,-0.523C0.312,-0.53 0.31,-0.537 0.311,-0.544C0.312,-0.564 0.308,-0.583 0.308,-0.602C0.307,-0.611 0.305,-0.621 0.304,-0.63C0.303,-0.636 0.3,-0.637 0.294,-0.636C0.287,-0.634 0.28,-0.631 0.273,-0.631C0.26,-0.63 0.247,-0.63 0.231,-0.629Z" style="fill:rgb(228,1,83);fill-rule:nonzero;"/>
        </g>
        <g transform="matrix(37.079,0,0,37.079,12.3102,0)">
            <path d="M0.34,-0.351L0.34,-0.46C0.339,-0.48 0.337,-0.5 0.336,-0.52C0.335,-0.542 0.33,-0.563 0.323,-0.584C0.322,-0.588 0.32,-0.591 0.318,-0.594C0.314,-0.601 0.309,-0.608 0.305,-0.614C0.298,-0.624 0.289,-0.631 0.279,-0.636C0.258,-0.648 0.235,-0.653 0.211,-0.659C0.197,-0.663 0.184,-0.66 0.17,-0.659C0.168,-0.659 0.166,-0.659 0.165,-0.658C0.161,-0.654 0.156,-0.654 0.151,-0.654C0.137,-0.652 0.121,-0.652 0.107,-0.647C0.099,-0.645 0.091,-0.642 0.086,-0.635C0.079,-0.622 0.071,-0.611 0.067,-0.598C0.057,-0.572 0.049,-0.546 0.046,-0.519C0.043,-0.501 0.041,-0.483 0.039,-0.464C0.038,-0.446 0.036,-0.428 0.034,-0.41C0.033,-0.397 0.032,-0.384 0.031,-0.371C0.029,-0.341 0.026,-0.311 0.024,-0.281C0.023,-0.25 0.023,-0.219 0.022,-0.188C0.022,-0.166 0.021,-0.143 0.02,-0.121C0.02,-0.095 0.022,-0.071 0.029,-0.047C0.032,-0.037 0.035,-0.029 0.044,-0.022C0.058,-0.012 0.073,-0.006 0.089,-0.004C0.107,-0.001 0.125,-0.001 0.144,0.001C0.149,0.001 0.154,0.002 0.159,0.002C0.175,0.001 0.19,-0.001 0.206,-0.002C0.22,-0.002 0.234,-0.004 0.247,-0.008C0.257,-0.011 0.267,-0.015 0.275,-0.021C0.289,-0.032 0.299,-0.047 0.306,-0.064C0.316,-0.089 0.321,-0.116 0.327,-0.143C0.333,-0.17 0.333,-0.199 0.335,-0.227C0.336,-0.243 0.334,-0.259 0.336,-0.275C0.337,-0.279 0.337,-0.283 0.338,-0.287C0.338,-0.308 0.339,-0.329 0.34,-0.351ZM0.188,-0.608C0.192,-0.607 0.197,-0.604 0.201,-0.603C0.211,-0.599 0.217,-0.597 0.227,-0.593C0.241,-0.587 0.25,-0.575 0.259,-0.563C0.269,-0.551 0.275,-0.536 0.278,-0.52C0.281,-0.501 0.284,-0.482 0.286,-0.463C0.288,-0.448 0.289,-0.433 0.29,-0.418C0.291,-0.4 0.291,-0.382 0.291,-0.364C0.291,-0.339 0.291,-0.313 0.289,-0.287C0.289,-0.275 0.286,-0.263 0.285,-0.25C0.284,-0.24 0.283,-0.23 0.282,-0.22C0.279,-0.186 0.277,-0.152 0.267,-0.119C0.264,-0.11 0.26,-0.102 0.253,-0.096C0.236,-0.079 0.216,-0.068 0.194,-0.063C0.179,-0.06 0.164,-0.059 0.149,-0.063L0.145,-0.063C0.129,-0.063 0.117,-0.071 0.103,-0.076C0.09,-0.081 0.084,-0.091 0.082,-0.104C0.081,-0.119 0.08,-0.135 0.08,-0.151L0.08,-0.216C0.08,-0.223 0.081,-0.229 0.082,-0.236C0.082,-0.248 0.082,-0.26 0.083,-0.272C0.084,-0.293 0.085,-0.314 0.086,-0.336C0.087,-0.349 0.089,-0.363 0.09,-0.377C0.092,-0.4 0.094,-0.423 0.097,-0.446C0.101,-0.476 0.105,-0.505 0.11,-0.534C0.114,-0.554 0.121,-0.574 0.131,-0.592C0.134,-0.596 0.137,-0.599 0.143,-0.6C0.151,-0.601 0.158,-0.605 0.166,-0.607C0.172,-0.608 0.179,-0.608 0.188,-0.608Z" style="fill:rgb(228,1,83);fill-rule:nonzero;"/>
        </g>
        <g transform="matrix(37.079,0,0,37.079,25.6587,0)">
            <path d="M0.101,-0.569C0.101,-0.541 0.102,-0.515 0.103,-0.489L0.103,-0.45C0.103,-0.435 0.103,-0.42 0.104,-0.404C0.104,-0.395 0.103,-0.385 0.104,-0.375C0.105,-0.365 0.106,-0.355 0.106,-0.344C0.105,-0.315 0.105,-0.285 0.106,-0.255C0.106,-0.233 0.107,-0.212 0.107,-0.19C0.107,-0.183 0.106,-0.175 0.106,-0.168C0.106,-0.157 0.107,-0.147 0.107,-0.136L0.107,-0.038C0.107,-0.036 0.108,-0.033 0.108,-0.031C0.109,-0.03 0.11,-0.03 0.111,-0.03C0.125,-0.03 0.138,-0.03 0.152,-0.029C0.163,-0.029 0.164,-0.031 0.167,-0.041C0.173,-0.056 0.174,-0.073 0.175,-0.089C0.175,-0.1 0.176,-0.111 0.177,-0.121C0.178,-0.133 0.179,-0.144 0.179,-0.155C0.179,-0.168 0.178,-0.181 0.178,-0.195C0.178,-0.201 0.179,-0.209 0.178,-0.215C0.178,-0.234 0.176,-0.253 0.175,-0.271C0.175,-0.279 0.175,-0.286 0.174,-0.294C0.173,-0.311 0.17,-0.329 0.169,-0.346C0.168,-0.36 0.169,-0.375 0.169,-0.389C0.169,-0.402 0.168,-0.416 0.168,-0.429C0.167,-0.441 0.167,-0.453 0.167,-0.465C0.166,-0.478 0.165,-0.492 0.164,-0.505C0.163,-0.527 0.161,-0.549 0.159,-0.571C0.161,-0.571 0.162,-0.572 0.164,-0.572C0.175,-0.572 0.188,-0.574 0.198,-0.571C0.21,-0.568 0.221,-0.572 0.232,-0.57C0.237,-0.569 0.242,-0.569 0.247,-0.568C0.255,-0.568 0.257,-0.569 0.257,-0.577L0.257,-0.59C0.258,-0.598 0.258,-0.605 0.259,-0.612C0.259,-0.617 0.258,-0.621 0.253,-0.621C0.243,-0.623 0.233,-0.625 0.223,-0.626C0.214,-0.627 0.206,-0.628 0.197,-0.629C0.183,-0.63 0.168,-0.632 0.154,-0.633C0.153,-0.634 0.152,-0.633 0.151,-0.633C0.13,-0.632 0.109,-0.63 0.088,-0.633L0.076,-0.633C0.07,-0.633 0.064,-0.632 0.059,-0.632L0.041,-0.632C0.032,-0.632 0.024,-0.629 0.016,-0.632C0.012,-0.633 0.01,-0.63 0.01,-0.627C0.009,-0.625 0.01,-0.623 0.01,-0.621C0.01,-0.604 0.009,-0.587 0.008,-0.57C0.008,-0.566 0.01,-0.564 0.013,-0.564L0.019,-0.564C0.037,-0.57 0.055,-0.57 0.073,-0.57C0.081,-0.57 0.09,-0.569 0.101,-0.569Z" style="fill:rgb(228,1,83);fill-rule:nonzero;"/>
        </g>
        <g transform="matrix(37.079,0,0,37.079,35.5588,0)">
            <path d="M0.234,-0.333C0.244,-0.226 0.257,-0.122 0.277,-0.018L0.305,-0.018C0.315,-0.018 0.326,-0.019 0.336,-0.019C0.343,-0.02 0.344,-0.022 0.344,-0.029C0.343,-0.043 0.341,-0.058 0.34,-0.072C0.339,-0.081 0.338,-0.091 0.337,-0.1C0.333,-0.123 0.33,-0.145 0.327,-0.167C0.323,-0.194 0.32,-0.222 0.317,-0.249C0.315,-0.268 0.312,-0.287 0.31,-0.307C0.308,-0.324 0.305,-0.342 0.303,-0.359C0.301,-0.377 0.297,-0.395 0.296,-0.412C0.296,-0.432 0.291,-0.45 0.289,-0.468C0.286,-0.488 0.281,-0.507 0.277,-0.526C0.271,-0.554 0.264,-0.583 0.258,-0.611C0.257,-0.616 0.255,-0.618 0.25,-0.619C0.24,-0.619 0.229,-0.62 0.219,-0.622C0.207,-0.624 0.195,-0.627 0.183,-0.629C0.167,-0.632 0.151,-0.635 0.134,-0.635C0.123,-0.634 0.113,-0.635 0.101,-0.635C0.1,-0.632 0.097,-0.628 0.096,-0.624C0.093,-0.613 0.09,-0.602 0.086,-0.59C0.08,-0.57 0.077,-0.549 0.075,-0.528C0.073,-0.514 0.072,-0.5 0.07,-0.485C0.067,-0.464 0.063,-0.443 0.06,-0.422C0.059,-0.414 0.057,-0.407 0.056,-0.4C0.053,-0.374 0.049,-0.348 0.046,-0.322C0.042,-0.29 0.038,-0.257 0.035,-0.224C0.032,-0.198 0.029,-0.171 0.026,-0.144C0.025,-0.138 0.025,-0.131 0.024,-0.125C0.022,-0.106 0.021,-0.087 0.019,-0.068C0.018,-0.052 0.017,-0.036 0.016,-0.02C0.02,-0.019 0.024,-0.018 0.027,-0.019C0.043,-0.02 0.059,-0.022 0.076,-0.024C0.083,-0.025 0.084,-0.026 0.084,-0.034C0.085,-0.056 0.085,-0.078 0.087,-0.1C0.088,-0.115 0.09,-0.13 0.091,-0.145C0.093,-0.159 0.097,-0.174 0.096,-0.189C0.096,-0.206 0.098,-0.223 0.099,-0.239C0.1,-0.253 0.101,-0.267 0.103,-0.28C0.104,-0.294 0.105,-0.309 0.107,-0.324C0.149,-0.329 0.191,-0.327 0.234,-0.333ZM0.135,-0.549C0.156,-0.553 0.176,-0.556 0.196,-0.556C0.207,-0.536 0.226,-0.432 0.226,-0.392C0.217,-0.391 0.207,-0.389 0.198,-0.388C0.186,-0.387 0.173,-0.388 0.161,-0.386C0.148,-0.384 0.134,-0.381 0.121,-0.379C0.119,-0.378 0.117,-0.379 0.114,-0.379C0.113,-0.38 0.113,-0.382 0.113,-0.383C0.115,-0.398 0.117,-0.413 0.119,-0.428C0.12,-0.435 0.121,-0.441 0.122,-0.447C0.124,-0.461 0.126,-0.475 0.127,-0.488C0.129,-0.505 0.131,-0.522 0.132,-0.539C0.133,-0.542 0.134,-0.546 0.135,-0.549Z" style="fill:rgb(228,1,83);fill-rule:nonzero;"/>
        </g>
        <g transform="matrix(37.079,4.44089e-16,-4.44089e-16,37.079,-12.042,-7.10543e-15)">
            <path d="M0.277,-0.613C0.277,-0.611 0.276,-0.609 0.276,-0.608C0.275,-0.58 0.27,-0.554 0.265,-0.527C0.262,-0.514 0.26,-0.502 0.258,-0.489C0.256,-0.474 0.255,-0.458 0.253,-0.443C0.251,-0.432 0.248,-0.42 0.247,-0.408C0.244,-0.39 0.243,-0.372 0.24,-0.354C0.238,-0.338 0.235,-0.323 0.232,-0.307C0.23,-0.298 0.227,-0.289 0.225,-0.28C0.222,-0.267 0.219,-0.253 0.216,-0.239C0.21,-0.215 0.204,-0.19 0.198,-0.166C0.196,-0.155 0.191,-0.145 0.191,-0.134C0.191,-0.127 0.187,-0.121 0.185,-0.115C0.184,-0.114 0.182,-0.114 0.181,-0.113C0.179,-0.118 0.177,-0.123 0.176,-0.129C0.173,-0.145 0.17,-0.162 0.167,-0.179C0.163,-0.206 0.158,-0.233 0.155,-0.26C0.151,-0.283 0.149,-0.306 0.146,-0.329C0.145,-0.339 0.144,-0.35 0.142,-0.36C0.138,-0.378 0.134,-0.396 0.13,-0.415C0.127,-0.428 0.125,-0.441 0.122,-0.454C0.118,-0.469 0.114,-0.485 0.11,-0.5C0.106,-0.516 0.102,-0.532 0.097,-0.548C0.093,-0.563 0.088,-0.578 0.084,-0.594C0.08,-0.606 0.078,-0.619 0.074,-0.634C0.063,-0.634 0.051,-0.635 0.039,-0.635C0.031,-0.635 0.024,-0.634 0.016,-0.633C0.01,-0.632 0.01,-0.632 0.01,-0.626C0.01,-0.624 0.011,-0.622 0.011,-0.62C0.016,-0.598 0.022,-0.577 0.026,-0.555C0.031,-0.528 0.035,-0.501 0.041,-0.474C0.045,-0.447 0.051,-0.42 0.057,-0.393C0.06,-0.377 0.064,-0.362 0.068,-0.346C0.078,-0.298 0.089,-0.25 0.1,-0.201C0.107,-0.167 0.114,-0.133 0.122,-0.099C0.13,-0.067 0.138,-0.036 0.146,-0.005C0.148,-0.004 0.149,-0.004 0.15,-0.004C0.167,-0.006 0.183,-0.008 0.2,-0.01C0.202,-0.011 0.204,-0.012 0.205,-0.014C0.211,-0.022 0.217,-0.031 0.22,-0.04C0.226,-0.058 0.231,-0.077 0.236,-0.095C0.24,-0.109 0.244,-0.123 0.247,-0.138C0.25,-0.157 0.255,-0.176 0.262,-0.194C0.266,-0.207 0.27,-0.221 0.273,-0.234C0.276,-0.247 0.278,-0.259 0.281,-0.272C0.284,-0.289 0.287,-0.307 0.29,-0.324C0.294,-0.345 0.299,-0.365 0.304,-0.385C0.308,-0.405 0.312,-0.425 0.315,-0.445C0.317,-0.462 0.318,-0.478 0.322,-0.494C0.324,-0.499 0.325,-0.504 0.326,-0.509C0.328,-0.529 0.33,-0.55 0.332,-0.57C0.333,-0.583 0.334,-0.596 0.334,-0.608C0.334,-0.614 0.332,-0.615 0.327,-0.615C0.313,-0.615 0.299,-0.612 0.285,-0.614C0.283,-0.615 0.281,-0.614 0.277,-0.613Z" style="fill:rgb(228,1,83);fill-rule:nonzero;"/>
        </g>
    </g>
</svg>
