<?xml version="1.0" encoding="utf-8"?>
<!-- Generator: Adobe Illustrator 24.0.1, SVG Export Plug-In . SVG Version: 6.00 Build 0)  -->
<svg version="1.1" id="Guide_per_Facebook" xmlns="http://www.w3.org/2000/svg" xmlns:xlink="http://www.w3.org/1999/xlink" x="0px"
	 y="0px" viewBox="0 0 180 180" style="enable-background:new 0 0 180 180;" xml:space="preserve">
<style type="text/css">
	.st0{fill:#E40053;}
</style>
<g>
	<path class="st0" d="M90,41.71c15.73,0,17.59,0.06,23.8,0.34c5.74,0.26,8.86,1.22,10.94,2.03c2.75,1.07,4.71,2.34,6.77,4.41
		c2.06,2.06,3.34,4.02,4.41,6.77c0.81,2.08,1.77,5.19,2.03,10.94c0.28,6.21,0.34,8.07,0.34,23.8s-0.06,17.59-0.34,23.8
		c-0.26,5.74-1.22,8.86-2.03,10.94c-1.07,2.75-2.34,4.71-4.41,6.77c-2.06,2.06-4.02,3.34-6.77,4.41c-2.08,0.81-5.19,1.77-10.94,2.03
		c-6.21,0.28-8.07,0.34-23.8,0.34s-17.59-0.06-23.8-0.34c-5.74-0.26-8.86-1.22-10.94-2.03c-2.75-1.07-4.71-2.34-6.77-4.41
		c-2.06-2.06-3.34-4.02-4.41-6.77c-0.81-2.08-1.77-5.19-2.03-10.94c-0.28-6.21-0.34-8.07-0.34-23.8s0.06-17.59,0.34-23.8
		c0.26-5.74,1.22-8.86,2.03-10.94c1.07-2.75,2.34-4.71,4.41-6.77c2.06-2.06,4.02-3.34,6.77-4.41c2.08-0.81,5.19-1.77,10.94-2.03
		C72.41,41.77,74.27,41.71,90,41.71 M90,31.1c-16,0-18,0.07-24.28,0.35c-6.27,0.29-10.55,1.28-14.3,2.74
		c-3.87,1.51-7.16,3.52-10.43,6.79c-3.27,3.27-5.29,6.56-6.79,10.43c-1.46,3.75-2.45,8.03-2.74,14.3C31.17,72,31.1,74,31.1,90
		c0,16,0.07,18,0.35,24.28c0.29,6.27,1.28,10.55,2.74,14.3c1.51,3.87,3.52,7.16,6.79,10.43c3.27,3.27,6.56,5.29,10.43,6.79
		c3.75,1.46,8.03,2.45,14.3,2.74C72,148.83,74,148.9,90,148.9s18-0.07,24.28-0.35c6.27-0.29,10.55-1.28,14.3-2.74
		c3.87-1.51,7.16-3.52,10.43-6.79c3.27-3.27,5.29-6.56,6.79-10.43c1.46-3.75,2.45-8.03,2.74-14.3C148.83,108,148.9,106,148.9,90
		s-0.07-18-0.35-24.28c-0.29-6.27-1.28-10.55-2.74-14.3c-1.51-3.87-3.52-7.16-6.79-10.43c-3.27-3.27-6.56-5.29-10.43-6.79
		c-3.75-1.46-8.03-2.45-14.3-2.74C108,31.17,106,31.1,90,31.1L90,31.1z"/>
	<path class="st0" d="M90,59.75C73.3,59.75,59.75,73.3,59.75,90S73.3,120.25,90,120.25S120.25,106.7,120.25,90S106.7,59.75,90,59.75
		z M90,109.63c-10.84,0-19.63-8.79-19.63-19.63c0-10.84,8.79-19.63,19.63-19.63c10.84,0,19.63,8.79,19.63,19.63
		C109.63,100.84,100.84,109.63,90,109.63z"/>
	<circle class="st0" cx="121.44" cy="58.56" r="7.07"/>
</g>
</svg>
