<svg id="Guide_per_Facebook" data-name="Guide per Facebook" xmlns="http://www.w3.org/2000/svg" viewBox="0 0 130.53 107.43"><defs><style>.cls-1{fill:#f9c29d;}.cls-2{fill:#0088b4;}.cls-3,.cls-5{fill:#bfb13c;}.cls-4{fill:#e40053;}.cls-5{stroke:#bfb13c;stroke-linecap:round;stroke-linejoin:round;}.cls-6{fill:#192a48;}</style></defs><title>poltrona</title><path class="cls-1" d="M37.16,86.36s-7.1-40,8.05-45,85.62-11.27,96.2,7.75-6,48.62-6,48.62l-8.81,9.16L87.85,123.14,48.75,115,35.66,104.82Z" transform="translate(-23.74 -36.29)"/><path class="cls-2" d="M35,143.71h2.54a1.78,1.78,0,0,0,1.66-1.13l5.11-13-13.44-2.28,2.38,15A1.77,1.77,0,0,0,35,143.71Z" transform="translate(-23.74 -36.29)"/><path class="cls-2" d="M144.74,143.71H142.2a1.75,1.75,0,0,1-1.65-1.13l-5.11-13,13.44-2.28-2.38,15A1.78,1.78,0,0,1,144.74,143.71Z" transform="translate(-23.74 -36.29)"/><path class="cls-3" d="M51,103.7c.4-.27,44.49-10.84,76-1.16.14,13.59,0,23.27,0,23.27s-19.49.67-35.39,1.45c-12,.6-41.23,1.55-41.36-.5S51,103.7,51,103.7Z" transform="translate(-23.74 -36.29)"/><path class="cls-4" d="M33.45,128.2c-3.12-.78-5.83-2.34-6.7-5.76-2.19-8.62-5.36-25-.31-31.46,6.57-8.34,9.6-8.6,13.9-8.09s14.91,5.56,13.14,21.23c-.63,5.6,1.28,20.16-4,23.54-2.56,1.64-5.81,1.71-8.85,1.46A45.26,45.26,0,0,1,33.45,128.2Z" transform="translate(-23.74 -36.29)"/><path class="cls-4" d="M146.37,128.77c4.68-1.47,5.68-6.29,6.84-13.06,1.31-7.68,1.9-14.29-1.3-22.92-3.68-10-10.22-10.41-14.52-9.9s-14.91,5.56-13.14,21.23c.67,6,.55,12,1.38,18,1,7.42,4.92,6.59,11.79,7.26A22.62,22.62,0,0,0,146.37,128.77Z" transform="translate(-23.74 -36.29)"/><path class="cls-2" d="M126.19,87.11A45.18,45.18,0,0,0,120,81.53a12,12,0,0,1,3.56-.34c.24-1.3,3.51-5,5.58-5.63a4.86,4.86,0,0,1,1.5-3.75c.37,1.16,1.42,5.87,5.29,6.63a24,24,0,0,0-1.53,6.84,1.61,1.61,0,0,1-.47.83h0a1.62,1.62,0,0,1-1,.42Z" transform="translate(-23.74 -36.29)"/><path class="cls-2" d="M134.24,89.52c3.46,4.61,12.12,5.58,16.43,1.84,6-5.19,3.56-15.51-3.74-17.84-9.18-2.93-13.47,3.8-13.47,3.8l-.67,4.14,2.91,6.8,3.46,3.26,4.71.28,4.29-.8,2.51.36" transform="translate(-23.74 -36.29)"/><path class="cls-5" d="M153.5,86.94a9.12,9.12,0,0,1-6.66,6.52c-6.7,1.74-11-1.3-12.6-3.94-1.45-2.41-1.62-7.79,3.25-8.57s4.14,2.75,2.87,3-3.57.44-3.35,3C137.48,92.53,149.09,91.86,153.5,86.94Z" transform="translate(-23.74 -36.29)"/><path class="cls-6" d="M67.63,82.44a.76.76,0,0,0-.58-.21l-.19,0-.87.19-.88.18-.11,0-.07.08a.66.66,0,0,0-.18.39c0,.25-.26,1.24-.32,1.5v0c0,.4-.08.77-.15,1.18s-.1.67-.14,1c0,.13,0,.27-.08.41a4.1,4.1,0,0,0-.14,1,6.27,6.27,0,0,1-.1,1.2,9.77,9.77,0,0,0-.11,1.06,5.78,5.78,0,0,1-.08.7c0,.23-.07.48-.08.73a5.7,5.7,0,0,0-.08.8v0c-.06.36-.11.72-.17,1.07s-.07.5-.11.75c-.11-.27-.23-.54-.35-.82s-.33-.78-.49-1.18-.32-.74-.48-1.09-.39-.91-.58-1.43a13,13,0,0,1-.52-1.27c-.27-.75-.55-1.49-.83-2.27-.08-.21-.18-.43-.27-.64s-.18-.41-.26-.61l-.66-1.77v0l-.11-.18a.47.47,0,0,1-.06-.09A.49.49,0,0,0,58,83h0c-.15,0-.3,0-.45,0l-.44,0-.42,0-.43.06-.4,0a.82.82,0,0,0-.68.37.5.5,0,0,0,0,.43c0,.16.12.31.18.47a4.22,4.22,0,0,1,.18.45c.17.48.34,1,.55,1.48a3,3,0,0,0,.15.36,1.66,1.66,0,0,1,.12.31c.09.24.16.48.24.72A9.15,9.15,0,0,0,57,88.89c.33.86.74,1.71,1.13,2.51.15.35.33.71.51,1l.25.5c.21.41.41.82.62,1.22l.59,1.19c.44.78.88,1.58,1.34,2.41l.1.17a1.49,1.49,0,0,0,.14.24l.1.15H62a3.44,3.44,0,0,0,.46,0,4.85,4.85,0,0,0,.77-.14c.26,0,.53-.1.81-.13l.42-.06.85-.14c.47,0,.61-.28.66-.43l0-.06.06-.13,0,0v0l.09-.47c0-.18.07-.35.09-.51l.06-.28a3.4,3.4,0,0,0,.09-.65,9.08,9.08,0,0,1,.16-1.33c0-.23.08-.46.11-.69s.08-.46.12-.69.1-.48.13-.72l0-.13a7.23,7.23,0,0,1,.15-.81,8.15,8.15,0,0,0,.38-1.93c0-.11,0-.23,0-.36a3,3,0,0,0,.07-.43V88a5.33,5.33,0,0,0,.1-.79c0-.13,0-.26,0-.38s0-.22,0-.35c0-.41,0-.8,0-1.16a2.35,2.35,0,0,0,0-.26,1.75,1.75,0,0,1,0-.45,6.93,6.93,0,0,0,0-1.56,1.4,1.4,0,0,0,0-.41v-.14Z" transform="translate(-23.74 -36.29)"/><path class="cls-6" d="M74.31,96.3H73V94.81c0-.48,0-1,0-1.47v-.87a2.05,2.05,0,0,0,0-.43c0-.09,0-.18,0-.26s0-.28,0-.42,0-.25,0-.37V89.93c0-.46,0-.93,0-1.41,0-.29,0-.6.08-.91s.06-.61.08-.91c0-.61.08-1.22.16-1.83s.12-1.1.2-1.65l.12-1.08V81.4c0-.41.68-.66.94-.69l.76,0,.76,0h.1a.52.52,0,0,1,.44.18.45.45,0,0,1,.08.36c0,.16,0,.32,0,.48s0,.3,0,.45v1.15c0,.15,0,.31,0,.46s0,.27,0,.41v0a5.16,5.16,0,0,0,0,.78c0,.17,0,.34,0,.51s0,.36,0,.55,0,.37,0,.56,0,.38,0,.57c0,.56,0,1.12,0,1.66s0,.86.08,1.29c0,.2,0,.41,0,.62s0,.46,0,.68,0,.44,0,.66,0,.69,0,1,0,.67,0,1a2.3,2.3,0,0,0,0,.28c0,.1,0,.21,0,.32a4,4,0,0,1-.17,1.19.64.64,0,0,1-.71.42H74.31Z" transform="translate(-23.74 -36.29)"/><path class="cls-6" d="M73.36,94.81c0-.48,0-1,0-1.44v-.84a4.7,4.7,0,0,0,0-.75c0-.27,0-.53,0-.79V89.93c0-.46,0-.92,0-1.38s.12-1.22.16-1.83.08-1.2.16-1.8.12-1.11.2-1.66l.12-1.09V81.4c0-.12.39-.34.63-.36.51,0,1-.07,1.5-.1.2,0,.32,0,.28.17,0,.34,0,.65,0,1v1.15c0,.29,0,.58,0,.87a5.77,5.77,0,0,0,0,.82c0,.36,0,.7,0,1.06s0,.74,0,1.13c0,.55,0,1.11,0,1.66s.08,1.3.12,1.93c0,.45,0,.89,0,1.32,0,.7,0,1.37,0,2.07,0,.19,0,.39,0,.58a3.37,3.37,0,0,1-.16,1.08c0,.15-.12.2-.39.2l-1.75,0-1,0Z" transform="translate(-23.74 -36.29)"/><path class="cls-6" d="M90.55,80c-.21-1.08-3.34-.31-4-.27h-.13c-.35,0-.72.08-1.08.14l-.48.07a15.83,15.83,0,0,1-1.89.21,1.18,1.18,0,0,0-.3,0l-.6.09h-.14l-.08.11a.58.58,0,0,0-.1.41l.09,3.06c0,.12,0,.24,0,.36s0,.27,0,.41c0,.39,0,.77.06,1.16s0,.76.05,1.15a11.36,11.36,0,0,1,0,1.3,5.9,5.9,0,0,0,.06.86,4.59,4.59,0,0,1,0,.9,2.68,2.68,0,0,0,0,.49c0,.15,0,.29,0,.43v0c0,.33,0,.67,0,1s0,.7,0,1c0,.8,0,1.63,0,2.42,0,.12.06.5.62.49l1.5,0c.78,0,1.61,0,2.41,0h.2l.15,0h.14l.59,0h.58c.17,0,.33,0,.5,0,.4,0,.79,0,1.18-.07s.55-.05.63-.51c0-.16,0-.33.06-.5s0-.36.06-.5a.55.55,0,0,0-.07-.42.79.79,0,0,0-.56-.25l-.27,0a4.07,4.07,0,0,1-.5,0,17.34,17.34,0,0,0-1.77-.09c-.4,0-.82,0-1.24,0l-1.15-.06c0-.75-.17-3.74-.17-4.47h.2l.43,0c.14,0,.28,0,.43,0,1.43,0,2.67-.11,3.76-.21.53,0,.59-.35.59-.49s0-.33,0-.49,0-.31,0-.51,0-.48-.58-.52h0a.75.75,0,0,1-.15,0H89.4l-.78,0-.76,0h-.44l-.25,0-.58,0c-.5,0-1,0-1.52,0a18.42,18.42,0,0,1-.14-3.79,3.44,3.44,0,0,1,0-.64c.71,0,1.36-.08,2-.15l1.89-.2.46,0c.37,0,.91,0,1.12-.34a2,2,0,0,0,.09-1.06A4.72,4.72,0,0,0,90.55,80Z" transform="translate(-23.74 -36.29)"/><path class="cls-6" d="M106.89,83.3c0-.87,0-1.72-.08-2.62v-.6l-.35,0-.79,0a14.71,14.71,0,0,0-1.62.12l-.28,0v.63a1,1,0,0,0,0,.17,1.32,1.32,0,0,1,0,.2v1.26a2.41,2.41,0,0,1,0,.53l-.12,1.23c0,.25,0,.49,0,.74s0,.48,0,.73,0,.44-.08.67-.06.46-.08.73V88c0,.25,0,.49,0,.73a1.48,1.48,0,0,1,0,.21c-.13-.3-.26-.6-.38-.9s-.34-.83-.49-1.25l-.14-.37-.09-.23c-.12-.32-.24-.63-.35-1l-.19-.39a2.31,2.31,0,0,1-.27-.63,5.66,5.66,0,0,0-.27-.68l-.07-.14c-.18-.36-.34-.65-.51-.92-.29-.57-.63-1.19-1-1.93a.7.7,0,0,0-.66-.34h0c-.52,0-1.08-.08-1.58-.13h-.45a3.79,3.79,0,0,0-.93.1l0,0a.48.48,0,0,0-.36.23l0,.06a.65.65,0,0,0-.21.61.14.14,0,0,1,0,.06.84.84,0,0,0,0,.18,8.69,8.69,0,0,0-.2,1c0,.36,0,.71-.08,1.06s-.06.72-.08,1.11c0,.78-.08,1.58-.08,2.38,0,.43,0,.86,0,1.28,0,.21,0,.41,0,.62,0,.52,0,1-.07,1.55v.09c0,.33,0,.67,0,1s0,.72,0,1.07a18.5,18.5,0,0,0,.08,2.9v0c.09.37.29.44.64.44h0l.84,0,.87,0c.48,0,.79-.25.85-.56a2.8,2.8,0,0,0,.09-.58,2.21,2.21,0,0,0,0-.51A1.28,1.28,0,0,1,98,94c0-.22,0-.43,0-.63s0-.42,0-.63c0-.38,0-.77,0-1.18,0-.12,0-.24,0-.36s0-.3,0-.46V87.39c0-.11,0-.23,0-.35a6.51,6.51,0,0,1,0-1v0c0-.22,0-.44,0-.66,1.75,3.52,3.35,7,4.78,10.32l.07.16.17,0a1.84,1.84,0,0,0,.4,0h0l.84,0,.85,0a.75.75,0,0,0,.46-.2.92.92,0,0,0,.38-.73v-.06a11.48,11.48,0,0,0,.07-1.17,10.57,10.57,0,0,1,.12-1.6c0-.29.07-.56.09-.83s0-.25,0-.41a.42.42,0,0,1,0-.17v-.06a8.63,8.63,0,0,0,.21-1.77.79.79,0,0,1,0-.24l0,0v0a3.68,3.68,0,0,1,.06-.56c0-.12,0-.23.06-.36,0-.34,0-.67,0-1s0-.66,0-1C107,84.79,106.93,84,106.89,83.3Z" transform="translate(-23.74 -36.29)"/><path class="cls-6" d="M115.33,85a5.83,5.83,0,0,1,.3-1.65c.71.07,1.36.13,2,.17l1.1.06a.52.52,0,0,0,.51-.72,4.75,4.75,0,0,0-.66-1.49c-.89-.77-3.44-.29-4.64-.44a1.4,1.4,0,0,0-.3,0h-.74l-.1.09a.69.69,0,0,0-.17.39l-.38,3c0,.13,0,.24-.06.36s0,.26-.07.4c0,.39-.09.78-.13,1.16s-.07.76-.12,1.14a12.13,12.13,0,0,1-.24,1.29,5.08,5.08,0,0,0-.08.85,3.76,3.76,0,0,1-.1.9,4,4,0,0,0-.08.48c0,.15,0,.29-.07.42v0c0,.33-.09.67-.14,1s-.11.68-.15,1c-.14.79-.24,1.61-.34,2.4,0,.12,0,.51.54.58l1.49.18c.77.1,1.59.21,2.38.37l.2,0h.28l.59.07c.23,0,.39.06.57.1l.5.08c.39,0,.79.08,1.17.11s.55,0,.7-.4c0-.17.09-.33.14-.5s.11-.34.14-.47a.58.58,0,0,0,0-.43.77.77,0,0,0-.51-.34l-.27,0a4.37,4.37,0,0,1-.49-.12c-.56-.15-1.15-.26-1.73-.36-.4-.06-.81-.14-1.22-.23s-.74-.14-1.13-.23c.09-.75.19-3,.31-3.68l.19,0,.43.05.43.07c1.42.17,2.65.3,3.74.37.53.06.64-.26.67-.4s.07-.31.1-.48a4.75,4.75,0,0,1,.1-.49c0-.11,0-.48-.5-.61h0a.7.7,0,0,1-.14,0l-.21,0-.77-.08c-.26,0-.51,0-.76-.09l-.19,0-.25,0-.25,0a5.51,5.51,0,0,1-.57-.06c-.38,0-.74-.11-1.12-.17l-.39-.07.15-1.26v0C115,86.93,115.15,86.45,115.33,85Z" transform="translate(-23.74 -36.29)"/><path class="cls-6" d="M57.76,66a10.55,10.55,0,0,0-3.08-4.23,13.15,13.15,0,0,1-1.63-1.55,3.83,3.83,0,0,0-.86-.84,3.55,3.55,0,0,0-.31-.23,7,7,0,0,1-.82-.66,22.38,22.38,0,0,1-2.6-3.2,4.51,4.51,0,0,1-.85-2.38v-.28a3.12,3.12,0,0,1,.15-1.26c.12-.41.31-.51.49-.56a4.68,4.68,0,0,1,1.11-.24,4.91,4.91,0,0,1,1.65.13c.12,0,.25.07.38.35a5,5,0,0,1,.48,2.86,1,1,0,0,0,.35.85,1.14,1.14,0,0,0,.83.23l.17,0,.64-.1.65-.11c.53,0,1.23-.21,1.25-1.11a10.44,10.44,0,0,0,0-1.78,8.79,8.79,0,0,0-.6-2.91,2.77,2.77,0,0,0-1.17-1.48,10.79,10.79,0,0,0-3.37-1,14.76,14.76,0,0,0-2.66,0l-.87.05a2.94,2.94,0,0,0-1.5.5l-.29.25-.2.18a5.2,5.2,0,0,0-1.57,1.86,8.18,8.18,0,0,0-.9,3.54,7.67,7.67,0,0,0,1.2,4,18.15,18.15,0,0,0,1.68,2.56c.72.89,1.52,1.77,2.3,2.62l.35.38c.32.36.66.7,1,1s.66.66,1,1l.14.15a1.12,1.12,0,0,1,.2.24l.06.06c.45.55.91,1.11,1.35,1.61a8.41,8.41,0,0,1,1.47,2.39,2.34,2.34,0,0,1,.19,1.8,8.94,8.94,0,0,1-.55,1.12l-.17.3a.73.73,0,0,1-.16.22,10.93,10.93,0,0,1-1.54.44l-.15,0a4.23,4.23,0,0,1-1.7-.29.8.8,0,0,1-.63-.62,7.6,7.6,0,0,1-.29-1c0-.17,0-.34,0-.5a5.7,5.7,0,0,1-.08-1,2.06,2.06,0,0,0-.07-.32.5.5,0,0,1,0-.27.63.63,0,0,0,0-.61.91.91,0,0,0-.73-.36h-.1a4.06,4.06,0,0,0-.82.12l-1.52.13h-.73c-.27,0-1,.09-.91.93.06.59.15,1.12.25,1.69l0,.15a7.32,7.32,0,0,0,.69,2.4l.09.15a2,2,0,0,0,.3.43,7.4,7.4,0,0,0,.87.92l.27.24a6.82,6.82,0,0,0,1.14.86,7.29,7.29,0,0,0,4.49.94,3.25,3.25,0,0,0,.44,0A5.45,5.45,0,0,0,54.3,76a7.08,7.08,0,0,0,2.35-2,8.4,8.4,0,0,0,1.23-2.47A8.67,8.67,0,0,0,57.76,66Z" transform="translate(-23.74 -36.29)"/><path class="cls-6" d="M67.64,45.65c-.37-.06-.74-.12-1.12-.15l-1-.1-.79-.06L64,45.29a.25.25,0,0,0-.12,0h-.11l-.38,0c-.33,0-.67,0-1,0a7.75,7.75,0,0,1-.88,0H61l-.37,0h-.93l-.37,0-.26,0a1,1,0,0,1-.23,0h-.13a.48.48,0,0,0-.49.38.56.56,0,0,0,0,.26c0,.51,0,1-.08,1.56a.48.48,0,0,0,.52.48H59a7.12,7.12,0,0,1,1.91-.17h.72c0,.77,0,1.49.07,2.17v1.2c0,.46,0,.93,0,1.42,0,.08,0,.17,0,.26a3.68,3.68,0,0,0,0,.66,6.71,6.71,0,0,1,.07.91c0,.9,0,1.83,0,2.75,0,.34,0,.67,0,1s0,.66,0,1c0,.1,0,.21,0,.32s0,.25,0,.36,0,.34,0,.51,0,.31,0,.47v3a.47.47,0,0,0,0,.17s0,0,0,0v.13l.1.09a.52.52,0,0,0,.34.11c.51,0,1,0,1.5,0h0c.57,0,.72-.15.86-.55A4.19,4.19,0,0,0,65,62.3a9.62,9.62,0,0,1,.07-1v-.07c0-.35.07-.67.07-1s0-.4,0-.6,0-.41,0-.63a1.21,1.21,0,0,1,0-.18,1.78,1.78,0,0,0,0-.46c0-.4,0-.8-.07-1.18,0-.18,0-.36,0-.52A4.35,4.35,0,0,0,65,56c0-.27-.06-.55-.09-.82s-.08-.53-.1-.78a8.22,8.22,0,0,1,0-.86c0-.15,0-.3,0-.44s0-.42,0-.63,0-.41,0-.63a9.75,9.75,0,0,1,0-1.1l-.11-1.22c0-.6-.1-1.2-.16-1.76H65a1.87,1.87,0,0,1,.45,0,2.25,2.25,0,0,0,.46,0h.82l.31,0a1,1,0,0,1,.25,0h.06c.23,0,.7,0,.7-.57v-.38c0-.12,0-.23,0-.34s0-.21,0-.31v-.05A.51.51,0,0,0,67.64,45.65Z" transform="translate(-23.74 -36.29)"/><path class="cls-6" d="M79.56,64.88l0-.24a98.9,98.9,0,0,1-1.62-10.56c-.77.08-1.54.11-2.28.14s-1.32.05-2,.11c0,.4-.08.8-.11,1.19v.07c-.07.47-.11.95-.15,1.41,0,.18,0,.35,0,.53a11.48,11.48,0,0,0-.07,1.17,4.27,4.27,0,0,1-.13,1.18c0,.13-.05.25-.07.38s0,.5-.07.76-.06.51-.08.76c-.05.51-.06,1-.08,1.5l0,.77c0,.4-.15.57-.59.62l-.2,0-1.66.15h-.16a2.3,2.3,0,0,1-.39,0l-.26-.06V64.5l.11-1.65c0-.34.07-.66.1-1s.06-.66.1-1c0-.11,0-.21,0-.31a2.08,2.08,0,0,1,.05-.36L70,60c.1-.86.21-1.72.32-2.56.11-1.16.27-2.35.42-3.37,0-.44.12-.89.19-1.34s.13-.89.19-1.34c0-.12,0-.24.07-.36s.06-.26.08-.4c.06-.37.13-.73.19-1.1s.14-.71.19-1.07.07-.47.09-.7.06-.52.1-.78a10.76,10.76,0,0,1,.43-2.18c.16-.41.27-.78.38-1.15a1.8,1.8,0,0,1,.14-.31.27.27,0,0,0,.06-.1l.07-.2H74l.38,0h0a11.65,11.65,0,0,1,2,.21l.69.12c.23,0,.45.09.68.12a6,6,0,0,0,1.13.1h.06a.61.61,0,0,1,.56.5c.12.48.24,1,.37,1.47l.36,1.46c0,.2.1.4.15.6.11.45.23.92.31,1.41,0,.23.07.44.11.66A6.81,6.81,0,0,1,80.88,51c0,.31.08.65.14,1s.09.52.13.78.08.58.13.88.09.61.13.91.09.72.14,1.06.09.63.13.94l0,.23c.1.85.21,1.73.35,2.58s.23,1.52.38,2.29l.12,1c0,.24,0,.49.07.73s.06.51.08.76-.07.59-.59.65H81.5l-.6,0ZM74.62,46.71c0,.59-.12,1.17-.19,1.74s-.11.92-.19,1.39v0c0,.23-.08.43-.12.65l-.2,1.34.66-.11.77-.12a6.73,6.73,0,0,1,.89-.05l.55,0,.5-.06.26,0a23,23,0,0,0-1-5.09,14.93,14.93,0,0,0-1.86.2A1.21,1.21,0,0,0,74.62,46.71Z" transform="translate(-23.74 -36.29)"/><path class="cls-6" d="M73.34,54.06c-.08.51-.11,1-.15,1.51S73.07,56.5,73,57s-.11,1.14-.11,1.72a6.33,6.33,0,0,1-.19,1.52c0,.51-.12,1-.15,1.55-.08.75-.08,1.51-.12,2.27,0,.27,0,.31-.3.34-.65.07-1.26.14-1.87.17a.88.88,0,0,1-.42,0c0-.55.07-1.1.11-1.65s.12-1.31.19-2c0-.21,0-.45.08-.66.11-.93.23-1.86.34-2.75.12-1.14.27-2.27.42-3.37.12-.9.27-1.79.38-2.69,0-.24.12-.48.16-.75.11-.73.26-1.45.38-2.17.07-.52.11-1,.19-1.48a9.57,9.57,0,0,1,.42-2.13c.15-.42.27-.8.38-1.17a3.35,3.35,0,0,1,.19-.38c.46,0,.84,0,1.26,0a11.39,11.39,0,0,1,1.87.2c.46.07.92.18,1.37.24a6.93,6.93,0,0,0,1.19.11.3.3,0,0,1,.3.27c.23,1,.5,2,.73,2.93.15.65.34,1.3.45,2A14.25,14.25,0,0,1,80.55,51c0,.58.19,1.2.27,1.82s.19,1.21.27,1.79.19,1.34.26,2c.12.93.23,1.89.39,2.82.11.76.22,1.51.38,2.31,0,.3.07.65.11,1,0,.48.12,1,.15,1.48,0,.24,0,.31-.3.34s-.8,0-1.18,0H79.83a100.09,100.09,0,0,1-1.64-10.84C76.55,54,74.94,53.89,73.34,54.06Zm1-7.4c0,.58-.11,1.17-.19,1.75s-.11.93-.19,1.42c0,.2-.07.41-.11.65-.08.52-.15,1-.23,1.55a.2.2,0,0,0,0,.14c.11,0,.19,0,.26,0,.5-.07,1-.18,1.53-.25s.95,0,1.41-.06.73-.11,1.07-.14a20.19,20.19,0,0,0-1.14-5.65,13.48,13.48,0,0,0-2.33.25C74.37,46.42,74.33,46.56,74.29,46.66Z" transform="translate(-23.74 -36.29)"/><path class="cls-6" d="M90.48,64.47h-.32a5.32,5.32,0,0,1-3.18-1,5.58,5.58,0,0,1-.76-.7L86,62.61a5.29,5.29,0,0,1-.57-.72,2,2,0,0,1-.19-.33l0-.11a5.47,5.47,0,0,1-.34-1.78v-.12c0-.41-.07-.8-.07-1.23s.36-.57.67-.57l.3,0h1.35a4.16,4.16,0,0,1,.6,0h.07a.64.64,0,0,1,.46.28.4.4,0,0,1,0,.41.46.46,0,0,0,0,.23.91.91,0,0,1,0,.23,4.59,4.59,0,0,0,0,.74c0,.13,0,.25,0,.37a5.12,5.12,0,0,0,.14.74.62.62,0,0,0,.45.52,3,3,0,0,0,1.23.33h.12a7.59,7.59,0,0,0,1.18-.22h0s0,0,.13-.16l.14-.21a7.85,7.85,0,0,0,.49-.78,1.8,1.8,0,0,0,0-1.35A6.34,6.34,0,0,0,91.23,57c-.3-.41-.61-.86-.91-1.3a1.58,1.58,0,0,0-.14-.2l-.09-.11c-.2-.27-.42-.53-.64-.79s-.44-.54-.65-.82l-.23-.3c-.51-.67-1-1.36-1.5-2.06a13.31,13.31,0,0,1-1-2,5.52,5.52,0,0,1-.6-3A5.93,5.93,0,0,1,86.3,44a3.68,3.68,0,0,1,1.25-1.23l.16-.12.22-.16a2.06,2.06,0,0,1,1.1-.26l.63,0a10.48,10.48,0,0,1,1.93.16,7.49,7.49,0,0,1,2.36,1,2,2,0,0,1,.74,1.12,6.5,6.5,0,0,1,.24,2.15,7,7,0,0,1-.08,1.28c-.07.62-.54.7-.94.7l-.47,0-.48,0h-.12a.79.79,0,0,1-.56-.2.72.72,0,0,1-.18-.61,3.73,3.73,0,0,0-.17-2.13c-.07-.23-.18-.28-.28-.31a4,4,0,0,0-1.2-.2,3.33,3.33,0,0,0-.84.1.57.57,0,0,0-.43.4,2.61,2.61,0,0,0-.19.92l0,.21a3.26,3.26,0,0,0,.47,1.8,16.78,16.78,0,0,0,1.68,2.5,5.73,5.73,0,0,0,.56.54,2,2,0,0,1,.21.19,2.66,2.66,0,0,1,.56.66,9.94,9.94,0,0,0,1.09,1.24,7.52,7.52,0,0,1,1.95,3.26,6.26,6.26,0,0,1-.27,4,5.93,5.93,0,0,1-1,1.7,5.16,5.16,0,0,1-1.82,1.28A3.91,3.91,0,0,1,90.48,64.47Z" transform="translate(-23.74 -36.29)"/><path class="cls-6" d="M94.52,47.89c0,.35-.19.45-.61.45s-.64,0-1,.07-.53-.14-.49-.48a3.86,3.86,0,0,0-.2-2.27.65.65,0,0,0-.49-.48,4.07,4.07,0,0,0-2.21-.11.87.87,0,0,0-.65.59,3.28,3.28,0,0,0-.23,1.2,3.6,3.6,0,0,0,.49,2,17,17,0,0,0,1.72,2.55,8.18,8.18,0,0,0,.8.76,2.7,2.7,0,0,1,.5.58A9.48,9.48,0,0,0,93.3,54a7.23,7.23,0,0,1,1.87,3.13A6,6,0,0,1,94.91,61a5.68,5.68,0,0,1-1,1.62,4.73,4.73,0,0,1-1.71,1.2,3.8,3.8,0,0,1-2,.38,5,5,0,0,1-3-.89,8.29,8.29,0,0,1-.92-.86,5.06,5.06,0,0,1-.53-.69,1.75,1.75,0,0,1-.23-.42,5.24,5.24,0,0,1-.31-1.68c0-.45-.07-.86-.07-1.31,0-.24.07-.27.34-.27s.34,0,.53,0h1.15a3.63,3.63,0,0,1,.57,0c.19,0,.31.13.23.27s0,.41,0,.59A10.65,10.65,0,0,0,88,60a6.88,6.88,0,0,0,.15.79.92.92,0,0,0,.65.72,3.17,3.17,0,0,0,1.49.35,9.31,9.31,0,0,0,1.26-.24.73.73,0,0,0,.3-.28,9,9,0,0,0,.65-1,1.94,1.94,0,0,0,0-1.55,6.38,6.38,0,0,0-.95-1.92c-.31-.42-.61-.86-.92-1.31a2.08,2.08,0,0,0-.22-.31c-.42-.55-.88-1.07-1.3-1.62-.58-.76-1.19-1.55-1.72-2.34a13.79,13.79,0,0,1-1-1.93,5.21,5.21,0,0,1-.57-2.85,5.5,5.5,0,0,1,.84-2.38A3.42,3.42,0,0,1,87.73,43c.12-.07.27-.21.38-.28a1.72,1.72,0,0,1,.92-.2,14.49,14.49,0,0,1,2.48.17,7.54,7.54,0,0,1,2.25.93,1.65,1.65,0,0,1,.61,1,6.28,6.28,0,0,1,.23,2.07A6.36,6.36,0,0,1,94.52,47.89Z" transform="translate(-23.74 -36.29)"/><path class="cls-6" d="M99.77,63.79c-.51,0-.63-.17-.68-.53L99,61.64c0-.22,0-.46,0-.7s0-.22,0-.34c0-.89,0-1.79,0-2.67,0-.51,0-1,0-1.51,0-.25,0-.5,0-.75V53.73c0-1,0-2.14,0-3.22V49.08c0-.25,0-.51,0-.76,0-.52,0-1,0-1.57v-.09c0-.8.07-1.63.13-2.44a1.55,1.55,0,0,1,.14-.51l.06-.13,0-.07.06,0a.63.63,0,0,1,.37-.18,5.08,5.08,0,0,1,.67,0l.21,0h.07c.94,0,1.83,0,2.77.06h.07l.2,0,.28,0h.25l.31,0h.09c.47.12.85.2,1.17.25a.53.53,0,0,1,.48.55c0,.17,0,.33,0,.49s0,.33,0,.5a.42.42,0,0,1-.1.35.64.64,0,0,1-.48.19h-1.44c-.67.06-1.34.13-2,.22a1.11,1.11,0,0,0-.41.08.88.88,0,0,0,0,.3,20.86,20.86,0,0,1,.08,2.37c0,.19,0,.39,0,.59V52.1c0,.29,0,.56,0,.85h1.24a3.18,3.18,0,0,1,.47-.06h0a3.48,3.48,0,0,1,.58-.05,5.09,5.09,0,0,1,.58,0l.59,0h0c.56,0,.67.3.67.55v0a1.05,1.05,0,0,0,0,.24,2.17,2.17,0,0,1,0,.25,7,7,0,0,1,0,.79v.67l-.31,0-2,.11-1.82.1h0c0,.28,0,.57,0,.86s0,.61,0,.92,0,.36,0,.55,0,.38,0,.57c0,.5,0,1,0,1.47,0,0,.11,1.32.11,1.33l.8-.07h.28l.17,0h.28a7.14,7.14,0,0,0,.91-.08l.47-.06.44-.06.48-.07h.14a.55.55,0,0,1,.58.52v.68a2,2,0,0,0,0,.24,3.25,3.25,0,0,1,0,.62c0,.36-.16.52-.6.57l-1.25.1H104a1.27,1.27,0,0,1-.43-.07,3.15,3.15,0,0,1-1,.13l-.31,0h-.86c-.28,0-.54,0-.81,0a6.5,6.5,0,0,0-.79.06h0Z" transform="translate(-23.74 -36.29)"/><path class="cls-6" d="M103,61.46a1.36,1.36,0,0,1,.35,0,8,8,0,0,0,1.76-.13c.32,0,.6-.09.92-.13s.32,0,.35.26v.64a5.61,5.61,0,0,1,0,.82c0,.26,0,.29-.31.32l-1.24.1h-.39c-.28-.07-.6.06-.88-.1h-.07a4.14,4.14,0,0,1-1.27.16c-.57,0-1.09,0-1.66,0a5.2,5.2,0,0,0-.81.07c-.32,0-.32,0-.35-.29,0-.54-.07-1.05-.11-1.59a8.67,8.67,0,0,1,0-1c0-.89,0-1.78,0-2.67s0-1.5,0-2.26V53.73c0-1,0-2.13,0-3.22V49.08c0-.76,0-1.56,0-2.32s.07-1.69.14-2.51a1.77,1.77,0,0,1,.18-.58.28.28,0,0,1,.17-.09,3.49,3.49,0,0,1,.64,0c.1,0,.18,0,.28,0,1,0,1.87,0,2.82.06.18,0,.32,0,.5,0l.56,0c.39.09.81.19,1.2.25a.23.23,0,0,1,.21.26c0,.35,0,.66,0,1,0,.13-.07.23-.25.23h-1.3c-.07,0-.11,0-.18,0-.67.06-1.34.12-2,.22s-.74.16-.67.7a25.83,25.83,0,0,1,.07,2.93V52.1a11.24,11.24,0,0,0,0,1.15h1.59a2.42,2.42,0,0,1,.46-.06,3.07,3.07,0,0,1,.6-.07c.39,0,.81,0,1.2-.06s.31.06.31.25,0,.35-.07.51a7.13,7.13,0,0,1,0,.8V55c-1.38.07-2.72.16-4.13.22v.29c0,.57,0,1.18,0,1.78,0,.35,0,.73,0,1.12s0,1,0,1.49.08.86.11,1.31c0,.09,0,.16,0,.32Z" transform="translate(-23.74 -36.29)"/><path class="cls-6" d="M117.51,64.31H117V64a.77.77,0,0,0,0-.15,1.5,1.5,0,0,1,0-.22v-.07a5.16,5.16,0,0,0,.13-1.46v-.25a20.52,20.52,0,0,0,0-2.4,29.26,29.26,0,0,0-.33-2.94,3.41,3.41,0,0,0-.4-1.24,1.14,1.14,0,0,0-1-.72h-.39a9.54,9.54,0,0,0-1.71.16.91.91,0,0,0,0,.29v0a11.2,11.2,0,0,0,.07,1.19v3.84a10.68,10.68,0,0,0-.06,2,5.79,5.79,0,0,1,0,1c0,.42-.2.61-.7.66-.32,0-.65.06-1,.11h-.22l-.18,0h-.52l-.07-.24a2.16,2.16,0,0,1,0-.48c0-.43,0-.89-.08-1.35s0-.93-.08-1.38c-.08-1.23-.06-2.46,0-3.66,0-.48,0-1,0-1.44s0-.9.07-1.34,0-.87.07-1.31l.2-2.25c.06-.58.1-1.19.13-1.77v-.07c.07-.74.14-1.51.17-2.26a10.06,10.06,0,0,0,0-1.36l0-.17.16-.1a1.81,1.81,0,0,0,.25-.2.9.9,0,0,1,.51-.18c.6-.09,1.25-.15,1.87-.21h.2l.21,0a3.81,3.81,0,0,1,.59-.05,7.82,7.82,0,0,1,1.7.24,3.27,3.27,0,0,1,1.75.94,4,4,0,0,1,.76,1.22,5.46,5.46,0,0,1,.35,2.16c0,.42,0,.83,0,1.23a1.48,1.48,0,0,1-.08.46c-.06.35-.16.75-.26,1.13v0a1.39,1.39,0,0,1-.21.37v0l-.8.8a4,4,0,0,1,.82.63l.22.19a5.89,5.89,0,0,1,.45.42,3.12,3.12,0,0,1,.71,1.2l.09.22a7.81,7.81,0,0,1,.49,3.35c0,.38,0,.8-.07,1.17a6,6,0,0,1-.06.75c0,.35,0,.69,0,1.06,0,.62-.1,1.28-.16,1.92v0c0,.31-.22.51-.59.51-.65.06-1.28.09-2,.12ZM113.32,47c0,.67,0,1.37-.08,2.06,0,1,0,1.89,0,2.77l.32,0,.63-.05c.4-.09.84-.21,1.26-.33a.31.31,0,0,0,.16-.09,2.77,2.77,0,0,0,.55-1.68,6.81,6.81,0,0,0-.16-1.23c0-.13,0-.26-.07-.39a3.17,3.17,0,0,0-.34-1,1.52,1.52,0,0,0-.86-.64,3,3,0,0,0-.8-.1l-.54,0h-.08C113.33,46.53,113.32,46.79,113.32,47Z" transform="translate(-23.74 -36.29)"/><path class="cls-6" d="M118.38,53.53c.24.21.47.39.67.6a3.48,3.48,0,0,1,.74,1.34,7.35,7.35,0,0,1,.47,3.23,11.43,11.43,0,0,1-.07,1.15,6,6,0,0,1-.06.76,9.48,9.48,0,0,1,0,1.06c0,.63-.1,1.3-.16,2,0,.15-.07.25-.27.25-.71.06-1.38.09-2.08.12-.07,0-.14,0-.24,0s0-.25,0-.37a6.37,6.37,0,0,0,.13-1.78,17.77,17.77,0,0,0,0-2.42c-.07-1-.17-2-.34-3a3.71,3.71,0,0,0-.43-1.33,1.45,1.45,0,0,0-1.34-.87,9.44,9.44,0,0,0-2.42.21,3.62,3.62,0,0,0,0,.57,11.59,11.59,0,0,0,.07,1.21V60a10.47,10.47,0,0,0-.07,2.09,5.24,5.24,0,0,1,0,1c0,.3-.07.36-.4.39s-.67.06-1,.12c-.14,0-.27,0-.4,0s-.14,0-.21,0a2.13,2.13,0,0,1,0-.42c-.07-.91-.1-1.85-.17-2.75-.1-1.7,0-3.39,0-5.08,0-.88.1-1.76.13-2.64s.14-1.48.21-2.24c.06-.6.1-1.24.13-1.84.07-.76.13-1.51.17-2.27a9.23,9.23,0,0,0,0-1.39,2.91,2.91,0,0,0,.31-.24.49.49,0,0,1,.3-.09c.6-.09,1.24-.15,1.88-.22l.4,0a5.7,5.7,0,0,1,2.18.19,2.93,2.93,0,0,1,1.58.84,3.44,3.44,0,0,1,.7,1.12,5.41,5.41,0,0,1,.34,2.06c0,.42,0,.85,0,1.24a1.76,1.76,0,0,1-.06.39c-.07.37-.17.76-.27,1.15a1.52,1.52,0,0,1-.17.3l-.81.82a1.63,1.63,0,0,1-.26.27A2.79,2.79,0,0,1,118.38,53.53Zm-4.12-1.45c.43-.09.87-.21,1.31-.34a.63.63,0,0,0,.33-.21,3.07,3.07,0,0,0,.6-1.84,10,10,0,0,0-.23-1.67,3.55,3.55,0,0,0-.37-1.08,1.83,1.83,0,0,0-1-.79,7.51,7.51,0,0,0-1.41-.15,2.05,2.05,0,0,0-.43,0c0,1,0,2-.11,3.08s0,2,0,3.12C113.38,52.14,113.82,52.14,114.26,52.08Z" transform="translate(-23.74 -36.29)"/><path class="cls-6" d="M136.85,70.35c0-.28,0-.57,0-.86l-.07-1.13c-.11-.86-.18-1.71-.26-2.53v-.11c-.09-1-.15-2-.21-2.93l0-.29c0-.36-.05-.71-.08-1.08s-.06-.8-.08-1.22l-.09-1c0-.34-.07-.68-.09-1s-.05-.6-.09-.89-.08-.81-.09-1.16a7.44,7.44,0,0,0-.09-1.51c0-.25-.06-.5-.08-.76-.05-.57-.16-1.11-.25-1.64-.05-.23-.09-.46-.13-.69-.1-.56-.2-1.13-.31-1.7s-.21-1.13-.31-1.68a.79.79,0,0,0-.67-.68h-.09a7.52,7.52,0,0,1-1.26-.2l-.76-.18-.78-.18a12.22,12.22,0,0,0-2.22-.38h0l-.43,0-.44,0-.52,0-.33,0-.13.27s0,.06-.06.1a1.37,1.37,0,0,0-.19.34c-.15.41-.31.83-.51,1.3a11.43,11.43,0,0,0-.65,2.46c-.07.29-.12.58-.17.89s-.1.51-.15.78-.19.8-.29,1.2-.21.83-.3,1.25c0,.15-.08.3-.12.44s-.08.27-.11.41c-.09.5-.2,1-.31,1.5s-.22,1-.31,1.53c-.24,1.15-.5,2.5-.72,3.81-.17.92-.35,1.86-.53,2.81l0,.28c0,.13-.05.27-.07.4s0,.23-.07.36l-.18,1.14c0,.36-.5,2.68-.57,3l-.29,2.22.37.11a2.21,2.21,0,0,0,.46.09h.2c.63,0,1.25,0,1.9-.06h.23c.55,0,.76-.24.79-.74,0-.29.06-.57.09-.86,0-.56.5-3.09.59-3.66,0-.29.09-.58.14-.86s.11-.59.14-.86.07-.28.11-.43a5,5,0,0,0,.22-1.34c0-.44.1-.88.16-1.31,0-.21.07-.41.09-.61.08-.53.15-1.07.27-1.6l0-.12c.06-.41.12-.83.2-1.24.72,0,1.43,0,2.18,0s1.67,0,2.52,0A116.88,116.88,0,0,0,133,71.51l0,.34,1.6.1.7,0,.65,0h.07c.66,0,.77-.4.79-.78S136.86,70.64,136.85,70.35Zm-6.53-14a7.08,7.08,0,0,0-1,0l-.89.09-.63.06.29-1.4c.06-.25.11-.47.17-.68v-.06c.11-.51.24-1.08.32-1.6s.25-1.28.34-2l0-.1a13,13,0,0,1,2-.09,25.65,25.65,0,0,1,.78,5.71h-.21c-.2,0-.4,0-.58,0S130.53,56.33,130.32,56.32Z" transform="translate(-23.74 -36.29)"/><path class="cls-6" d="M82.13,73.34c0-.42.19-1.24.21-1.38s0-.38,0-.56,0-.32.08-.47a.82.82,0,0,0,0-.22v-.45c0-.05,0-.12,0-.17V70c.51,0,1,0,1.52-.06V70c0,.34,0,.67,0,1a8.11,8.11,0,0,1,0,.86c0,.26,0,.51,0,.77-.17.84-.3,1.68-.44,2.53a.8.8,0,0,1-.14.41c-.21.28-1.24.2-1.51,0A6.71,6.71,0,0,1,80.68,74c0-.13-.38-.49-.46-.6-.43-.56-.85-1.14-1.27-1.71-.08-.11-.19-.24-.32-.21s-.19.26-.19.43c0,.91,0,1.82,0,2.73,0,.66-.32,1.19-1,1.13a1.05,1.05,0,0,1-.79-.38c-.31-.42,0-1.19,0-1.68a4.32,4.32,0,0,0,0-.62c0-.24,0-.48,0-.72s0-.62,0-.92.08-.54.11-.82a1.94,1.94,0,0,1,.12-.39s0-.09,0-.13.1-.12.15-.18l.13,0a5.38,5.38,0,0,1,.81,0,3.18,3.18,0,0,1,1.24.11,4.94,4.94,0,0,1,1,1.13q.47.57.9,1.17a9.27,9.27,0,0,0,.86,1.23A1.15,1.15,0,0,0,82.13,73.34Z" transform="translate(-23.74 -36.29)"/><path class="cls-6" d="M100.49,73.39a17,17,0,0,1,.15-2c0-.41,0-1.33.27-1.59a.88.88,0,0,1,.65-.16,1.89,1.89,0,0,0,.67,0s0,2.76,0,3c0,.79,0,2.73-.55,3.22a.26.26,0,0,1-.14.05l-1,0h-.22c-1-1.62-2.12-3.24-3.3-4.85a.17.17,0,0,0,0,.21A2.09,2.09,0,0,1,97,72a2.26,2.26,0,0,0,0,.58c0,.89,0,1.79,0,2.68a1.13,1.13,0,0,1-.13.58c-.23.32-1,.15-1.32.16-.17,0-.17,0-.2-.08a4.21,4.21,0,0,1,0-.51,14.7,14.7,0,0,1,.11-2.65c.06-.8.11-1.61.18-2.41s.52-.72,1.13-.7l1,0a.29.29,0,0,1,.25.08,33,33,0,0,1,2.07,3.12,7.49,7.49,0,0,0,.41.63l.14.15h0Z" transform="translate(-23.74 -36.29)"/><path class="cls-6" d="M90.47,75.88c-.17,0-.35,0-.52,0h-.29a8.59,8.59,0,0,1-1.3-.12,2.5,2.5,0,0,1-1.48-.58l-.09-.09L86.67,75a1,1,0,0,1-.22-.34.61.61,0,0,0,0-.12L86.2,74h0a3,3,0,0,1-.12-.47,8.53,8.53,0,0,1-.15-1.1c0-.21,0-.44,0-.64v-.06a5.68,5.68,0,0,1,0-.59,1.16,1.16,0,0,1,.11-.33l.09-.21c0-.09.09-.19.14-.29a3.15,3.15,0,0,1,.32-.43,1.65,1.65,0,0,1,1.11-.44l.37,0,.27,0a6.64,6.64,0,0,1,1-.11H90a12.26,12.26,0,0,1,1.93.24,1.92,1.92,0,0,1,1.45,1.09,1.82,1.82,0,0,1,.11.46l0,.15a1.25,1.25,0,0,1,.1.27,5,5,0,0,1,0,.67l0,.35c0,.12,0,.24,0,.36s0,.35,0,.52,0,.37,0,.55a.81.81,0,0,1,0,.27l0,.15a1.53,1.53,0,0,1-.52.91,2.57,2.57,0,0,1-1.59.61H91.4l-.91.08h0Zm-1.23-5.67h-.12a1.08,1.08,0,0,0-.81.31,1.13,1.13,0,0,0-.24.62,2.15,2.15,0,0,1-.09.44,4,4,0,0,1-.08.48.52.52,0,0,1,0,.11l0,.09v.62a4.82,4.82,0,0,0,.09.74.8.8,0,0,0,.08.28,3.18,3.18,0,0,0,.16.32.85.85,0,0,0,.41.23,4.31,4.31,0,0,0,.75.15,5.94,5.94,0,0,0,1,.07h0l.2,0a2.59,2.59,0,0,0,.79-.17.63.63,0,0,0,.25-.2,1.22,1.22,0,0,0,.23-.54c0-.19.06-.38.07-.56s0-.22,0-.33,0-.23,0-.35V72.4a.59.59,0,0,1,0-.23,2.26,2.26,0,0,0,0-.7.93.93,0,0,0,0-.13.79.79,0,0,1-.06-.22,1,1,0,0,0-.31-.41.18.18,0,0,0-.07,0,2.7,2.7,0,0,0-1.08-.37h-.11A5.79,5.79,0,0,0,89.24,70.21Z" transform="translate(-23.74 -36.29)"/><path class="cls-6" d="M65,108.78c0-.91,0-1.8-.05-2.75v-.63l-.31,0-.52,0a6.1,6.1,0,0,0-1.1.13l-.22,0v.58a1.09,1.09,0,0,0,0,.18,1.2,1.2,0,0,1,0,.27V108a3.69,3.69,0,0,1,0,.57l-.08,1.32c0,.26,0,.52,0,.78s0,.52,0,.79,0,.48,0,.72,0,.5-.05.76v.89c0,.2,0,.39,0,.58-.05-.16-.09-.32-.13-.48-.12-.43-.22-.89-.32-1.34l-.1-.41-.06-.25c-.08-.35-.16-.67-.23-1,0-.14-.08-.27-.12-.41a4.55,4.55,0,0,1-.19-.7,5.35,5.35,0,0,0-.17-.69l0-.17c-.12-.38-.23-.68-.35-1-.19-.61-.41-1.27-.69-2a.52.52,0,0,0-.5-.39h0c-.34,0-.71-.07-1-.12l-.32,0a1.91,1.91,0,0,0-.68.12l0,0a.39.39,0,0,0-.25.24.59.59,0,0,1,0,.08.88.88,0,0,0-.12.54.31.31,0,0,1,0,.13,1.11,1.11,0,0,0,0,.17c0,.36-.1.72-.13,1.1s0,.76,0,1.14,0,.77-.06,1.19c0,.82,0,1.68,0,2.54,0,.45,0,.91,0,1.35,0,.23,0,.45,0,.67,0,.57,0,1.11-.05,1.69v.06q0,.55,0,1.11c0,.38,0,.77,0,1.15a17.22,17.22,0,0,0,0,1.76c0,.44,0,.85,0,1.31v0c0,.22.1.44.5.44h0l.56,0,.6,0a.68.68,0,0,0,.61-.58,4.13,4.13,0,0,0,.05-.58,4.77,4.77,0,0,0,0-.53c0-.07,0-.14,0-.22s0-.46,0-.68,0-.44,0-.66c0-.41,0-.84,0-1.26,0-.13,0-.27,0-.41s0-.3,0-.47v-4a7.9,7.9,0,0,1,0-1.09s0-.27,0-.38c1.11,3.63,2.14,7.2,3,10.63l0,.15.14,0a.85.85,0,0,0,.31,0h0l.55,0c.19,0,.38,0,.56,0a.52.52,0,0,0,.4-.25,1.07,1.07,0,0,0,.23-.68v-.06c0-.42.05-.82.05-1.25s0-1.17.08-1.74c0-.3,0-.59.06-.87s0-.27,0-.43a.9.9,0,0,1,0-.24v0h0a13.31,13.31,0,0,0,.14-1.87,1.42,1.42,0,0,1,0-.3v-.06c0-.21,0-.42.05-.64l0-.35c0-.37,0-.72,0-1.08s0-.7,0-1.07C65.1,110.37,65.07,109.55,65,108.78Z" transform="translate(-23.74 -36.29)"/><path class="cls-6" d="M69.36,117.21h.57c1,0,1.81,0,2.53-.11a.44.44,0,0,0,.48-.46l0-.56c0-.17,0-.35,0-.55a.52.52,0,0,0-.42-.54h-.13l-.16,0h-.54l-.5,0h-.3l-.18,0-.37,0c-.25,0-.49,0-.75,0l-.21,0v-1.51c0-.31,0-.62,0-1,0-.17,0-.34,0-.51s0-.38,0-.58,0-.38,0-.58,0-.41,0-.63,0-.31,0-.47a3.85,3.85,0,0,0,0-.49v-1.19c0-.27,0-1.7,0-2,.47,0,.87,0,1.32-.1l1.28-.16c.1,0,.2,0,.3,0l.34,0h0l.12,0,.15,0,.24-.09,0-.25a4,4,0,0,1,0-1.61l0-.24-.21-.11a.57.57,0,0,0-.29-.1h-.08l-.07,0h0l-.08,0h-.32c-.56,0-1.15.08-1.71.11h-.08c-.24,0-.49.06-.74.11l-.32.07a6.34,6.34,0,0,1-1.25.17.57.57,0,0,0-.24,0l-.39.07-.15,0-.06.13a.74.74,0,0,0-.06.35V109c0,.14,0,.28,0,.42s0,.29,0,.45c0,.43,0,.87,0,1.31s0,.86,0,1.29,0,1,0,1.48a7.26,7.26,0,0,0,0,.94,9.41,9.41,0,0,1,0,1.06,4.61,4.61,0,0,0,0,.53c0,.16,0,.33,0,.52,0,.38,0,.77,0,1.15s0,.78,0,1.15c0,.9,0,1.83,0,2.72a.45.45,0,0,0,.48.49h1a13.82,13.82,0,0,1,1.58.07l.17,0h.6a1.65,1.65,0,0,1,.34,0h.38c.27,0,.54,0,.79,0s.46-.16.5-.49l.06-.57c0-.2,0-.41,0-.58a.54.54,0,0,0-.45-.66l-.2,0a1.55,1.55,0,0,1-.31-.06,7.17,7.17,0,0,0-1.21-.16c-.27,0-.55,0-.84-.09l-.71-.09c0-.91,0-1.78,0-2.66Z" transform="translate(-23.74 -36.29)"/><path class="cls-6" d="M82.36,104.06a3.1,3.1,0,0,0-2-2.33c-1.18-.44-3.18-.24-3.93.91-.2.34-.38.63-.56.88a10.1,10.1,0,0,0-.77,3.37,7.84,7.84,0,0,0,.81,4.47c1.09,2.11,2.91,4,3.66,6.34a3.55,3.55,0,0,1,.08,2.13,2.77,2.77,0,0,1-1.12,1.45.67.67,0,0,1-.38.08h-.18a.56.56,0,0,1-.11-.11.33.33,0,0,0-.06-.06,2.41,2.41,0,0,1-.57-1.39L77,118.5c0-.12,0-.23,0-.35s0-.24,0-.38v-.07l0-.07a.38.38,0,0,0-.32-.16l-.16,0h-.06c-.39,0-.78,0-1.21-.1h0a.55.55,0,0,0-.46.16.52.52,0,0,0-.1.41,2.69,2.69,0,0,0,0,.32,1.64,1.64,0,0,1,0,.23,5.48,5.48,0,0,0,.12,1.2.24.24,0,0,1,0,.08s0,.08,0,.12a2.29,2.29,0,0,0,.34,1.12l.09.14a3.39,3.39,0,0,0,1.29,1.37l.15.08a3.19,3.19,0,0,0,.64.32,4,4,0,0,0,1.37.24,3.86,3.86,0,0,0,.58,0,2.57,2.57,0,0,0,.67-.19,5.62,5.62,0,0,0,.91-.63,3,3,0,0,0,1-1.59c.08-.28.14-.55.2-.83a10.25,10.25,0,0,0-1.24-6.63c-.7-1-1.57-1.83-2.25-2.83-.88-1.32-1.58-4.56-.57-6a.48.48,0,0,1,.2-.22,1.24,1.24,0,0,1,.71-.22,1.52,1.52,0,0,1,.53.11c.25.08.41,2.59.49,2.85a8.15,8.15,0,0,1,.38,1.53c0,.16,0,.32.09.5s.1.46.41.46a.65.65,0,0,0,.17,0,6.62,6.62,0,0,1,.84-.06h.38a.41.41,0,0,0,.42-.44c0-.24,0-.5,0-.76A29,29,0,0,0,82.36,104.06Z" transform="translate(-23.74 -36.29)"/><path class="cls-6" d="M91.64,104a2.85,2.85,0,0,0-.27-.87,3,3,0,0,0-1-1.06l-.2-.15a.4.4,0,0,0-.25-.09l-.26-.07a9,9,0,0,0-1-.23l-.46,0a1.89,1.89,0,0,0-.65.1l-.28.07a6.09,6.09,0,0,0-.61.17,2.89,2.89,0,0,0-1.41.76c-1.58,2.77-2,8.28,1.09,10.36a3.35,3.35,0,0,1,.4.33l.85,1,.15.21a2.43,2.43,0,0,1,.29.49,16.08,16.08,0,0,1,.75,1.86,3.37,3.37,0,0,1,.08,2.12,2.74,2.74,0,0,1-1.12,1.46.62.62,0,0,1-.37.07h-.18s-.08-.07-.11-.1l-.06-.07A2.35,2.35,0,0,1,86.4,119l-.16-1.3,0-.34c0-.12,0-.24,0-.38v-.08l0-.06a.37.37,0,0,0-.32-.17.65.65,0,0,0-.16,0H85.6c-.39,0-.79,0-1.21-.11h0a.55.55,0,0,0-.45.15.53.53,0,0,0-.1.42,1.58,1.58,0,0,0,0,.32,1.5,1.5,0,0,1,0,.22,5.57,5.57,0,0,0,.12,1.21s0,0,0,.07a.5.5,0,0,0,0,.12,2.23,2.23,0,0,0,.34,1.12l.09.14a3.27,3.27,0,0,0,1.29,1.37l.15.09a2.91,2.91,0,0,0,.64.31,3.92,3.92,0,0,0,1.37.25c.19,0,.38,0,.58,0a3,3,0,0,0,.67-.19,5.1,5.1,0,0,0,.91-.64,3.11,3.11,0,0,0,1-1.58c.08-.28.14-.57.19-.84a6.77,6.77,0,0,0,.07-1.79v-.22a1.66,1.66,0,0,0-.06-.52c-.11-.56-.22-1.13-.38-1.69-.62-2-2.5-3.2-3.44-5.07-.5-1-1.28-4.88,0-5.64a1.36,1.36,0,0,1,.71-.21,1.37,1.37,0,0,1,.54.11c.25.08.41,2.58.49,2.85a8.12,8.12,0,0,1,.37,1.53c0,.16.06.32.1.5s.09.46.41.46a.74.74,0,0,0,.17,0,6.5,6.5,0,0,1,.84-.06h.38a.39.39,0,0,0,.41-.43,6.32,6.32,0,0,0,.06-.76C91.78,107.55,91.72,104.6,91.64,104Z" transform="translate(-23.74 -36.29)"/><path class="cls-6" d="M101.81,108.52c0-.22,0-.44,0-.66,0-2-.13-4.06-.33-6.1a14.28,14.28,0,0,1-2.13.49c-.25,0-.52.14-.46.62a4.07,4.07,0,0,1,.08,1.22c0,.2,0,2.74,0,2.93v.28c0,.56.06,1.11.06,1.63,0,.21,0,.42,0,.63s0,.46,0,.7c0,1,0,1.95,0,2.95,0,.65-.08,1.31-.13,1.94l-.16,2a7,7,0,0,1-.23,1.33,1.58,1.58,0,0,1-.5.83l-.13.11,0,0a2.68,2.68,0,0,1-.89.15h-.13l0,0,0,0a1.56,1.56,0,0,1-.79-.79,4.45,4.45,0,0,1-.3-1.5l0-.18c0-.34,0-.67,0-1l0-1c0-.3,0-.6,0-.9s0-.59,0-.89v-1.85a3.61,3.61,0,0,0,0-.54c0-.33,0-.64,0-1v-.42c0-.35,0-.69,0-1l0-1c0-.45,0-4.82,0-5.29v-1c0-.28,0-.47-.38-.53H93.8l-.17,0h-.09a.5.5,0,0,0-.43.55c0,.51-.06,2.56-.08,3.07,0,.2,0,2.75,0,3s0,.42,0,.62l0,1.09c0,.35,0,.7,0,1.06a.52.52,0,0,0,0,.14v.06a2.27,2.27,0,0,1,0,.35c0,.95,0,1.88,0,2.81s.06,1.75.06,2.61c0,.14,0,.27,0,.4a7.78,7.78,0,0,0,0,.83,10.45,10.45,0,0,0,.44,2.17,4.07,4.07,0,0,0,.51,1,4,4,0,0,0,2.13,1.53,3.43,3.43,0,0,0,1,.21h.13a7.74,7.74,0,0,0,1.71-.33,2.29,2.29,0,0,0,1.61-1.63,9.76,9.76,0,0,0,.43-2.15l0-.28c0-.41.09-.82.15-1.23l.09-.63c0-.35.05-.69.07-1s0-.65.06-1c0-.17,0-.34,0-.51,0-.53.07-1,.15-1.56a4.34,4.34,0,0,0,0-.53c0-.33,0-.64,0-1,0-.14,0-.27,0-.4a2.4,2.4,0,0,0,0-.37,4.89,4.89,0,0,0,0-.66Z" transform="translate(-23.74 -36.29)"/><path class="cls-6" d="M111.56,108.51c0-1,0-3.85,0-4.84V103l-.32,0-.53,0a6.21,6.21,0,0,0-1.11.13l-.22.06v.79a1.4,1.4,0,0,1,0,.29v3.33a4.22,4.22,0,0,1,0,.61l-.08,1.38,0,.84c0,.27,0,.54,0,.82l-.06.76c0,.26,0,.52,0,.8v.93c0,.21,0,.41,0,.61,0-.17-.09-.34-.13-.51-.12-.45-.22-.93-.32-1.4l-.1-.43-.06-.27c-.09-.36-.17-.71-.23-1.07,0-.15-.09-.29-.13-.43a4,4,0,0,1-.19-.74c0-.26-.11-.49-.17-.74l0-.16c-.12-.41-.23-.73-.35-1-.19-.64-.42-3.3-.7-4.12a.53.53,0,0,0-.51-.4h0c-.34,0-.72-.09-1.06-.14l-.32,0a1.77,1.77,0,0,0-.69.13l0,0a.36.36,0,0,0-.25.25s0,.84,0,.87a1,1,0,0,0-.12.56.35.35,0,0,1,0,.14,1.23,1.23,0,0,0,0,.19c0,.35-.1,1.92-.13,2.32s0,.8,0,1.2l-.06,1.22c0,.88,0,1.79,0,2.71,0,.48,0,1,0,1.43,0,.23,0,.46,0,.7,0,.59,0,1.16-.05,1.75v.09c0,.39,0,.77,0,1.16s0,.82,0,1.22c0,.6,0,1.23,0,1.85,0,.46,0,.92.06,1.41,0,.24.1.46.5.46h0l.57,0,.6,0a.68.68,0,0,0,.61-.61,4.49,4.49,0,0,0,.06-.61,5.32,5.32,0,0,0,0-.56,1.69,1.69,0,0,1,0-.23c0-.24,0-.48,0-.71s0-.47,0-.7c0-.43,0-.88,0-1.33,0-.14,0-.28,0-.42s0-.33,0-.5v-4.19a8.79,8.79,0,0,1,0-1.15s0-.28,0-.4c1.13,3.82,2.16,7.57,3.09,11.19l0,.15.15,0a.87.87,0,0,0,.31.05h0c.18,0,.37,0,.56,0s.38,0,.56,0a.5.5,0,0,0,.4-.26,1.16,1.16,0,0,0,.24-.72v-.08c0-.44,0-.85,0-1.3,0-.61,0-1.23.08-1.83,0-.32.05-.62.06-.91s0-.29,0-.46a1,1,0,0,1,0-.25v0a16.31,16.31,0,0,0,.13-2,1.62,1.62,0,0,1,0-.32v-.06c0-.22,0-.44,0-.68a3.5,3.5,0,0,0,0-.37c0-.38,0-.75,0-1.12s0-.75,0-1.14C111.61,110.2,111.59,109.35,111.56,108.51Z" transform="translate(-23.74 -36.29)"/><path class="cls-6" d="M122.16,109.92c0-.13,0-.27,0-.41a10.36,10.36,0,0,0-.06-1.25,6.29,6.29,0,0,0-.59-2.07,2.18,2.18,0,0,0-.91-1,6.39,6.39,0,0,0-2.18-.79,3.66,3.66,0,0,0-.66,0,3.7,3.7,0,0,0-1.19.23l-.32.09-.44.11a1.81,1.81,0,0,0-1.35,1.13c-.18.43-.32.8-.44,1.16s-.13.51-.2.77-.09.38-.14.57a4.65,4.65,0,0,0-.17.89c-.06.52-.1,1.06-.14,1.59v.16c0,.57-.08,1.17-.09,1.75,0,1,0,2,0,3,0,.43,0,.87.07,1.31h0l.14,1.52c0,.11,0,.22,0,.33a3.6,3.6,0,0,0,.2.94l.12.32c0,.08.06.17.09.24a2.67,2.67,0,0,0,1.61,1.69,4.76,4.76,0,0,0,1.49.42l.33,0a4,4,0,0,0,.6,0h0c.37,0,.71-.09,1.07-.15l.13,0a2.68,2.68,0,0,0,1.92-1.55,6.93,6.93,0,0,0,.75-2.46l.06-.39a4.54,4.54,0,0,0,.1-.74c0-.49.05-1,.08-1.5s0-.94.07-1.42q0-.5,0-1l0-1c0-.61,0-1.22.06-1.82C122.22,110.43,122.19,110.15,122.16,109.92Zm-2.08,3.35c0,.12,0,.23,0,.33,0,.36-.06.72-.09,1.08s0,.65-.08,1c0,.57-.1,1.14-.17,1.71a7.71,7.71,0,0,1-.37,1.64,1.55,1.55,0,0,1-.32.6,1.69,1.69,0,0,1-.94.47,1,1,0,0,1-.24,0h0a3.66,3.66,0,0,1-1.94-.77,1.49,1.49,0,0,1-.43-.74c0-.31-.09-.66-.12-1a4.24,4.24,0,0,1-.05-.87c0-.75,0-1.51,0-2.26l.12-1.89a2.89,2.89,0,0,1,0-.29c0-.11,0-.22,0-.32.07-.49.14-1,.18-1.47s.14-.88.18-1.35a8.11,8.11,0,0,1,.39-1.87,1.21,1.21,0,0,1,1-.89h.13a2.77,2.77,0,0,1,1.06.27l.12,0a2.5,2.5,0,0,1,1.19,1.19.67.67,0,0,1,.08.17,4.83,4.83,0,0,1,.28,1.29,4.86,4.86,0,0,0,0,.67c0,.14,0,.27,0,.41a20,20,0,0,1-.07,2.12A5.94,5.94,0,0,0,120.08,113.27Z" transform="translate(-23.74 -36.29)"/><path class="cls-6" d="M63.84,72.84a3.94,3.94,0,0,0,.87.21,2.79,2.79,0,0,0,.5,0,1.8,1.8,0,0,0,.45-.06,4.2,4.2,0,0,0,.47-.08,6.52,6.52,0,0,0,.63-.18l.82-.28,1.1-.31A5.1,5.1,0,0,1,69.76,72a3.31,3.31,0,0,1,1,.07,3.08,3.08,0,0,1,.65.21,3.17,3.17,0,0,1,.46.19,1,1,0,0,1,.23.45c0,.27.06.53.08.8,0,.12,0,.16-.09.08a4.72,4.72,0,0,0-.58-.31l-.33-.1-.36-.07a4.4,4.4,0,0,0-.51,0,2.61,2.61,0,0,0-.49,0,6.42,6.42,0,0,0-.63.15c-.22.06-.45.11-.68.19s-.66.22-1,.34-.78.32-1.15.45a4.76,4.76,0,0,1-.79.19,3.63,3.63,0,0,1-1.23,0L64,74.51a1.93,1.93,0,0,1-.65-.38.33.33,0,0,1-.12-.27c0-.3,0-.59,0-.9,0-.16,0-.29,0-.47A3.34,3.34,0,0,0,63.84,72.84Z" transform="translate(-23.74 -36.29)"/><path class="cls-6" d="M116.26,72.49c0,.18,0,.31,0,.47,0,.31,0,.6,0,.9a.31.31,0,0,1-.13.27,1.8,1.8,0,0,1-.64.38l-.35.07a3.63,3.63,0,0,1-1.23,0,4.76,4.76,0,0,1-.79-.19c-.38-.13-.76-.31-1.15-.45s-.66-.25-1-.34-.46-.13-.68-.19a6.42,6.42,0,0,0-.63-.15,2.64,2.64,0,0,0-.49,0,4.8,4.8,0,0,0-.52,0l-.36.07-.33.1a5.48,5.48,0,0,0-.57.31c-.09.08-.12,0-.1-.08l.09-.8a.91.91,0,0,1,.23-.45,7.85,7.85,0,0,1,1.1-.4,3.4,3.4,0,0,1,1-.07,5.1,5.1,0,0,1,1.08.19l1.1.31.81.28c.22.07.42.13.64.18a3.55,3.55,0,0,0,.47.08,1.74,1.74,0,0,0,.45.06,2.79,2.79,0,0,0,.5,0,3.73,3.73,0,0,0,.86-.21A3.39,3.39,0,0,0,116.26,72.49Z" transform="translate(-23.74 -36.29)"/></svg>