<?xml version="1.0" encoding="utf-8"?>
<!-- Generator: Adobe Illustrator 24.0.1, SVG Export Plug-In . SVG Version: 6.00 Build 0)  -->
<svg version="1.1" id="Guide_per_Facebook" xmlns="http://www.w3.org/2000/svg" xmlns:xlink="http://www.w3.org/1999/xlink" x="0px"
	 y="0px" viewBox="0 0 180 180" style="enable-background:new 0 0 180 180;" xml:space="preserve">
<style type="text/css">
	.st0{fill:#E40053;}
</style>
<path id="XMLID_184_" class="st0" d="M160.46,90c0,0,0,23.08-2.94,34.14c-1.62,6.1-6.4,10.91-12.46,12.54
	c-10.99,2.96-55.06,2.96-55.06,2.96s-44.07,0-55.06-2.96c-6.06-1.63-10.84-6.44-12.46-12.54C19.54,113.08,19.54,90,19.54,90
	s0-23.08,2.94-34.14c1.62-6.1,6.4-10.91,12.46-12.54C45.93,40.36,90,40.36,90,40.36s44.07,0,55.06,2.96
	c6.06,1.63,10.84,6.44,12.46,12.54C160.46,66.92,160.46,90,160.46,90z M75.59,110.95L112.42,90L75.59,69.05V110.95z"/>
</svg>
